<svg  viewBox="0 0 260 159" fill="none" xmlns="http://www.w3.org/2000/svg">
<path d="M1.07334 8.17203L1.07334 8.17407L0.5 148.779C0.5 148.779 0.5 148.779 0.5 148.78C0.500287 150.463 1.22311 152.697 2.68285 154.507C4.13199 156.304 6.28443 157.656 9.14935 157.656H251.015C253.077 157.656 254.957 156.756 256.325 155.42C257.697 154.08 258.519 152.337 258.519 150.693V9.23068C258.519 4.1611 253.777 0.50032 249.583 0.500031C249.583 0.500031 249.583 0.500031 249.583 0.500031L8.57649 0.733353H8.57601C6.5331 0.733353 4.6568 1.73529 3.2807 3.19249C1.90009 4.65445 1.07334 6.52155 1.07334 8.17203Z" fill="white" stroke="black"/>
<path d="M33.6123 109.722C33.611 109.722 33.611 109.722 33.6096 109.722C33.2496 109.721 32.9577 109.427 32.959 109.067L33.063 77.6515C33.063 77.2902 33.3576 76.9821 33.7163 77.0008C34.0776 77.0021 34.3683 77.2955 34.367 77.6555L34.2643 109.071C34.263 109.431 33.971 109.722 33.6123 109.722Z" fill="black"/>
<path d="M38.6737 102.105V84.6182H28.6523V102.105H38.6737Z" fill="white"/>
<path d="M29.304 101.453H38.0213V85.2702H29.304V101.453ZM38.6747 102.757H28.652C28.292 102.757 28 102.465 28 102.105V84.6182C28 84.2582 28.292 83.9661 28.652 83.9661H38.6747C39.0347 83.9661 39.3267 84.2582 39.3267 84.6182V102.105C39.3267 102.465 39.0347 102.757 38.6747 102.757Z" fill="black"/>
<path d="M59.9997 132.371H59.9983C59.6383 132.37 59.3463 132.078 59.3477 131.718L59.4503 89.1035C59.4517 88.7435 59.7437 88.4528 60.1037 88.4528H60.105C60.465 88.4528 60.7557 88.7461 60.7557 89.1061L60.6517 131.721C60.6517 132.079 60.3597 132.371 59.9997 132.371Z" fill="black"/>
<path d="M65.0623 122.271V98.5515H55.041V122.271H65.0623Z" fill="white"/>
<path d="M55.6921 121.619H64.4094V99.2034H55.6921V121.619ZM65.0614 122.923H55.0401C54.6787 122.923 54.3867 122.631 54.3867 122.271V98.5515C54.3867 98.1915 54.6787 97.8994 55.0401 97.8994H65.0614C65.4214 97.8994 65.7134 98.1915 65.7134 98.5515V122.271C65.7134 122.631 65.4214 122.923 65.0614 122.923Z" fill="black"/>
<path d="M1.26137 18.0466C0.901365 18.0466 0.60938 17.7559 0.60938 17.3959C0.608046 17.0359 0.900031 16.7426 1.26003 16.7426L258.512 16.2519C258.875 16.2466 259.164 16.5426 259.165 16.9026C259.165 17.2626 258.875 17.5559 258.513 17.5559L1.2627 18.0466H1.26137Z" fill="black"/>
<path d="M244.064 7.77193C243.461 7.65593 242.819 7.98259 242.516 8.47193C242.259 8.88659 242.223 9.4146 242.448 9.84393C242.673 10.2733 243.165 10.5839 243.688 10.5959C244.451 10.6146 245.132 9.96793 245.147 9.27193C245.161 8.57593 244.587 7.87193 244.064 7.77193Z" fill="black"/>
<path d="M230.584 7.77193C229.981 7.65593 229.339 7.98259 229.036 8.47193C228.779 8.88659 228.741 9.4146 228.968 9.84393C229.193 10.2733 229.685 10.5839 230.208 10.5959C230.971 10.6146 231.652 9.96793 231.667 9.27193C231.681 8.57593 231.107 7.87193 230.584 7.77193Z" fill="black"/>
<path d="M216.235 7.77193C215.631 7.65593 214.989 7.98259 214.687 8.47193C214.429 8.88659 214.392 9.4146 214.617 9.84393C214.844 10.2733 215.336 10.5839 215.859 10.5959C216.621 10.6146 217.303 9.96793 217.317 9.27193C217.332 8.57593 216.757 7.87193 216.235 7.77193Z" fill="black"/>
<path d="M167.466 121.164H167.465C167.105 121.164 166.813 120.872 166.814 120.511L166.917 66.5906C166.918 66.2306 167.21 65.94 167.569 65.94H167.57C167.93 65.94 168.222 66.2333 168.222 66.5933L168.118 120.513C168.118 120.873 167.826 121.164 167.466 121.164Z" fill="black"/>
<path d="M114.69 107.255C114.689 107.255 114.688 107.255 114.688 107.255C114.328 107.253 114.037 106.961 114.037 106.6L114.141 75.184C114.142 74.824 114.434 74.5333 114.793 74.5333C114.793 74.5333 114.794 74.5333 114.796 74.5333C115.156 74.5347 115.446 74.828 115.445 75.188L115.342 106.604C115.341 106.964 115.049 107.255 114.69 107.255Z" fill="black"/>
<path d="M193.854 84.3613C193.853 84.3613 193.853 84.3613 193.852 84.3613C193.492 84.36 193.201 84.068 193.201 83.7067L193.305 51.748C193.307 51.3893 193.598 51.0973 193.957 51.0973C193.957 51.0973 193.958 51.0973 193.96 51.0973C194.32 51.0987 194.611 51.392 194.609 51.752L194.507 83.7107C194.505 84.0707 194.213 84.3613 193.854 84.3613Z" fill="black"/>
<path d="M198.417 76.124V59.3347H189.395V76.124H198.417Z" fill="#ACD4F7" stroke="black"/>
<path d="M141.078 101.911C141.078 101.911 141.078 101.911 141.076 101.911C140.716 101.911 140.424 101.617 140.426 101.257L140.528 57.1386C140.53 56.78 140.822 56.488 141.182 56.488C141.182 56.488 141.182 56.488 141.183 56.488C141.543 56.4893 141.834 56.7813 141.834 57.1426L141.73 101.26C141.73 101.62 141.438 101.911 141.078 101.911Z" fill="black"/>
<path d="M145.64 90.9786V67.4213H136.619V90.9786H145.64Z" fill="#ACD4F7" stroke="black"/>
<path d="M172.5 107.5V77.5H162.5V107.5H172.5Z" fill="white" stroke="black"/>
<path d="M118.5 99V83C118.5 82.7239 118.276 82.5 118 82.5H111C110.724 82.5 110.5 82.7239 110.5 83V99C110.5 99.2761 110.724 99.5 111 99.5H118C118.276 99.5 118.5 99.2761 118.5 99Z" fill="white" stroke="black"/>
<path d="M88.3043 111.244C88.303 111.244 88.303 111.244 88.303 111.244C87.9417 111.243 87.651 110.951 87.6523 110.589L87.755 76.5107C87.7564 76.1507 88.0483 75.86 88.407 75.86C88.4083 75.86 88.4083 75.86 88.4097 75.86C88.7697 75.8613 89.0604 76.1547 89.059 76.5147L88.9564 110.593C88.955 110.953 88.663 111.244 88.3043 111.244Z" fill="black"/>
<path d="M220.24 78.948C220.24 78.948 220.24 78.948 220.239 78.948C219.879 78.948 219.588 78.6546 219.588 78.2946L219.692 34.6787C219.692 34.3187 219.984 34.028 220.344 34.028C220.344 34.028 220.344 34.028 220.345 34.028C220.705 34.0293 220.997 34.3213 220.996 34.6813L220.893 78.2973C220.892 78.6573 220.6 78.948 220.24 78.948Z" fill="black"/>
<path d="M67.5111 44.9854C67.5111 44.9854 67.5111 44.9854 67.5098 44.9854L31.8351 44.7507C31.7151 44.7507 31.6178 44.652 31.6192 44.532C31.6205 44.4134 31.7165 44.316 31.8365 44.316H31.8378L67.5125 44.5507C67.6325 44.5507 67.7298 44.648 67.7285 44.7694C67.7285 44.8894 67.6311 44.9854 67.5111 44.9854Z" fill="black"/>
<path d="M64.0248 52.084C64.0235 52.084 64.0234 52.084 64.0221 52.084L35.3235 51.8507C35.2021 51.8493 35.1061 51.7507 35.1074 51.632C35.1088 51.5107 35.2074 51.4347 35.3261 51.4147L64.0261 51.6493C64.1461 51.6506 64.2421 51.748 64.2421 51.8693C64.2408 51.988 64.1435 52.084 64.0248 52.084Z" fill="black"/>
<path d="M67.5111 59.184C67.5111 59.184 67.5111 59.184 67.5098 59.184L31.8351 58.9493C31.7151 58.9493 31.6178 58.8506 31.6192 58.7306C31.6205 58.612 31.7165 58.5147 31.8365 58.5147H31.8378L67.5125 58.7493C67.6325 58.7493 67.7298 58.848 67.7285 58.968C67.7285 59.088 67.6311 59.184 67.5111 59.184Z" fill="black"/>
<path d="M225.5 68.5V44.5H215.5V68.5H225.5Z" fill="white" stroke="black"/>
<path d="M93.5 106V82C93.5 81.7239 93.2761 81.5 93 81.5H84C83.7239 81.5 83.5 81.7239 83.5 82V106C83.5 106.276 83.7239 106.5 84 106.5H93C93.2761 106.5 93.5 106.276 93.5 106Z" fill="white" stroke="black"/>
</svg>
