<svg width="162" height="127" viewBox="0 0 162 127" fill="none" xmlns="http://www.w3.org/2000/svg">
<path d="M1.15602 10.0067L1.156 10.0098L0.5 115.36C0.5 115.361 0.5 115.361 0.5 115.362C0.50041 117.459 1.34056 120.224 3.02599 122.458C4.70251 124.68 7.1857 126.343 10.4787 126.343H151.764C154.136 126.343 156.303 125.236 157.885 123.584C159.469 121.929 160.431 119.764 160.431 117.704V11.3013C160.431 4.99237 154.927 0.500641 150.125 0.5C150.125 0.5 150.124 0.5 150.124 0.5L9.82369 0.786667H9.82267C7.47103 0.786667 5.30653 2.01952 3.71554 3.82023C2.12205 5.62377 1.15601 7.94001 1.15602 10.0067Z" fill="white" stroke="black"/>
<path d="M0.702788 16.8947C0.342788 16.8947 0.0521192 16.6053 0.0507858 16.2453C0.0494525 15.8853 0.340118 15.592 0.700118 15.5907L160.928 15.052C160.929 15.052 160.931 15.052 160.931 15.052C161.289 15.052 161.581 15.3427 161.583 15.7013C161.584 16.0627 161.293 16.3547 160.933 16.356L0.704122 16.8947H0.702788Z" fill="black"/>
<path d="M148.565 6.83602C147.961 6.72002 147.319 7.04669 147.017 7.53602C146.759 7.95069 146.722 8.47869 146.947 8.90803C147.174 9.33736 147.666 9.64801 148.189 9.66001C148.951 9.68001 149.633 9.03069 149.647 8.33602C149.662 7.64002 149.087 6.93602 148.565 6.83602Z" fill="black"/>
<path d="M135.084 6.83602C134.48 6.72002 133.839 7.04669 133.536 7.53602C133.279 7.95069 133.242 8.47869 133.467 8.90803C133.694 9.33736 134.186 9.64801 134.707 9.66001C135.471 9.68001 136.152 9.03069 136.167 8.33602C136.182 7.64002 135.607 6.93602 135.084 6.83602Z" fill="black"/>
<path d="M120.733 6.83602C120.131 6.72002 119.489 7.04669 119.185 7.53602C118.929 7.95069 118.892 8.47869 119.117 8.90803C119.343 9.33736 119.836 9.64801 120.357 9.66001C121.121 9.68001 121.801 9.03069 121.816 8.33602C121.831 7.64002 121.256 6.93602 120.733 6.83602Z" fill="black"/>
<path d="M68.4187 37.52C68.4174 37.52 68.4174 37.52 68.4174 37.52L32.7414 37.2853C32.6214 37.2853 32.5254 37.1866 32.5254 37.0666C32.5267 36.9466 32.6241 36.8506 32.7427 36.8506C32.7441 36.8506 32.7441 36.8506 32.7454 36.8506L68.42 37.084C68.54 37.0853 68.636 37.184 68.636 37.3026C68.6347 37.4226 68.5374 37.52 68.4187 37.52Z" fill="black"/>
<path d="M64.931 44.6187C64.9297 44.6187 64.9297 44.6187 64.9297 44.6187L36.2297 44.3853C36.1097 44.384 36.0124 44.2853 36.0137 44.1653C36.015 44.0453 36.1283 43.9627 36.2323 43.9507L64.9323 44.184C65.0523 44.1853 65.1497 44.2827 65.1483 44.4027C65.147 44.5227 65.0497 44.6187 64.931 44.6187Z" fill="black"/>
<path d="M68.4187 51.7186C68.4174 51.7186 68.4174 51.7186 68.4174 51.7186L32.7414 51.484C32.6214 51.4826 32.5254 51.3853 32.5254 51.2653C32.5267 51.1453 32.6134 51.064 32.7454 51.0493L68.42 51.284C68.54 51.284 68.636 51.3826 68.636 51.5026C68.6347 51.6213 68.5374 51.7186 68.4187 51.7186Z" fill="black"/>
<path d="M61.3817 99.4612V88.1544H48.9551V99.4612H61.3817Z" fill="white"/>
<path d="M49.6067 98.8081H60.7294V88.8065H49.6067V98.8081ZM61.3814 100.113H48.9547C48.5947 100.113 48.3027 99.8211 48.3027 99.4612V88.1544C48.3027 87.7947 48.5947 87.5027 48.9547 87.5027H61.3814C61.7414 87.5027 62.0334 87.7947 62.0334 88.1544V99.4612C62.0334 99.8211 61.7414 100.113 61.3814 100.113Z" fill="black"/>
<path d="M84.3179 99.4612V74.9187H71.8926V99.4612H84.3179Z" fill="white"/>
<path d="M72.5436 98.8081H83.6649V75.572H72.5436V98.8081ZM84.3169 100.113H71.8916C71.5303 100.113 71.2383 99.8211 71.2383 99.4612V74.9187C71.2383 74.5587 71.5303 74.2667 71.8916 74.2667H84.3169C84.6769 74.2667 84.9689 74.5587 84.9689 74.9187V99.4612C84.9689 99.8211 84.6769 100.113 84.3169 100.113Z" fill="black"/>
<path d="M107.253 99.4612V61.6667H94.8262V99.4612H107.253Z" fill="#ACD4F7"/>
<path d="M95.4778 98.8081H106.599V62.3187H95.4778V98.8081ZM107.253 100.113H94.8258C94.4658 100.113 94.1738 99.8211 94.1738 99.4612V61.6653C94.1738 61.3053 94.4658 61.0133 94.8258 61.0133H107.253C107.613 61.0133 107.904 61.3053 107.904 61.6653V99.4612C107.904 99.8211 107.613 100.113 107.253 100.113Z" fill="black"/>
<path d="M129.688 98.9612V46.04H118.262V98.9612H129.688Z" fill="white" stroke="black"/>
<path d="M81.6136 80.396H74.5962C74.4762 80.396 74.3789 80.2987 74.3789 80.1787C74.3789 80.0573 74.4762 79.9613 74.5962 79.9613H81.6136C81.7336 79.9613 81.8309 80.0573 81.8309 80.1787C81.8309 80.2987 81.7336 80.396 81.6136 80.396Z" fill="black"/>
<path d="M81.6136 85.0707H74.5962C74.4762 85.0707 74.3789 84.9733 74.3789 84.8533C74.3789 84.732 74.4762 84.636 74.5962 84.636H81.6136C81.7336 84.636 81.8309 84.732 81.8309 84.8533C81.8309 84.9733 81.7336 85.0707 81.6136 85.0707Z" fill="black"/>
<path d="M81.6136 89.7451H74.5962C74.4762 89.7451 74.3789 89.6483 74.3789 89.5268C74.3789 89.4065 74.4762 89.3092 74.5962 89.3092H81.6136C81.7336 89.3092 81.8309 89.4065 81.8309 89.5268C81.8309 89.6483 81.7336 89.7451 81.6136 89.7451Z" fill="black"/>
<path d="M81.6136 94.4185H74.5962C74.4762 94.4185 74.3789 94.321 74.3789 94.2013C74.3789 94.0816 74.4762 93.9841 74.5962 93.9841H81.6136C81.7336 93.9841 81.8309 94.0816 81.8309 94.2013C81.8309 94.321 81.7336 94.4185 81.6136 94.4185Z" fill="black"/>
</svg>
