<svg width="123" height="220" viewBox="0 0 123 220" fill="none" xmlns="http://www.w3.org/2000/svg">
<path d="M16.0572 172.125C15.9882 171.407 14.2947 170.586 14.3137 171.63C14.3467 173.484 14.9607 175.227 15.6312 176.936C16.4237 178.957 17.1877 181 18.0522 182.992C18.3322 183.637 20.2191 184.083 19.8601 183.117C18.5341 179.549 16.4257 175.962 16.0572 172.125Z" fill="#FFCA22"/>
<path d="M23.4301 182.963C23.5836 182.833 23.0657 182.168 22.9492 181.94C22.7037 181.459 22.4586 180.977 22.2131 180.496C21.6996 179.49 21.1821 178.486 20.6736 177.478C19.7306 175.609 18.9272 173.728 18.2617 171.744C18.0332 171.062 16.3787 170.286 16.6522 171.465C17.2047 173.847 18.3322 176.091 19.3982 178.276C19.9772 179.462 20.5576 180.648 21.1396 181.833C21.5406 182.649 21.8156 183.722 22.7501 184.057C23.0586 184.167 23.7381 184.284 23.8871 183.856C23.8976 183.825 23.9082 183.794 23.9192 183.764C24.0352 183.431 23.7241 183.133 23.4301 182.963Z" fill="#FFCA22"/>
<path d="M21.4612 172.249C21.1542 171.588 19.3707 171.022 19.8337 172.112C21.4197 175.845 22.9651 179.597 24.4631 183.367C24.7376 184.057 26.6617 184.22 26.2737 183.275C24.7497 179.563 23.1512 175.887 21.4612 172.249Z" fill="#FFCA22"/>
<path d="M24.2196 172.417C23.9966 171.692 22.2746 171.104 22.5951 172.244C23.7616 176.395 26.0356 180.262 27.9341 184.11C28.2641 184.779 30.1991 184.927 29.7451 184.038C27.8186 180.264 25.4701 176.483 24.2196 172.417Z" fill="#FFCA22"/>
<path d="M27.6312 173.944C27.2692 173.383 25.5546 173.152 26.1171 174.082C28.4756 177.983 30.9971 181.773 33.6331 185.493C33.9016 185.872 34.4157 186.112 34.8852 186.053C35.1867 186.015 35.7316 185.761 35.4406 185.361C32.7256 181.636 30.1312 177.817 27.6312 173.944Z" fill="#FFCA22"/>
<path d="M30.9991 171.952C30.5566 171.225 28.9227 171.048 29.5832 172.169C32.2822 176.753 35.0781 181.273 37.9961 185.721C38.4056 186.345 40.3481 186.366 39.8026 185.569C36.7496 181.11 33.8086 176.569 30.9991 171.952Z" fill="#FFCA22"/>
<path d="M36.1271 172.882C35.7936 172.325 34.0981 171.96 34.6076 172.937C36.5286 176.62 38.3952 180.329 40.2967 184.021C40.6312 184.67 42.5386 184.744 42.0971 183.811C40.3261 180.066 38.2546 176.432 36.1271 172.882Z" fill="#FFCA22"/>
<path d="M42.9612 179.73C42.0182 177.94 41.1052 176.134 40.2187 174.315C40.0232 173.914 39.5547 173.496 39.0822 173.496C38.6787 173.495 38.3977 173.762 38.5907 174.177C39.4077 175.938 40.2252 177.699 41.0542 179.454C41.9007 181.247 42.6732 183.251 43.8127 184.875C44.1467 185.352 45.8922 185.64 45.5177 184.698C44.8372 182.987 43.8197 181.361 42.9612 179.73Z" fill="#FFCA22"/>
<path d="M45.9716 179.312C45.0051 177.829 44.0676 176.327 43.1506 174.812C42.7691 174.181 40.9306 173.849 41.5181 174.87C42.4441 176.479 43.4001 178.07 44.3766 179.649C45.3851 181.28 46.3531 183.072 47.6111 184.522C47.9561 184.92 49.8011 185.237 49.3141 184.326C48.3766 182.576 47.0566 180.978 45.9716 179.312Z" fill="#FFCA22"/>
<path d="M45.8492 173.344C45.3432 172.668 43.6937 172.608 44.4537 173.668C47.0467 177.285 49.4962 181.065 52.2632 184.551C52.5527 184.916 53.0686 185.136 53.5386 185.056C53.8686 185 54.3372 184.742 54.0637 184.341C51.4942 180.57 48.5842 176.996 45.8492 173.344Z" fill="#FFCA22"/>
<path d="M51.1726 173.256C50.7641 172.506 49.1541 172.27 49.7501 173.426C51.7226 177.254 53.5291 181.193 55.6486 184.941C56.0041 185.57 57.9101 185.639 57.4466 184.711C55.5021 180.821 53.2531 177.074 51.1726 173.256Z" fill="#FFCA22"/>
<path d="M58.1421 179.193C57.0901 177.405 56.0841 175.594 55.1231 173.755C54.7771 173.093 52.9651 172.719 53.4896 173.778C54.3791 175.574 55.2861 177.364 56.2316 179.131C57.1836 180.91 58.1151 182.969 59.4071 184.522C59.7926 184.985 61.5081 185.071 61.0826 184.161C60.2806 182.442 59.1051 180.831 58.1421 179.193Z" fill="#FFCA22"/>
<path d="M62.0227 178.973C60.7582 177.081 59.5451 175.16 58.4031 173.192C58.0311 172.55 56.2066 172.227 56.7716 173.268C57.7986 175.158 58.8637 177.03 60.0002 178.857C61.1332 180.679 62.2856 182.766 63.7781 184.313C64.1676 184.717 65.9642 184.82 65.4497 183.933C64.4497 182.21 63.1312 180.632 62.0227 178.973Z" fill="#FFCA22"/>
<path d="M62.6231 173.623C62.2096 173.018 60.3591 172.774 60.9966 173.771C62.9581 176.837 64.8097 180.099 67.0742 182.953C67.4472 183.423 69.3376 183.328 68.9116 182.62C67.0361 179.505 64.6741 176.628 62.6231 173.623Z" fill="#FFCA22"/>
<path d="M69.1816 178.626C68.2276 176.838 67.2621 175.057 66.3156 173.265C66.0981 172.854 65.6321 172.542 65.1551 172.534C64.8431 172.529 64.2857 172.701 64.5077 173.14C65.4782 175.061 66.4296 176.991 67.3921 178.916C68.3101 180.75 69.0916 182.835 70.2726 184.513C70.5936 184.969 72.4531 185.15 72.1296 184.321C71.3626 182.352 70.1756 180.488 69.1816 178.626Z" fill="#FFCA22"/>
<path d="M69.8957 172.944C69.5597 172.418 67.8826 172.001 68.3771 173.016C70.1656 176.69 72.4372 180.149 74.8087 183.469C75.2392 184.072 77.1357 183.743 76.5332 182.911C74.1897 179.673 72.0462 176.312 69.8957 172.944Z" fill="#FFCA22"/>
<path d="M79.9036 181.711C79.2806 181.41 78.7646 180.295 78.3576 179.741C77.7576 178.922 77.1637 178.099 76.5782 177.27C75.3197 175.487 74.1141 173.671 72.9631 171.816C72.5671 171.178 70.7271 170.957 71.3361 171.964C72.5301 173.938 73.7451 175.902 75.0146 177.829C75.6521 178.797 76.3021 179.758 76.9696 180.705C77.5796 181.57 78.0061 182.389 79.0456 182.724C79.7736 182.958 80.9846 182.233 79.9036 181.711Z" fill="#FFCA22"/>
<path d="M82.3867 180.608C81.6307 179.174 80.5227 177.884 79.6472 176.514C78.7222 175.067 77.8566 173.585 77.0386 172.076C76.8171 171.667 76.3472 171.36 75.8702 171.357C75.5502 171.355 75.0117 171.531 75.2292 171.97C76.0112 173.549 76.8462 175.1 77.7487 176.614C78.6207 178.077 79.5052 179.803 80.7197 181.006C81.1197 181.403 82.8687 181.523 82.3867 180.608Z" fill="#FFCA22"/>
<path d="M80.2966 175.963C80.5791 176.426 82.4091 176.804 82.1636 175.933C81.6601 174.147 80.7106 172.422 79.9871 170.711C79.7036 170.04 77.7982 169.735 78.1747 170.684C78.8532 172.393 79.3401 174.395 80.2966 175.963Z" fill="#FFCA22"/>
<path d="M15.4081 207.566C15.1401 206.901 13.4412 206.33 13.8477 207.428C14.9582 210.429 16.1507 213.307 18.3232 215.635C19.0652 216.43 20.3567 215.899 19.4087 214.884C17.5197 212.862 16.4446 210.137 15.4081 207.566Z" fill="#FFCA22"/>
<path d="M16.6067 205.191C16.3817 204.83 15.8747 204.288 15.4067 204.406C14.9507 204.521 14.9327 204.933 15.1367 205.325C16.9582 208.831 18.7527 212.44 20.7867 215.813C21.1757 216.458 23.0137 216.922 22.4672 215.731C20.8062 212.108 18.7022 208.551 16.6067 205.191Z" fill="#FFCA22"/>
<path d="M20.9347 206.437C20.6007 205.8 18.8506 205.425 19.3691 206.461C20.8076 209.335 22.1356 212.271 23.3261 215.269C23.5101 215.732 23.9881 216.101 24.4696 216.143C24.7896 216.171 25.3751 216.024 25.1761 215.533C23.9126 212.416 22.4907 209.402 20.9347 206.437Z" fill="#FFCA22"/>
<path d="M24.9737 207.49C24.6922 206.742 22.8857 206.111 23.2987 207.322C24.3477 210.398 25.3752 213.49 26.5792 216.503C26.8712 217.234 28.8327 217.504 28.4457 216.468C27.3237 213.46 26.1042 210.494 24.9737 207.49Z" fill="#FFCA22"/>
<path d="M30.2691 211.944C29.5196 210.593 28.8122 209.188 27.9282 207.929C27.5807 207.434 25.7257 207.13 26.1722 208.121C26.8382 209.598 27.6792 210.993 28.4547 212.409C29.1782 213.729 29.8081 215.318 30.7756 216.458C31.1526 216.902 32.8972 217.299 32.5272 216.226C32.0107 214.723 31.0336 213.322 30.2691 211.944Z" fill="#FFCA22"/>
<path d="M35.3486 213.018C34.2326 211.416 33.0756 209.781 31.6556 208.464C31.2661 208.102 30.0601 207.969 30.4421 208.857C31.1026 210.391 32.4291 211.74 33.3731 213.1C34.4296 214.621 35.3086 216.319 36.4261 217.783C36.7846 218.252 38.6386 218.548 38.1776 217.551C37.4351 215.944 36.3501 214.457 35.3486 213.018Z" fill="#FFCA22"/>
<path d="M35.7382 208.714C35.2302 207.971 33.5562 207.866 34.2972 209.05C36.2417 212.154 38.2377 215.393 40.6022 218.167C40.8952 218.511 41.4292 218.722 41.8637 218.643C42.1527 218.59 42.6091 218.327 42.3536 217.934C40.2941 214.77 37.8702 211.834 35.7382 208.714Z" fill="#FFCA22"/>
<path d="M42.1687 213.292C41.0067 211.839 39.8842 210.35 38.7072 208.91C38.2847 208.394 36.5222 208.223 37.1727 209.238C38.2217 210.874 39.4077 212.418 40.6007 213.94C41.6327 215.257 42.6467 216.679 43.8392 217.839C44.2312 218.221 46.1872 218.366 45.5692 217.467C44.5552 215.994 43.2827 214.685 42.1687 213.292Z" fill="#FFCA22"/>
<path d="M41.5407 208.627C40.9757 208.092 39.5127 208.136 40.2812 209.186C41.3042 210.585 42.4871 211.864 43.5581 213.224C44.7566 214.746 45.8786 216.322 47.0356 217.877C47.4866 218.483 49.4712 218.375 48.8597 217.459C46.7532 214.302 44.2682 211.207 41.5407 208.627Z" fill="#FFCA22"/>
<path d="M46.4161 208.982C46.0261 208.572 44.4502 208.416 45.0362 209.356C45.9787 210.869 47.1146 212.259 48.1301 213.719C49.1331 215.161 50.0611 216.664 51.0741 218.097C51.4996 218.698 53.4796 218.734 52.9136 217.762C51.1041 214.657 48.8661 211.556 46.4161 208.982Z" fill="#FFCA22"/>
<path d="M53.1426 213.305C52.1011 211.9 51.0801 210.479 50.0756 209.045C49.6691 208.464 47.8941 208.326 48.5291 209.302C49.5821 210.921 50.6632 212.519 51.7732 214.095C52.7552 215.489 53.7017 216.995 54.8682 218.226C55.2362 218.614 57.1902 218.895 56.6147 217.953C55.6092 216.31 54.2856 214.845 53.1426 213.305Z" fill="#FFCA22"/>
<path d="M56.8552 213.2C55.7537 211.771 54.6611 210.335 53.5756 208.892C53.0476 208.19 51.3257 208.071 52.1312 209.211C54.2477 212.205 56.2401 215.516 58.6921 218.217C58.9996 218.555 59.4991 218.784 59.9491 218.707C60.2451 218.656 60.6891 218.403 60.4461 218.004C59.4091 216.301 58.0667 214.771 56.8552 213.2Z" fill="#FFCA22"/>
<path d="M58.2512 209.431C57.9902 209.157 57.5147 208.727 57.1032 208.899C56.7282 209.055 56.7296 209.455 56.9291 209.797C57.7041 211.123 58.7302 212.312 59.6097 213.565C60.6542 215.052 61.5706 216.628 62.5916 218.13C62.9451 218.651 64.8337 218.867 64.3477 217.938C62.7672 214.918 60.5737 211.862 58.2512 209.431Z" fill="#FFCA22"/>
<path d="M61.9547 209.439C61.5702 208.871 59.8297 208.608 60.4027 209.66C61.9122 212.429 63.6247 215.254 65.6812 217.612C66.0767 218.066 67.9882 218.152 67.4147 217.26C65.7007 214.592 63.7332 212.067 61.9547 209.439Z" fill="#FFCA22"/>
<path d="M67.2841 212.702C66.3956 211.308 65.6471 209.884 64.4956 208.701C63.7441 207.929 62.4356 208.412 63.3941 209.426C64.5036 210.6 65.1031 212.223 65.9781 213.582C66.8166 214.884 67.7716 216.253 68.8646 217.333C69.1911 217.656 69.6816 217.874 70.1356 217.78C70.4251 217.72 70.8716 217.449 70.6106 217.061C69.5876 215.539 68.2771 214.261 67.2841 212.702Z" fill="#FFCA22"/>
<path d="M71.0102 212.086C70.0302 210.568 69.0137 209.077 67.9232 207.646C67.4647 207.044 65.5481 206.835 66.2581 207.902C67.2431 209.38 68.2246 210.862 69.1631 212.374C70.0946 213.874 70.8832 215.703 72.0157 217.031C72.3687 217.446 74.1647 217.947 73.7737 216.859C73.1677 215.174 71.9692 213.571 71.0102 212.086Z" fill="#FFCA22"/>
<path d="M70.2361 206.956C69.7201 206.211 68.0406 206.161 68.8026 207.324C70.7986 210.372 72.6217 213.654 74.8567 216.514C75.2377 217.001 77.1266 217.119 76.5966 216.201C74.7331 212.972 72.3511 210.009 70.2361 206.956Z" fill="#FFCA22"/>
<path d="M73.6497 206.916C73.2082 206.264 71.2941 206.062 71.9781 207.114C74.0116 210.245 76.1761 213.514 78.7961 216.138C79.2456 216.588 81.1196 216.357 80.4711 215.55C78.1616 212.681 75.7297 209.991 73.6497 206.916Z" fill="#FFCA22"/>
<path d="M80.2827 210.724C79.1682 209.275 78.1177 207.793 77.1522 206.23C76.7332 205.553 74.8312 205.311 75.4767 206.39C77.2717 209.39 79.2036 212.784 81.7471 215.154C82.1791 215.557 84.0642 215.483 83.4342 214.605C82.4637 213.255 81.2972 212.044 80.2827 210.724Z" fill="#FFCA22"/>
<path d="M83.7736 211.289C82.8461 209.483 81.7852 207.738 80.7807 205.977C80.4012 205.312 78.4116 205.171 78.9201 206.141C79.8701 207.954 80.7681 209.818 81.7991 211.581C82.1946 212.258 84.2026 212.125 83.7736 211.289Z" fill="#FFCA22"/>
<path d="M121.401 202.401C119.535 195.825 116.735 189.643 113.332 183.725C110.436 178.733 107.156 173.909 103.267 169.631C100.824 166.943 97.9186 163.936 94.4176 162.675C92.3681 161.937 90.3101 162.462 89.0096 163.913C88.8191 163.847 88.5401 163.87 88.1506 164.037C86.4461 164.767 84.8197 166.222 83.5552 167.548C81.9112 169.271 82.1321 170.831 82.4841 173.054C82.8221 175.19 83.2521 177.31 83.7646 179.41C84.1151 180.846 84.5061 182.272 84.9316 183.688C84.9371 183.802 84.9727 183.92 85.0347 184.036C85.4232 185.311 85.8416 186.578 86.2876 187.835C86.2946 187.969 86.3506 188.111 86.4386 188.247C86.8301 189.335 87.2387 190.416 87.6697 191.488C89.0817 194.996 90.6961 198.452 92.5881 201.729C92.4726 201.934 92.3566 202.139 92.2406 202.344C91.9221 202.909 93.0261 203.612 93.6681 203.469C94.0911 204.104 94.5341 204.716 94.9936 205.313C94.9506 205.387 94.9082 205.462 94.8652 205.537C94.5622 206.059 95.4811 206.722 96.1271 206.71C97.3096 208.104 98.5866 209.423 99.9446 210.725C101.553 212.267 103.158 213.812 104.769 215.35C105.096 215.663 105.426 215.968 105.761 216.261C105.881 216.526 106.211 216.784 106.562 216.919C107.475 217.62 108.461 218.197 109.617 218.53C110.544 218.797 111.428 217.907 110.434 217.504C110.475 217.481 110.512 217.453 110.544 217.419C111.652 216.255 112.552 214.978 113.237 213.538C113.516 213.732 113.804 213.917 114.1 214.091C113.597 214.986 113.026 215.86 112.341 216.614C112.159 216.815 112.169 217.039 112.289 217.243C112.118 217.31 111.947 217.375 111.776 217.436C111.491 217.364 111.215 217.392 111.106 217.721C111.104 217.727 111.103 217.733 111.102 217.739C110.831 218.218 111.471 218.69 112.053 218.854C112.059 218.858 112.065 218.863 112.07 218.867C112.068 218.863 112.065 218.86 112.062 218.857C112.301 218.923 112.528 218.938 112.675 218.878C115.137 217.869 117.28 216.358 119.415 214.804C119.495 214.746 119.543 214.685 119.577 214.623C123.687 212.4 122.423 206.003 121.401 202.401ZM83.7586 169.913C83.9511 169.896 84.1226 169.819 84.2366 169.664C85.2526 168.275 86.5021 167.444 87.7746 166.483C87.7101 166.81 87.6696 167.141 87.6486 167.475C87.6376 167.487 87.6241 167.496 87.6141 167.509C86.3696 169.135 85.2076 170.818 84.1916 172.594C84.0386 171.703 83.8946 170.809 83.7586 169.913ZM84.9671 176.696C84.8451 176.113 84.7276 175.528 84.6156 174.942C84.8606 175.021 85.0856 174.993 85.2026 174.786C86.0336 173.314 86.9201 171.88 87.8796 170.493C87.9581 170.912 88.0461 171.328 88.1431 171.736C86.9656 173.304 85.8461 174.939 84.9671 176.696ZM86.0632 181.31C85.9282 180.807 85.7976 180.303 85.6731 179.799C85.6926 179.771 85.7131 179.745 85.7286 179.71C86.5996 177.804 87.5631 175.909 88.7601 174.178C89.0116 175.144 89.2761 176.107 89.5531 177.065C89.2106 176.924 88.8556 176.918 88.6756 177.178C87.7456 178.521 86.8562 179.887 86.0632 181.31ZM87.3912 185.778C87.2027 185.196 87.0176 184.614 86.8411 184.03C87.8066 182.189 88.8291 180.372 90.0416 178.68C90.1106 178.9 90.1756 179.121 90.2466 179.339C90.4456 179.949 90.6541 180.554 90.8706 181.157C89.5801 182.609 88.4157 184.137 87.3912 185.778ZM88.2121 188.191C89.2006 186.436 90.3537 184.764 91.6567 183.223C91.8077 183.604 91.9611 183.983 92.1191 184.361C90.6486 185.799 89.4316 187.478 88.6476 189.372C88.5011 188.978 88.3531 188.586 88.2121 188.191ZM89.7117 192.085C89.7237 192.06 89.7381 192.039 89.7471 192.01C90.4266 189.884 91.4701 187.924 92.9546 186.284C93.1011 186.607 93.2546 186.926 93.4061 187.246C92.1501 188.98 90.9646 190.726 89.9311 192.605C89.8581 192.431 89.7837 192.259 89.7117 192.085ZM91.7911 196.699C91.4991 196.102 91.2141 195.501 90.9371 194.896C91.9341 192.928 93.0581 190.981 94.3446 189.167C94.7151 189.898 95.0941 190.625 95.4881 191.344C94.1126 193.062 92.8396 194.773 91.7911 196.699ZM93.5411 200.039C93.3141 199.629 93.0881 199.217 92.8681 198.802C93.8666 196.82 95.0551 194.842 96.4846 193.108C96.6476 193.389 96.8151 193.668 96.9816 193.947C95.8331 195.977 94.6871 198.008 93.5411 200.039ZM95.8616 203.805C95.4541 203.232 95.0621 202.641 94.6886 202.029C95.8476 199.978 97.0051 197.926 98.1616 195.873C98.5371 196.467 98.9176 197.057 99.3071 197.642C98.1776 199.707 97.0316 201.763 95.8616 203.805ZM97.8056 206.279C97.5871 206.024 97.3712 205.767 97.1597 205.507C98.3057 203.494 99.4256 201.469 100.531 199.434C100.695 199.668 100.861 199.9 101.027 200.132C100.915 200.168 100.817 200.24 100.748 200.37C99.7192 202.315 98.7231 204.278 97.8056 206.279ZM99.7961 208.449C99.6116 208.259 99.4281 208.069 99.2471 207.877C100.189 205.812 101.155 203.761 102.202 201.747C102.564 202.235 102.931 202.719 103.301 203.2C102.87 202.697 101.892 202.376 101.712 203.017C101.192 204.878 100.537 206.673 99.7961 208.449ZM101.84 210.467L101.752 210.383C101.601 210.239 101.452 210.094 101.302 209.949C102.199 207.956 102.915 205.892 103.491 203.783C103.536 203.619 103.479 203.447 103.367 203.287C103.714 203.737 104.064 204.183 104.418 204.626C104.325 204.677 104.247 204.756 104.197 204.874C103.53 206.438 102.865 208.003 102.206 209.571C102.082 209.865 101.942 210.17 101.84 210.467ZM104.406 212.915C104.115 212.637 103.824 212.36 103.533 212.082C103.574 212.026 103.607 211.96 103.619 211.874C103.64 211.731 103.524 211.619 103.442 211.514C103.576 211.449 103.833 210.812 103.845 210.784C104.476 209.27 105.097 207.752 105.724 206.236C106.165 206.765 106.614 207.288 107.071 207.805C106.88 207.802 106.713 207.865 106.614 208.025C105.683 209.545 104.887 211.191 104.406 212.915ZM106.42 214.839C106.266 214.691 106.113 214.543 105.96 214.398C105.955 214.393 105.95 214.387 105.944 214.383C106.015 214.332 106.067 214.261 106.096 214.166C106.625 212.382 107.299 210.709 108.27 209.117C108.433 209.29 108.598 209.461 108.763 209.631C108.707 209.682 108.659 209.746 108.626 209.832C107.988 211.531 107.34 213.263 106.42 214.839ZM108.926 216.356C108.792 216.494 108.767 216.648 108.815 216.799C108.493 216.604 108.184 216.386 107.886 216.15C108.811 214.515 109.67 212.874 110.243 211.075C110.702 211.501 111.168 211.919 111.649 212.319C110.959 213.8 110.066 215.178 108.926 216.356ZM107.26 204.995C105.199 202.522 103.239 199.943 101.42 197.267C101.363 197.135 101.275 197.005 101.164 196.886C99.1266 193.856 97.2722 190.703 95.6592 187.438C95.7877 187.281 95.9132 187.121 96.0447 186.967C96.4017 186.548 95.5411 185.83 94.8696 185.787C94.5336 185.061 94.2056 184.332 93.8941 183.596C93.6201 182.948 93.3586 182.293 93.1031 181.633C93.1296 181.606 93.1536 181.576 93.1806 181.549C93.5056 181.221 93.1086 180.638 92.6116 180.338C91.4041 177.033 90.4316 173.609 89.7371 170.186C89.2646 167.856 88.9207 163.017 92.5837 163.904C94.0592 164.262 95.4081 165.163 96.6081 166.06C98.3671 167.373 99.9456 168.918 101.43 170.531C105.415 174.861 108.759 179.775 111.706 184.857C114.606 189.9 117.16 195.158 118.899 200.721C119.609 202.992 120.336 205.301 120.595 207.676C120.784 209.415 120.808 211.835 119.489 213.205C119.231 213.473 118.927 213.62 118.597 213.688C118.393 213.653 118.194 213.659 118.037 213.727C116.505 213.643 114.626 212.215 113.731 211.525C111.303 209.656 109.216 207.341 107.26 204.995ZM115.892 214.909C116.033 214.953 116.174 214.992 116.317 215.026C116.048 215.216 115.783 215.409 115.503 215.587C115.641 215.368 115.764 215.136 115.892 214.909Z" fill="#1F1E21"/>
<path d="M24.3571 157.559C24.3416 157.568 24.3257 157.576 24.3097 157.585C24.3347 157.606 24.4976 157.609 24.6671 157.519C24.6016 157.532 24.5357 157.545 24.4752 157.547C24.4202 157.549 24.3846 157.554 24.3571 157.559Z" fill="#1F1E21"/>
<path d="M30.3792 184.855C30.0417 184.374 28.2407 184.08 28.6742 185.041C29.3212 186.476 30.1377 187.83 30.8907 189.204C31.5932 190.486 32.2046 192.03 33.1441 193.136C33.5101 193.567 35.2041 193.953 34.8446 192.91C34.3421 191.452 33.3937 190.092 32.6517 188.754C31.9242 187.442 31.2372 186.077 30.3792 184.855Z" fill="#1F1E21"/>
<path d="M84.9036 181.829C84.6886 181.125 83.8592 181.31 83.3372 181.039C82.6522 180.685 81.1856 181.994 81.9501 182.389C82.2131 182.525 83.0621 182.586 83.1561 182.708C83.2341 182.81 83.1561 183.325 83.1561 183.449C83.1561 184.128 83.1561 184.807 83.1561 185.486C82.6706 184.642 82.1772 183.802 81.6962 182.96C81.3277 182.315 79.3961 182.177 79.8901 183.119C80.8121 184.879 81.6841 186.69 82.6851 188.401C82.7741 188.553 82.9481 188.661 83.1561 188.73C83.1561 189.043 83.1561 189.357 83.1561 189.671C83.1561 189.754 83.1551 189.836 83.1561 189.919C82.5051 189.138 81.8312 188.374 81.2127 187.57C80.1302 186.163 79.1107 184.724 78.1732 183.206C78.0307 182.975 77.7117 182.799 77.3842 182.71C78.5657 182.417 79.7212 182.035 80.7747 181.481C81.4847 181.107 82.3012 180.577 82.6002 179.79C82.8287 179.189 82.7031 178.386 82.7031 177.762C82.7031 175.474 82.7031 173.186 82.7031 170.898C82.7031 170.608 82.4772 170.537 82.1892 170.596C82.1787 170.521 82.1427 170.436 82.0712 170.341C81.9697 170.207 81.8592 170.079 81.7532 169.947C82.1207 169.655 82.4377 169.306 82.6002 168.878C82.8287 168.277 82.7031 167.475 82.7031 166.85C82.7031 164.562 82.7031 162.274 82.7031 159.986C82.7031 159.84 82.6447 159.75 82.5502 159.703C82.2077 158.782 80.9222 158.092 79.8352 157.731C77.1732 156.849 74.2376 156.466 71.4681 156.107C68.3916 155.707 65.2961 155.438 62.2011 155.238C55.8466 154.826 49.4716 154.747 43.1061 154.893C39.0501 154.987 34.9946 155.2 30.9471 155.483C29.2611 155.601 27.5671 155.713 25.8911 155.937C25.0576 156.048 23.2132 156.221 23.3022 157.447C23.3347 157.893 23.8481 157.844 24.3106 157.585C24.3006 157.577 24.3142 157.567 24.3582 157.559C24.7412 157.33 25.0762 156.961 25.0507 156.615C25.0902 157.156 24.8767 157.407 24.6682 157.518C24.7607 157.5 24.8532 157.479 24.9367 157.466C25.4877 157.381 26.0447 157.327 26.5992 157.272C28.0122 157.133 29.4287 157.03 30.8452 156.934C33.3917 156.762 35.9407 156.615 38.4907 156.51C49.6927 156.047 61.1492 156.123 72.2517 157.837C74.5122 158.186 77.0917 158.473 79.2172 159.367C79.6497 159.549 80.1772 159.797 80.5067 160.144C80.9812 160.644 80.9497 160.926 80.3312 161.238C79.7272 161.543 79.0257 161.731 78.3357 161.897C78.0752 161.889 77.8387 161.935 77.7107 162.05C77.5937 162.078 77.4736 162.105 77.3601 162.134C76.8601 162.26 76.3547 162.369 75.8492 162.479C75.2877 161.966 73.7681 161.849 74.3456 162.766C74.3486 162.771 74.3522 162.776 74.3557 162.781C73.7197 162.901 73.0807 163.012 72.4387 163.113C71.8762 162.645 70.4556 162.552 70.8976 163.343C70.4121 163.409 69.9257 163.472 69.4387 163.531C69.3787 163.449 69.3177 163.369 69.2582 163.287C68.7572 162.6 67.1267 162.554 67.8662 163.627C67.8827 163.651 67.8987 163.675 67.9157 163.699C67.5732 163.735 67.2311 163.773 66.8886 163.806C66.3506 163.386 65.0137 163.27 65.2852 163.954C63.8357 164.081 62.3896 164.194 60.9591 164.307C58.0556 164.535 55.1721 164.625 52.2871 164.622C52.0691 164.572 51.8592 164.568 51.7062 164.619C49.3272 164.607 46.9457 164.536 44.5492 164.421C38.7922 164.145 33.0206 164.042 27.2896 163.387C26.3581 163.28 25.3972 163.185 24.4282 163.078C24.2257 163.007 24.0297 162.982 23.8812 163.016C23.0052 162.914 22.1277 162.796 21.2592 162.647C20.8842 162.288 20.0447 162.088 19.8307 162.369C18.9897 162.18 18.1676 161.95 17.3796 161.658C17.3101 161.632 17.2177 161.597 17.1117 161.554C16.8687 161.231 16.4311 160.836 16.0216 160.935C15.9981 160.94 15.9801 160.95 15.9591 160.957C15.5476 160.666 15.2717 160.314 15.4922 159.945C15.8072 159.418 17.3306 159.127 17.8446 158.977C19.1936 158.584 20.5737 158.308 21.9557 158.061C22.8052 157.908 23.4652 156.419 22.1902 156.647C20.7032 156.914 13.1402 157.992 13.6332 160.904C13.6332 162.887 13.6332 164.872 13.6332 166.856C13.6332 168.17 13.3022 169.481 14.4977 170.333C14.6282 170.426 14.7707 170.505 14.9092 170.589C14.3912 170.673 13.6332 171.219 13.6332 171.729C13.6332 173.742 13.6332 175.754 13.6332 177.767C13.6332 179.082 13.3022 180.393 14.4977 181.244C15.0442 181.633 15.6736 181.93 16.3366 182.175C15.4726 183.473 15.6987 185.108 15.7982 186.604C15.8697 187.675 15.8341 188.752 15.8341 189.824C15.8341 190.345 15.7271 190.932 15.9786 191.415C16.0211 191.496 16.0702 191.574 16.1242 191.649C15.9447 191.653 15.7272 191.736 15.4912 191.93C15.1962 192.171 14.8831 192.418 14.5981 192.686C14.4796 192.722 14.3912 192.804 14.3477 192.941C13.9487 193.374 13.6496 193.867 13.6336 194.487C13.6116 195.317 13.6336 196.15 13.6336 196.98C13.6336 198.782 13.4381 200.702 13.6336 202.495C13.8401 204.391 16.5636 204.974 18.0656 205.329C20.3991 205.88 22.8206 206.135 25.1986 206.424C28.0186 206.767 30.8566 206.95 33.6971 207.084C33.9766 207.422 34.4481 207.636 34.8886 207.58C35.1131 207.552 35.4717 207.403 35.5207 207.165C36.3522 207.199 37.1827 207.232 38.0132 207.264C38.3967 207.802 39.9247 207.873 39.8982 207.336C44.4082 207.512 48.9212 207.638 53.4347 207.576C58.1667 207.512 62.9056 207.244 67.6126 206.749C68.7196 206.633 69.8407 206.512 70.9637 206.374C71.4012 206.465 71.9041 206.442 72.0931 206.229C74.6391 205.879 77.1776 205.397 79.5781 204.576C80.9126 204.12 82.5912 203.261 82.7062 201.675C82.7597 200.937 82.7062 200.176 82.7062 199.437C82.7062 197.424 82.7062 195.412 82.7062 193.399C82.7062 192.592 80.9581 193.457 80.9581 194.231C80.9581 194.279 80.9581 194.327 80.9581 194.376C80.8006 194.033 80.6427 193.692 80.4862 193.352C81.5337 193.069 82.6277 192.698 83.5147 192.098C84.0617 192.094 84.5837 191.889 84.3242 191.423C84.7642 190.944 84.9047 190.472 84.9072 189.837C84.9117 188.723 84.9072 187.609 84.9072 186.495C84.9072 185.202 84.9072 183.91 84.9072 182.617C84.9037 182.393 84.9696 182.046 84.9036 181.829ZM76.5457 183.362C78.1792 186.092 79.9362 189.148 82.1832 191.417C81.8137 191.576 81.4346 191.714 81.0491 191.833C78.9116 189.205 76.6881 186.706 74.7716 183.873C74.6151 183.642 74.2672 183.469 73.9217 183.393C74.7422 183.251 75.5857 183.107 76.4262 182.929C76.4057 183.038 76.4362 183.179 76.5457 183.362ZM74.7401 193.149C74.1191 191.651 73.0681 190.222 72.2091 188.892C71.2576 187.419 70.2706 185.971 69.2116 184.581C69.0636 184.386 68.7592 184.237 68.4437 184.158C68.9367 184.103 69.4286 184.041 69.9211 183.979C69.9511 184.066 69.9946 184.16 70.0656 184.268C71.9361 187.124 73.6536 190.189 75.7221 192.896C75.5716 192.917 75.4121 192.973 75.3041 193.065C75.1161 193.094 74.9281 193.122 74.7401 193.149ZM76.2871 204.089C74.1871 201.163 72.2401 198.141 70.3016 195.107C70.9321 195.039 71.5637 194.968 72.1952 194.891C73.1152 196.392 74.0467 197.887 75.0147 199.357C75.6522 200.325 76.3021 201.286 76.9696 202.233C77.3516 202.775 77.6622 203.299 78.0962 203.697C77.4947 203.846 76.8851 203.972 76.2871 204.089ZM71.7026 204.855C70.9616 203.248 70.0066 201.7 69.1816 200.154C68.3451 198.587 67.5022 197.024 66.6692 195.456C67.3602 195.397 68.0496 195.327 68.7391 195.259C70.3656 198.465 72.3421 201.508 74.4161 204.441C73.5151 204.599 72.6101 204.735 71.7026 204.855ZM61.7556 194.342C60.7771 192.808 59.5692 191.406 58.4652 189.974C57.3957 188.586 56.3347 187.192 55.2812 185.792C54.7687 185.11 53.0962 184.994 53.8787 186.101C55.8267 188.856 57.6706 191.882 59.8846 194.424C59.3196 194.447 58.7546 194.469 58.1896 194.488C58.1761 194.477 58.1607 194.468 58.1462 194.457C57.1812 192.916 55.9386 191.53 54.8601 190.076C53.8486 188.713 52.8576 187.333 51.8821 185.94C51.4871 185.376 49.7642 185.242 50.3802 186.189C51.4027 187.761 52.4522 189.313 53.5302 190.844C54.4042 192.084 55.2566 193.406 56.2636 194.54C55.7466 194.551 55.2297 194.56 54.7122 194.568C54.6962 194.517 54.6717 194.463 54.6382 194.405C52.8807 191.389 50.7077 188.379 48.3292 185.879C47.9507 185.481 46.4206 185.329 46.9891 186.243C47.9041 187.712 49.0077 189.061 49.9937 190.479C50.9362 191.833 51.8112 193.242 52.7582 194.592C52.1817 194.596 51.6057 194.594 51.0297 194.593C50.9662 194.525 50.8942 194.462 50.8142 194.408C50.8112 194.321 50.7762 194.222 50.7017 194.111C48.6567 191.045 46.2432 188.041 43.5952 185.535C43.0462 185.016 41.6262 185.059 42.3722 186.078C43.3657 187.436 44.5141 188.678 45.5541 189.999C46.7176 191.476 47.8072 193.007 48.9307 194.516C48.9497 194.542 48.9742 194.564 48.9987 194.587C48.5217 194.582 48.0452 194.575 47.5687 194.568C47.6462 194.465 47.6442 194.32 47.5062 194.119C46.5227 192.689 45.2861 191.418 44.2051 190.065C43.0771 188.654 41.9872 187.208 40.8442 185.811C40.4342 185.309 38.7232 185.143 39.3542 186.128C40.3727 187.717 41.5242 189.217 42.6827 190.695C43.6847 191.973 44.6692 193.354 45.8272 194.48C45.8492 194.502 45.8777 194.522 45.9092 194.543C45.7397 194.539 45.5692 194.534 45.3997 194.531C45.0137 194.351 44.5497 194.327 44.3532 194.507C44.3492 194.507 44.3446 194.507 44.3406 194.507C42.3501 191.46 40.0172 188.627 37.9622 185.62C37.4692 184.899 35.8436 184.797 36.5631 185.946C38.3711 188.833 40.2297 191.836 42.3997 194.451C41.7302 194.43 41.0606 194.408 40.3901 194.38C40.3796 194.325 40.3612 194.266 40.3307 194.199C39.6097 192.639 38.5562 191.195 37.5837 189.799C36.5002 188.243 35.3761 186.656 33.9981 185.376C33.6196 185.025 32.4491 184.896 32.8196 185.758C33.4606 187.248 34.7487 188.558 35.6657 189.878C36.6612 191.311 37.4971 192.901 38.5371 194.294C37.6326 194.248 36.7286 194.192 35.8251 194.13C35.3841 193.855 34.6791 193.735 34.5396 194.036C33.4056 193.947 32.2741 193.839 31.1441 193.717C31.0961 193.638 31.0467 193.56 30.9987 193.482C30.9772 193.446 30.9507 193.413 30.9237 193.381C30.9232 193.311 30.9137 193.236 30.8802 193.148C29.7907 190.228 28.6067 187.348 27.5092 184.432C27.4787 184.35 27.4267 184.27 27.3632 184.193C28.8902 184.356 30.4207 184.489 31.9492 184.604C41.9502 185.361 52.0497 185.389 62.0562 184.719C63.8737 184.597 65.6916 184.448 67.5056 184.262C67.4106 184.379 67.4156 184.562 67.5946 184.831C68.5511 186.266 69.5042 187.706 70.4157 189.173C71.1917 190.423 71.8661 191.905 72.7361 193.116C72.2931 192.796 71.4931 192.681 71.2726 192.965C70.3876 191.803 69.3862 190.739 68.5912 189.492C67.7287 188.138 67.0017 186.755 65.8832 185.606C65.1537 184.856 63.8832 185.325 64.8142 186.31C65.8917 187.449 66.4737 189.026 67.3232 190.346C68.0732 191.51 68.9242 192.72 69.8832 193.725C69.4787 193.766 69.0752 193.809 68.6707 193.847C67.0167 191.283 65.1277 188.851 63.4167 186.324C63.0432 185.773 61.3532 185.518 61.9102 186.539C63.3222 189.13 64.9211 191.768 66.8221 194.005C66.3766 194.041 65.9311 194.079 65.4851 194.112C63.9736 191.332 61.9562 188.552 59.8202 186.315C59.5667 186.05 59.1047 185.632 58.7057 185.799C58.3417 185.95 58.3427 186.339 58.5367 186.671C59.2892 187.959 60.2852 189.113 61.1392 190.329C62.0312 191.599 62.8301 192.933 63.6831 194.229C63.0411 194.268 62.3986 194.309 61.7556 194.342ZM57.3261 206.003C55.6326 202.642 53.7211 199.384 51.8926 196.091C52.5526 196.088 53.2127 196.078 53.8727 196.068C54.6407 197.607 55.4202 199.142 56.2317 200.659C57.1602 202.393 58.0711 204.391 59.3146 205.93C58.6521 205.96 57.9891 205.981 57.3261 206.003ZM54.0637 205.869C51.7737 202.508 49.2132 199.303 46.7472 196.06C47.9407 196.08 49.1347 196.09 50.3297 196.092C52.0117 199.42 53.6087 202.806 55.4232 206.06C54.9952 206.07 54.5672 206.078 54.1392 206.085C54.1357 206.018 54.1172 205.948 54.0637 205.869ZM61.0832 205.688C60.2807 203.97 59.1052 202.358 58.1422 200.721C57.2357 199.18 56.3702 197.618 55.5312 196.04C56.1657 196.025 56.7996 196.004 57.4341 195.983C58.2581 197.469 59.1027 198.943 59.9997 200.385C61.0922 202.142 62.2062 204.141 63.6227 205.669C62.7932 205.73 61.9637 205.783 61.1332 205.83C61.1217 205.786 61.1072 205.739 61.0832 205.688ZM45.4511 206.069C44.7716 204.415 43.7936 202.838 42.9616 201.258C42.0231 199.476 41.1141 197.678 40.2311 195.867C40.6351 195.884 41.0392 195.904 41.4432 195.919C41.3827 196.024 41.3917 196.178 41.5187 196.399C42.4447 198.008 43.4006 199.599 44.3771 201.178C45.3856 202.809 46.3537 204.601 47.6117 206.051C47.6272 206.069 47.6491 206.087 47.6701 206.104C46.9301 206.095 46.1906 206.084 45.4511 206.069ZM35.1872 195.59C36.9042 198.903 38.5887 202.231 40.2972 205.549C40.3857 205.72 40.5852 205.85 40.8207 205.934C40.2017 205.91 39.5827 205.884 38.9637 205.856C36.6232 202.402 34.3517 198.9 32.1562 195.352C33.1657 195.443 34.1762 195.52 35.1872 195.59ZM42.0977 205.339C40.5392 202.044 38.7437 198.838 36.8872 195.696C37.4697 195.73 38.0516 195.769 38.6346 195.798C39.4371 197.528 40.2407 199.257 41.0552 200.982C41.8377 202.64 42.5611 204.475 43.5656 206.027C42.9941 206.011 42.4227 205.99 41.8517 205.97C42.1122 205.874 42.2547 205.671 42.0977 205.339ZM23.6177 204.619C23.5572 204.572 23.4937 204.528 23.4302 204.492C23.5837 204.362 23.0657 203.697 22.9492 203.468C22.7037 202.987 22.4586 202.505 22.2131 202.024C21.6996 201.018 21.1822 200.014 20.6737 199.006C19.7307 197.137 18.9272 195.256 18.2617 193.272C18.2182 193.143 18.1227 193.01 17.9992 192.887C18.6087 193.117 19.2442 193.281 19.7697 193.419C19.7802 193.484 19.7986 193.555 19.8341 193.64C21.3961 197.316 22.9177 201.012 24.3947 204.723C24.1352 204.689 23.8767 204.654 23.6177 204.619ZM19.6267 204.038C18.2997 200.669 16.4047 197.273 16.0572 193.653C16.0412 193.488 15.9372 193.319 15.7902 193.167C15.9627 193.05 16.1317 192.935 16.1667 192.906C16.4742 192.655 16.6027 192.376 16.6057 192.145C16.7137 192.231 16.8272 192.312 16.9492 192.387C16.7057 192.401 16.5531 192.57 16.6516 192.993C17.2041 195.375 18.3316 197.62 19.3976 199.805C19.9766 200.991 20.5572 202.176 21.1392 203.361C21.2897 203.666 21.4222 204.009 21.5782 204.335C20.9627 204.249 20.2997 204.16 19.6267 204.038ZM18.0422 190.777C17.2492 190.155 17.5797 189.101 17.5797 188.113C17.5797 187.593 17.5746 187.078 17.5606 186.563C18.3826 188.54 19.3611 190.401 20.7766 192.016C19.7631 191.741 18.7927 191.366 18.0422 190.777ZM26.2737 204.802C24.7602 201.117 23.1726 197.466 21.4956 193.852C21.8961 193.944 22.2982 194.03 22.7017 194.11C23.8377 197.942 25.8777 201.537 27.6657 205.104C27.2167 205.058 26.7672 205.012 26.3187 204.961C26.3112 204.912 26.2972 204.859 26.2737 204.802ZM25.0761 192.431C23.6081 189.229 21.7836 186.082 19.9331 183.082C20.1811 183.129 20.4252 183.174 20.6617 183.219C21.1372 183.311 21.6137 183.396 22.0912 183.477C23.4787 186.253 24.7607 189.088 25.9102 191.982C26.0887 192.432 26.5526 192.79 27.0201 192.831C27.3306 192.858 27.8992 192.715 27.7062 192.238C26.5262 189.328 25.2007 186.511 23.7577 183.738C24.4472 183.839 25.1387 183.931 25.8307 184.016C25.8367 184.089 25.8502 184.169 25.8832 184.266C26.9017 187.253 27.8992 190.255 29.0682 193.181C29.1187 193.308 29.2227 193.42 29.3547 193.513C27.9497 193.337 26.5527 193.121 25.1607 192.878C25.1837 192.767 25.1641 192.623 25.0761 192.431ZM77.5111 192.684C75.7196 189.628 73.4666 186.811 71.4576 183.911C71.4276 183.868 71.3937 183.828 71.3567 183.79C71.9242 183.709 72.4902 183.62 73.0557 183.528C72.9777 183.643 72.9886 183.818 73.1491 184.065C74.8221 186.641 76.5897 189.309 78.6372 191.615C78.2707 191.633 78.0147 191.808 78.1757 192.213C78.2162 192.315 78.2542 192.42 78.2932 192.524C78.0327 192.579 77.7721 192.633 77.5111 192.684ZM80.9547 162.3C80.9547 163.128 80.9547 163.956 80.9547 164.784C80.5652 164.14 80.1717 163.499 79.7817 162.857C80.1947 162.698 80.5902 162.515 80.9547 162.3ZM78.1376 163.362C78.8991 164.77 79.6472 166.193 80.4837 167.552C80.5757 167.701 80.7577 167.807 80.9752 167.872C80.9782 168.234 80.9762 168.595 80.9547 168.953C80.9537 168.97 80.9536 168.982 80.9531 168.994C80.3026 168.253 79.6296 167.527 79.0111 166.763C78.1981 165.76 77.4206 164.738 76.6866 163.681C77.1586 163.587 77.6481 163.484 78.1376 163.362ZM75.1141 163.989C76.3891 166.014 77.7676 168.123 79.4116 169.852C79.0646 169.984 78.7037 170.103 78.3307 170.208C76.6437 168.262 74.9237 166.372 73.3607 164.321C73.9477 164.217 74.5316 164.105 75.1141 163.989ZM71.7407 164.587C73.1902 166.681 74.7301 168.788 76.4721 170.645C75.9266 170.753 75.3911 170.85 74.8781 170.94C73.5051 168.822 71.9137 166.813 70.3812 164.794C70.8362 164.728 71.2882 164.658 71.7407 164.587ZM68.7961 165.01C70.1816 167.101 71.5292 169.252 73.0547 171.233C72.7712 171.277 72.4881 171.326 72.2036 171.367C71.5791 170.197 70.7257 169.075 70.0077 168.019C69.3377 167.033 68.6381 166.068 67.9201 165.117C68.2126 165.082 68.5046 165.048 68.7961 165.01ZM66.1982 165.315C66.8817 166.298 67.5607 167.283 68.2152 168.285C68.9022 169.335 69.5092 170.559 70.2422 171.624C69.8232 171.675 69.4052 171.733 68.9857 171.779C68.1222 170.717 67.1597 169.733 66.3907 168.587C65.6822 167.531 65.0626 166.46 64.2456 165.505C64.8966 165.445 65.5477 165.384 66.1982 165.315ZM62.6787 165.637C63.7132 166.713 64.2911 168.171 65.1231 169.398C65.7096 170.264 66.3582 171.159 67.0702 171.966C66.7152 171.999 66.3602 172.035 66.0052 172.065C64.5052 169.927 62.8597 167.867 61.3377 165.744C61.7842 165.711 62.2312 165.673 62.6787 165.637ZM59.7502 165.852C61.0092 168.041 62.4142 170.264 64.0507 172.219C63.8542 172.233 63.6582 172.251 63.4622 172.265C63.2722 172.278 63.0822 172.287 62.8922 172.301C61.5267 170.045 59.8117 167.828 57.9972 165.96C58.5802 165.926 59.1642 165.89 59.7502 165.852ZM56.4262 166.042C57.1677 167.211 58.1161 168.271 58.9381 169.383C59.6686 170.371 60.3352 171.401 61.0212 172.418C60.3762 172.456 59.7317 172.493 59.0862 172.525C58.2042 171.324 57.1972 170.195 56.2647 169.046C55.4782 168.077 54.7007 167.1 53.9232 166.124C54.7572 166.109 55.5917 166.081 56.4262 166.042ZM52.2481 166.147C53.8166 168.308 55.3466 170.592 57.0931 172.616C56.5646 172.637 56.0362 172.656 55.5077 172.674C54.6212 171.456 53.5806 170.322 52.6596 169.143C51.8836 168.149 51.1226 167.144 50.3691 166.134C50.9951 166.142 51.6216 166.149 52.2481 166.147ZM48.6336 166.1C49.5136 167.371 50.4092 168.63 51.3297 169.872C52.0307 170.817 52.7147 171.817 53.4767 172.732C53.0262 172.742 52.5751 172.752 52.1241 172.759C50.6456 170.415 48.9017 168.092 46.9972 166.055C47.5432 166.073 48.0881 166.087 48.6336 166.1ZM45.1262 165.986C45.9687 167.195 46.9227 168.336 47.7927 169.524C48.5772 170.595 49.3157 171.702 50.0872 172.783C49.5137 172.787 48.9401 172.789 48.3666 172.788C46.6416 170.353 44.6622 167.967 42.5042 165.87C43.3782 165.91 44.2527 165.95 45.1262 165.986ZM40.5222 165.777C41.4312 166.9 42.4322 167.956 43.3542 169.068C44.3607 170.282 45.3127 171.533 46.2787 172.777C45.8967 172.773 45.5151 172.768 45.1336 172.762C44.1791 171.494 43.0267 170.346 42.0052 169.132C41.0517 167.999 40.1207 166.847 39.1667 165.715C39.6182 165.735 40.0702 165.755 40.5222 165.777ZM37.3196 165.628C38.2971 167.049 39.3847 168.4 40.4817 169.729C41.3022 170.724 42.1171 171.776 43.0191 172.715C42.5681 172.703 42.1167 172.692 41.6657 172.678C39.9432 170.259 38.0161 167.963 36.2481 165.572C36.6051 165.59 36.9616 165.612 37.3196 165.628ZM34.5352 165.481C36.1202 167.888 37.7477 170.367 39.5977 172.598C39.0147 172.574 38.4322 172.548 37.8502 172.518C37.1512 171.241 36.2357 170.042 35.3827 168.878C34.4867 167.656 33.5546 166.424 32.4826 165.344C33.1661 165.392 33.8502 165.44 34.5352 165.481ZM30.7072 165.213C31.3717 166.557 32.5857 167.751 33.4647 168.954C34.2777 170.066 34.9866 171.276 35.7846 172.404C35.5336 172.389 35.2822 172.378 35.0312 172.363C34.2452 172.312 33.4592 172.255 32.6732 172.195C32.7017 172.102 32.6986 171.987 32.6441 171.837C32.1416 170.451 31.1931 169.16 30.4511 167.889C29.8991 166.943 29.3692 165.968 28.7712 165.046C29.4157 165.103 30.0617 165.161 30.7072 165.213ZM26.7212 164.849C27.3227 166.032 28.0271 167.168 28.6896 168.316C29.3916 169.533 30.0032 170.997 30.9417 172.048C30.1547 171.979 29.3687 171.904 28.5837 171.819C27.6477 169.451 26.6516 167.107 25.6986 164.745C26.0391 164.782 26.3802 164.814 26.7212 164.849ZM24.0132 164.547C24.8597 166.912 25.7112 169.279 26.6692 171.602C26.2887 171.554 25.9092 171.496 25.5292 171.444C25.5482 171.375 25.5472 171.295 25.5057 171.197C24.5062 168.855 23.3992 166.578 22.2082 164.334C22.8102 164.411 23.4112 164.476 24.0132 164.547ZM20.5197 164.101C21.6657 166.346 22.7371 168.629 23.7091 170.954C23.7466 171.043 23.8027 171.126 23.8622 171.205C23.7897 171.194 23.7172 171.186 23.6447 171.174C23.3317 171.124 23.0146 171.074 22.6961 171.022C21.4746 168.541 20.0272 166.097 18.5272 163.737C19.1867 163.881 19.8522 163.999 20.5197 164.101ZM15.3792 162.779C15.7597 162.953 16.1572 163.093 16.5337 163.211C17.8972 165.722 19.2752 168.254 20.7712 170.68C20.4412 170.615 20.1126 170.543 19.7856 170.466C18.0286 168.615 17.0046 166.167 16.0216 163.85C15.9301 163.634 15.6657 163.431 15.3792 163.3C15.3792 163.126 15.3792 162.952 15.3792 162.779ZM15.3792 166.406C15.3792 166.22 15.3792 166.034 15.3792 165.848C15.9947 167.25 16.7001 168.59 17.6076 169.818C17.3036 169.704 17.0041 169.581 16.7116 169.445C16.2271 169.219 15.5167 168.871 15.3897 168.394C15.2332 167.807 15.3792 167.005 15.3792 166.406ZM15.3897 179.307C15.2332 178.719 15.3792 177.917 15.3792 177.318C15.3792 175.178 15.3792 173.038 15.3792 170.898C15.3792 170.879 15.3736 170.866 15.3716 170.848C16.9806 171.661 18.9842 171.985 20.6617 172.307C24.3847 173.021 28.1732 173.405 31.9497 173.691C40.7817 174.359 49.6897 174.457 58.5432 174.009C58.7742 174.112 59.0276 174.165 59.2691 174.125C59.4021 174.103 59.5642 174.04 59.6782 173.943C60.4712 173.899 61.2646 173.858 62.0566 173.805C62.0731 173.804 62.0902 173.802 62.1067 173.801C62.6257 174.063 63.5846 174.12 63.6151 173.688C65.2746 173.563 66.9326 173.414 68.5866 173.228C68.7741 173.282 68.9696 173.306 69.1596 173.269C69.2711 173.247 69.4051 173.193 69.5121 173.116C70.1626 173.037 70.8127 172.954 71.4612 172.861C72.0002 173.071 72.7472 173.146 72.7412 172.664C73.0967 172.608 73.4536 172.56 73.8081 172.499C73.9976 172.467 74.1901 172.433 74.3821 172.4C74.8391 172.493 75.3706 172.453 75.4956 172.201C76.1856 172.071 76.8787 171.924 77.5627 171.749C77.5647 171.751 77.5667 171.753 77.5687 171.755C77.9982 172.164 79.7637 171.962 79.2172 171.247C79.6052 171.106 79.9832 170.945 80.3527 170.77C80.3802 170.795 80.4057 170.823 80.4337 170.848C80.5957 170.991 80.9671 171.068 81.3281 171.063C81.1111 171.263 80.9556 171.5 80.9556 171.73C80.9556 173.574 80.9556 175.419 80.9556 177.264C80.9556 178.125 81.0076 179.005 80.9556 179.865C80.9501 179.955 80.9567 179.972 80.9602 179.975C80.9567 179.975 80.9456 179.981 80.9166 180.024C80.9886 179.916 80.8657 180.06 80.6282 180.199C78.9672 181.174 76.4921 181.566 74.5151 181.915C70.8641 182.56 67.1582 182.913 63.4627 183.176C54.0157 183.85 44.4832 183.877 35.0317 183.274C31.2247 183.032 27.4142 182.688 23.6457 182.086C21.3422 181.718 18.8472 181.352 16.7122 180.357C16.2272 180.132 15.5167 179.783 15.3897 179.307ZM18.1587 182.716C19.8587 185.998 21.5442 189.36 23.4442 192.512C23.4597 192.537 23.4807 192.561 23.5002 192.586C23.1472 192.522 22.7831 192.456 22.4081 192.385C22.4711 192.192 22.4016 191.925 22.1061 191.609C20.2716 189.646 19.2277 187 18.2212 184.503C18.1142 184.238 17.7727 183.99 17.4347 183.861C17.4427 183.419 17.5062 182.984 17.6847 182.598C17.8427 182.639 18.0007 182.679 18.1587 182.716ZM15.3792 201.24C15.3792 200.26 15.3792 199.281 15.3792 198.301C15.3792 198.137 15.3792 197.973 15.3792 197.809C15.4612 198.028 15.5457 198.247 15.6312 198.464C16.2917 200.149 16.9362 201.847 17.6317 203.52C16.9887 203.29 16.3906 202.998 15.9031 202.594C15.4226 202.196 15.3792 201.812 15.3792 201.24ZM29.5971 205.282C27.7751 201.749 25.6292 198.202 24.3807 194.416C25.9337 194.672 27.4981 194.866 29.0541 195.042C29.5251 195.095 29.9972 195.136 30.4687 195.184C32.5932 198.752 34.7787 202.28 37.0367 205.766C36.2012 205.722 35.3671 205.674 34.5331 205.623C32.1476 202.299 29.8497 198.909 27.6312 195.472C27.2692 194.912 25.5547 194.68 26.1172 195.61C28.1552 198.982 30.3211 202.267 32.5711 205.499C31.8351 205.45 31.0992 205.402 30.3647 205.348C30.1087 205.329 29.8531 205.303 29.5971 205.282ZM49.3922 206.119C49.3922 206.046 49.3702 205.959 49.3142 205.855C48.3762 204.104 47.0567 202.506 45.9712 200.84C45.0047 199.357 44.0672 197.855 43.1502 196.34C43.0612 196.193 42.8912 196.063 42.6932 195.962C43.4762 195.988 44.2596 196.01 45.0436 196.029C47.4211 199.39 49.7071 202.86 52.2626 206.079C52.2721 206.091 52.2862 206.099 52.2957 206.111C51.3292 206.119 50.3612 206.123 49.3922 206.119ZM65.4777 205.525C65.4672 205.503 65.4621 205.485 65.4486 205.462C64.4496 203.739 63.1312 202.16 62.0222 200.501C61.0187 199 60.0596 197.472 59.1306 195.925C59.8616 195.895 60.5922 195.855 61.3227 195.816C63.1647 198.73 64.9352 201.787 67.0732 204.481C67.4462 204.951 69.3366 204.857 68.9106 204.148C67.1556 201.232 64.9772 198.525 63.0232 195.726C63.6712 195.685 64.3177 195.632 64.9647 195.584C65.7772 197.202 66.5817 198.825 67.3922 200.444C68.1462 201.951 68.8116 203.624 69.6791 205.105C69.4976 205.126 69.3162 205.148 69.1352 205.169C67.9187 205.304 66.6987 205.42 65.4777 205.525ZM80.1027 203.05C80.0027 203.093 79.8991 203.13 79.7971 203.169C79.2221 202.801 78.7411 201.791 78.3576 201.269C77.7576 200.45 77.1637 199.627 76.5782 198.798C75.6247 197.447 74.7117 196.07 73.8192 194.679C74.4442 194.592 75.0686 194.496 75.6906 194.391C76.3406 195.661 77.0172 196.917 77.7477 198.143C78.6197 199.606 79.5041 201.332 80.7186 202.535C80.7406 202.557 80.7687 202.577 80.7982 202.598C80.6802 202.757 80.4747 202.892 80.1027 203.05ZM80.9547 198.701C80.9547 199.106 80.9547 199.511 80.9547 199.916C80.5072 199.294 80.0522 198.676 79.6472 198.042C78.8237 196.753 78.0526 195.433 77.3146 194.094C77.7926 193.999 78.2687 193.895 78.7432 193.785C79.1822 195.067 79.6231 196.386 80.2966 197.491C80.3901 197.644 80.6537 197.787 80.9542 197.88C80.9547 198.153 80.9547 198.427 80.9547 198.701Z" fill="#1F1E21"/>
<path d="M84.0582 206.274C84.0582 205.879 84.1157 205.436 84.0582 205.044C83.9627 204.388 83.4106 204.208 83.0131 203.729C82.4866 203.094 80.8806 204.249 81.3876 204.86C81.6726 205.204 82.1801 205.433 82.3101 205.845C82.3966 206.12 82.3101 206.585 82.3101 206.869C82.3101 208.092 82.3101 209.316 82.3101 210.539C82.3101 211.602 82.3101 212.666 82.3101 213.729C82.3101 213.819 82.2982 214.4 82.3082 214.152C82.3012 214.322 82.3816 214.192 82.2006 214.322C82.2056 214.318 81.8072 214.565 81.6052 214.662C81.1937 214.86 80.7661 215.016 80.3326 215.156C79.1016 215.554 77.8331 215.838 76.5646 216.085C72.9061 216.798 69.1772 217.175 65.4647 217.466C55.5932 218.24 45.6232 218.293 35.7407 217.704C31.7122 217.464 27.6811 217.116 23.6906 216.503C21.1986 216.119 18.5127 215.737 16.1927 214.693C15.7022 214.472 14.8962 214.095 14.7447 213.619C14.5617 213.043 14.7206 212.214 14.7206 211.625C14.7206 209.384 14.7206 207.143 14.7206 204.901C14.7206 204.094 12.9727 204.959 12.9727 205.733C12.9727 207.818 12.9727 209.903 12.9727 211.988C12.9727 213.399 12.6387 214.703 13.9442 215.583C15.8287 216.854 18.4842 217.243 20.6642 217.643C24.7357 218.39 28.8742 218.781 33.0002 219.066C43.3877 219.781 53.8737 219.779 64.2577 218.998C68.2182 218.7 72.1841 218.288 76.0891 217.546C78.3036 217.125 80.8816 216.68 82.7776 215.367C84.4401 214.217 84.0591 212.562 84.0591 210.759C84.0581 209.264 84.0582 207.769 84.0582 206.274Z" fill="#1F1E21"/>
<path d="M59.9991 113.208C59.7161 112.841 59.2117 112.547 58.7317 112.613C58.3337 112.667 58.1071 113.017 58.3741 113.374C58.8446 114.002 59.2896 114.648 59.6921 115.323C60.1116 116.026 60.4126 116.809 60.9101 117.458C61.1876 117.821 62.7426 118.354 62.4896 117.419C62.0841 115.917 60.9376 114.425 59.9991 113.208Z" fill="#58A587"/>
<path d="M61.0827 111.192C60.8127 110.501 59.0537 109.894 59.4602 111.001C60.1792 112.96 61.1007 114.916 62.3892 116.569C62.6372 116.887 63.1176 117.208 63.5411 117.143C63.8846 117.09 64.1152 116.8 63.9052 116.448C62.8687 114.714 61.8232 113.086 61.0827 111.192Z" fill="#58A587"/>
<path d="M61.9477 109.691C61.7307 109.355 61.2711 108.834 60.8066 108.929C60.3846 109.016 60.2997 109.409 60.5167 109.768C62.0187 112.249 63.7926 114.693 66.0066 116.593C66.3106 116.854 66.8946 117.227 67.3151 117.005C67.7096 116.797 67.6511 116.414 67.3586 116.119C65.3676 114.111 63.4882 112.076 61.9477 109.691Z" fill="#58A587"/>
<path d="M66.5611 111.721C65.3356 110.374 64.2072 108.948 63.1587 107.46C62.6742 106.772 61.0171 106.645 61.7501 107.723C63.8711 110.84 66.3741 113.885 69.3476 116.229C69.9221 116.682 71.3916 116.501 70.5346 115.634C69.2236 114.31 67.8191 113.104 66.5611 111.721Z" fill="#58A587"/>
<path d="M67.0692 103.424C66.5262 102.758 64.9112 102.863 65.7122 103.884C68.3672 107.268 71.0547 110.626 73.7397 113.986C73.8057 114.069 73.8982 114.138 74.0062 114.194C73.7062 114.086 73.3977 114.072 73.1957 114.228C72.9177 114.024 72.6421 113.675 72.4576 113.501C72.0481 113.115 71.6466 112.72 71.2521 112.319C70.5076 111.56 69.7896 110.775 69.1011 109.964C67.7406 108.363 66.4886 106.674 65.3456 104.912C65.1286 104.577 64.6456 104.071 64.1881 104.175C63.7616 104.272 63.7002 104.663 63.9167 105.02C65.4657 107.577 67.2446 109.971 69.2701 112.171C70.2816 113.271 72.9252 116.822 74.7492 115.36C75.1382 115.048 74.7182 114.531 74.1887 114.271C74.8807 114.507 75.9022 114.296 75.3202 113.576C72.5792 110.185 69.8232 106.805 67.0692 103.424Z" fill="#58A587"/>
<path d="M70.1086 101.699C69.4041 100.951 68.1396 101.393 69.0321 102.356C71.7681 105.307 74.3047 108.455 76.6927 111.692C77.1477 112.309 78.9881 112.255 78.2821 111.317C75.7471 107.945 73.0021 104.767 70.1086 101.699Z" fill="#58A587"/>
<path d="M78.8537 106.993C77.3592 105.002 75.7322 103.113 74.0592 101.271C73.5352 100.694 72.0477 100.858 72.8197 101.746C74.3322 103.487 75.7597 105.287 77.1302 107.14C77.8087 108.058 78.4692 108.989 79.1047 109.937C79.7147 110.847 80.2402 111.84 80.9677 112.661C81.2617 112.993 82.9167 113.389 82.5402 112.501C81.7077 110.541 80.1297 108.692 78.8537 106.993Z" fill="#58A587"/>
<path d="M81.1316 106.231C80.0921 104.692 79.0481 103.155 78.0091 101.615C77.6326 101.056 75.9106 100.88 76.4986 101.786C77.4601 103.267 78.4231 104.749 79.3876 106.229C80.3276 107.672 81.1971 109.237 82.2726 110.583C82.6951 111.111 84.4792 111.502 83.8962 110.399C83.1267 108.943 82.0531 107.595 81.1316 106.231Z" fill="#58A587"/>
<path d="M83.1356 105.547C82.2201 104.336 81.2502 103.165 80.2462 102.026C79.9832 101.727 79.4246 101.302 78.9901 101.474C78.5836 101.635 78.5821 102.03 78.8506 102.35C79.7741 103.452 80.6611 104.579 81.5131 105.737C82.3421 106.862 83.0612 108.092 83.9462 109.17C84.3512 109.664 85.9476 109.922 85.4421 108.901C84.8506 107.704 83.9386 106.609 83.1356 105.547Z" fill="#58A587"/>
<path d="M83.6957 101.033C83.2432 100.306 81.6212 100.18 82.2872 101.296C83.4212 103.196 84.4862 105.147 85.6787 107.011C86.0822 107.642 87.8936 107.822 87.2971 106.793C86.1636 104.835 84.8912 102.953 83.6957 101.033Z" fill="#58A587"/>
<path d="M86.5521 102.529C86.2966 102.19 85.7267 101.861 85.2907 101.991C84.8322 102.127 84.9481 102.566 85.1606 102.868C85.8801 103.894 86.5591 104.963 87.3456 105.939C87.6386 106.303 88.1161 106.61 88.6066 106.548C89.0221 106.496 89.2152 106.157 88.9722 105.792C88.2242 104.666 87.3661 103.606 86.5521 102.529Z" fill="#58A587"/>
<path d="M89.9941 102.966C89.5546 102.471 89.1152 101.975 88.6752 101.48C88.3817 101.15 87.8702 100.829 87.4077 100.956C86.9657 101.077 87.0492 101.556 87.2872 101.835C87.7352 102.36 88.1831 102.886 88.6321 103.41C88.9136 103.74 89.5027 103.999 89.9312 103.851C90.3767 103.697 90.2336 103.236 89.9941 102.966Z" fill="#58A587"/>
<path d="M60.1361 97.594C59.7116 96.894 58.1567 96.5085 58.7087 97.718C59.5662 99.597 60.7142 101.514 61.9547 103.164C62.3257 103.657 64.0302 103.976 63.4652 102.993C62.4172 101.169 61.2281 99.395 60.1361 97.594Z" fill="#58A587"/>
<path d="M61.4291 87.1636C61.3356 86.7096 60.9502 86.2861 60.4977 86.1566C60.1882 86.0681 59.6262 86.0936 59.7152 86.5746C60.0272 88.2611 60.4357 89.9641 60.9602 91.6326C60.3882 91.3386 59.6646 91.3496 59.9211 92.1091C60.9111 95.0376 62.0972 97.9621 63.6742 100.627C63.9887 101.159 65.8176 101.422 65.3876 100.581C65.0186 99.8591 64.6506 99.1396 64.2896 98.4176C64.9091 98.6571 65.7647 98.6546 65.4662 98.0361C63.7502 94.4811 62.2331 91.0581 61.4291 87.1636Z" fill="#58A587"/>
<path d="M64.7512 91.069C63.9237 89.0675 63.1756 87.035 62.4836 84.9825C62.2441 84.271 60.5066 83.6485 60.8636 84.774C61.5041 86.795 62.2006 88.798 62.9621 90.7765C63.6911 92.67 64.3791 94.719 65.4376 96.4565C65.7021 96.891 67.4756 97.5805 67.1461 96.5965C66.5136 94.712 65.5122 92.91 64.7512 91.069Z" fill="#58A587"/>
<path d="M64.3961 83.589C64.1676 82.987 62.3846 82.522 62.6931 83.3925C63.2261 84.8965 63.7611 86.4 64.2966 87.9025C64.8361 89.415 65.2751 91.043 66.0031 92.474C66.2686 92.9955 67.9836 93.4915 67.7166 92.521C66.8836 89.4905 65.5111 86.528 64.3961 83.589Z" fill="#58A587"/>
<path d="M66.5602 81.2861C66.3802 80.8766 65.9467 80.433 65.4702 80.4065C65.0522 80.383 64.7916 80.6336 64.9421 81.0606C65.7501 83.3511 66.4602 85.8471 67.6072 87.9866C67.8572 88.4526 69.5792 89.1635 69.3122 88.164C68.6862 85.823 67.5342 83.5031 66.5602 81.2861Z" fill="#58A587"/>
<path d="M69.0346 80.3175C68.9006 79.9225 68.3697 79.6075 67.9817 79.5535C67.6907 79.513 67.2162 79.6355 67.3422 80.0475C67.6877 81.1755 67.9972 82.326 68.4052 83.433C68.5687 83.8765 69.0237 84.205 69.4882 84.275C69.8357 84.327 70.3241 84.1895 70.1921 83.735C69.8571 82.581 69.4206 81.454 69.0346 80.3175Z" fill="#58A587"/>
<path d="M70.6782 79.306C70.4412 78.8865 69.9496 78.6335 69.4821 78.6335C68.9966 78.6335 69.1071 79.226 69.2571 79.492C69.4936 79.9115 69.9856 80.164 70.4526 80.164C70.9386 80.164 70.8282 79.572 70.6782 79.306Z" fill="#58A587"/>
<path d="M14.5821 99.4465C16.3861 100.281 18.1907 101.114 19.9932 101.952C20.9952 102.417 21.2307 101.224 20.3397 100.806C18.4962 99.9415 16.6541 99.074 14.8116 98.2065C13.6216 97.6455 13.6536 99.017 14.5821 99.4465Z" fill="#58A587"/>
<path d="M13.7527 101.768C16.5882 102.572 19.4277 103.361 22.2687 104.144C22.6227 104.241 23.1511 104.153 23.1791 103.716C23.2086 103.267 22.5292 102.964 22.1967 102.884C19.2467 102.176 16.3346 101.259 13.4341 100.371C13.0361 100.249 12.6762 100.463 12.7072 100.88C12.7417 101.343 13.3802 101.662 13.7527 101.768Z" fill="#58A587"/>
<path d="M24.4426 106.94C25.7326 107.167 25.3836 105.804 24.3571 105.682C20.6716 105.243 17.0176 104.358 13.4521 103.347C13.0516 103.233 12.6966 103.456 12.7361 103.871C12.7806 104.336 13.4256 104.635 13.8006 104.736C17.3186 105.681 20.8606 106.31 24.4426 106.94Z" fill="#58A587"/>
<path d="M14.4206 107.886C18.9146 109.181 23.4701 110.23 28.0716 111.068C28.4336 111.134 28.9496 110.976 28.9301 110.544C28.9101 110.081 28.2016 109.887 27.8626 109.824C23.3576 108.996 18.9071 107.922 14.5136 106.628C13.2566 106.258 13.4306 107.601 14.4206 107.886Z" fill="#58A587"/>
<path d="M15.6757 109.524C14.4547 109.035 14.6352 110.416 15.5827 110.782C18.1227 111.762 20.7141 112.607 23.3536 113.277C25.8441 113.91 28.4652 114.159 30.8962 114.985C31.2362 115.101 31.9347 115.271 32.1787 114.875C32.4212 114.482 32.0121 114.149 31.6831 113.999C29.4766 112.993 26.7976 112.888 24.4526 112.325C21.4616 111.606 18.5312 110.667 15.6757 109.524Z" fill="#58A587"/>
<path d="M23.7812 116.471C25.4467 116.962 27.1231 117.418 28.8081 117.837C30.3901 118.231 32.5327 118.35 33.9182 119.242C34.2947 119.484 34.9036 119.61 35.3131 119.368C35.6491 119.17 35.7791 118.78 35.3886 118.531C33.9756 117.632 32.2817 117.435 30.6787 117.056C28.9332 116.644 27.1962 116.194 25.4702 115.705C21.6977 114.637 17.9792 113.394 14.3232 111.977C13.2007 111.541 12.7587 112.645 13.8892 113.083C17.1397 114.343 20.4372 115.487 23.7812 116.471Z" fill="#58A587"/>
<path d="M35.5736 121.278C36.3601 121.606 37.8067 120.782 36.6092 120.288C29.4977 117.35 21.5901 118.198 14.3216 115.898C13.0706 115.502 13.2431 116.859 14.2286 117.156C21.2026 119.253 28.7956 118.444 35.5736 121.278Z" fill="#58A587"/>
<path d="M37.3007 123.626C37.6492 123.707 38.3676 123.78 38.5606 123.363C38.7516 122.949 38.3116 122.654 37.9636 122.552C34.1286 121.43 30.1326 120.958 26.1646 120.616C22.4391 120.295 18.6141 120.023 15.2116 118.326C14.1446 117.794 13.5341 118.814 14.6256 119.361C17.9566 121.027 21.6086 121.468 25.2776 121.752C29.3751 122.071 33.2977 122.694 37.3007 123.626Z" fill="#58A587"/>
<path d="M38.6117 124.24C32.3597 121.692 25.3156 123.69 18.8926 121.95C17.6241 121.606 17.8772 122.95 18.8682 123.211C25.0647 124.847 31.6012 123.181 37.7212 125.224C38.4362 125.463 39.7202 124.692 38.6117 124.24Z" fill="#58A587"/>
<path d="M39.9831 128.465C40.2421 128.122 40.0487 127.768 39.6482 127.643C33.2567 125.648 26.2637 126.506 20.0402 123.876C19.7012 123.733 19.1646 123.764 19.0846 124.192C19.0006 124.642 19.6431 125.005 19.9611 125.135C25.9181 127.573 32.5172 126.824 38.6237 128.645C39.0057 128.759 39.6986 128.84 39.9831 128.465Z" fill="#58A587"/>
<path d="M41.8556 129.661C35.2451 128.609 27.4857 130.486 21.6352 126.449C20.8017 125.874 19.5866 126.505 20.6711 127.263C26.8226 131.559 34.4111 129.683 41.3511 130.817C42.3556 130.981 43.1586 129.868 41.8556 129.661Z" fill="#58A587"/>
<path d="M42.6111 133.859C40.7746 133.64 38.9431 133.329 37.1226 132.981C39.0181 133.09 40.9046 133.067 42.8176 133.07C43.2196 133.07 43.7592 132.902 43.5987 132.402C43.4452 131.924 42.6716 131.819 42.2716 131.86C37.5581 132.343 32.4456 131.413 27.9351 130.101C26.6726 129.734 26.9111 131.083 27.8971 131.361C30.1091 131.985 32.3581 132.455 34.6376 132.748C34.5471 132.845 34.4991 132.983 34.5236 133.158C34.5866 133.61 35.2462 133.907 35.6247 133.976C37.9847 134.409 40.3561 134.74 42.7246 135.115C44.0181 135.32 43.6356 133.981 42.6111 133.859Z" fill="#58A587"/>
<path d="M93.3157 71.619C93.2782 71.4145 93.1016 71.238 92.8726 71.1065C93.0726 70.703 92.7316 70.242 91.9401 70.4135C82.4016 72.4795 72.4311 74.6015 64.2531 80.228C63.6526 80.641 63.0637 81.074 62.4867 81.5245C62.2797 81.551 62.1056 81.6345 62.0201 81.793C61.9891 81.85 61.9636 81.9085 61.9331 81.966C56.1996 86.628 51.8656 93.127 51.4951 100.69C51.2111 106.483 53.0257 111.956 55.5922 117.064C51.6332 124.091 49.3216 131.946 48.1746 139.962C47.8456 138.831 47.4196 137.726 46.9336 136.64C46.9481 136.566 46.9521 136.492 46.9316 136.416C45.8866 132.582 46.9491 128.474 47.4341 124.63C47.9541 120.515 47.6246 116.515 46.2771 112.58C44.9336 108.658 42.8847 104.423 39.8812 101.499C37.0472 98.7395 33.2301 97.5355 29.5281 96.431C24.2751 94.8635 19.0071 93.3215 13.7156 91.891C12.9901 91.695 11.7601 92.4135 12.5051 92.853C12.4111 92.9855 12.3541 93.1265 12.3571 93.2665C12.4371 97.3175 12.5106 101.369 12.6006 105.42C12.6816 109.048 12.8426 112.721 13.8731 116.226C14.9511 119.893 17.1181 123.102 19.6421 125.932C21.8666 128.425 24.3656 130.69 27.1826 132.498C30.4136 134.571 33.8571 135.697 37.6716 135.935C40.1041 136.412 42.5776 136.737 45.0461 136.962C45.0911 137.07 45.1346 137.178 45.1776 137.286C45.1821 137.298 45.1861 137.312 45.1916 137.323C47.3086 142.689 46.7906 148.258 46.8001 154.001C46.8036 156.05 45.8471 159.057 46.1486 161.086C46.2391 161.694 49.2727 161.472 49.2927 160.616C49.3772 156.943 49.1651 153.271 49.2981 149.594C49.4236 146.128 49.7021 142.666 50.2141 139.234C51.1756 132.793 52.9212 126.441 55.7172 120.546C56.1032 119.733 56.5191 118.934 56.9481 118.144C61.3616 117.906 65.8011 116.997 70.0891 116C74.3966 114.999 78.6832 113.651 82.5057 111.384C86.1542 109.219 89.1796 106.211 91.2101 102.471C91.5911 101.769 91.9271 101.047 92.2416 100.317C92.3601 100.306 92.4787 100.294 92.5967 100.283C93.7077 100.177 93.7091 99.151 92.7391 99.0945C93.8796 96.063 94.5092 92.846 94.7377 89.613C95.1612 83.639 94.3977 77.49 93.3157 71.619ZM26.1561 97.191C30.0431 98.393 34.2981 99.3765 37.5151 102.014C40.7206 104.642 42.7886 108.724 44.2521 112.528C45.7646 116.458 46.3307 120.493 45.8682 124.679C45.6357 126.783 45.2496 128.866 45.0346 130.972C44.8721 132.56 44.9236 134.075 45.0316 135.622C44.9301 135.613 44.8286 135.603 44.7271 135.594C44.9466 135.471 45.0362 135.271 44.8422 134.994C40.6942 129.079 37.0276 122.903 33.5111 116.599C31.8296 113.584 29.7501 111.083 27.4676 108.513C25.3381 106.115 23.5436 103.469 21.6791 100.867C19.8806 98.3575 17.9846 95.9465 15.6796 93.9065C19.1646 95.024 22.6596 96.11 26.1561 97.191ZM38.2296 134.807C38.1466 134.786 38.0566 134.771 37.9561 134.764C37.8051 134.74 37.6531 134.72 37.5021 134.694C37.3661 134.671 37.2392 134.677 37.1222 134.699C31.1997 134.093 25.9026 129.857 21.9946 125.68C19.4111 122.919 17.1391 119.799 15.9251 116.184C14.7876 112.796 14.5766 109.189 14.4701 105.643C14.3556 101.846 14.2766 98.048 14.1876 94.2505C18.5031 98.298 21.3056 103.495 25.1026 107.994C27.3586 110.667 29.6701 113.101 31.4051 116.171C33.1161 119.198 34.7586 122.257 36.5476 125.239C38.6126 128.682 40.7956 132.05 43.0671 135.36C43.0876 135.39 43.1131 135.417 43.1406 135.444C41.4981 135.276 39.8616 135.066 38.2296 134.807ZM89.5561 72.148C81.0581 77.362 74.1251 85.0325 68.3921 93.747C69.0746 87.441 70.3196 80.7115 75.3176 76.439C75.4751 76.304 75.5246 76.1655 75.5041 76.0325C75.9791 75.855 76.4551 75.6825 76.9326 75.5185C81.0561 74.101 85.3006 73.0865 89.5561 72.148ZM71.7376 77.62C67.6376 82.6945 66.8211 89.484 66.3006 95.929C66.2831 96.1445 66.4156 96.363 66.6131 96.548C65.0506 99.09 63.5801 101.703 62.1971 104.357C62.1841 104.382 62.1721 104.407 62.1591 104.432C62.1246 104.447 62.0896 104.461 62.0551 104.475C61.7211 104.614 61.6917 104.855 61.8227 105.095C61.5147 105.694 61.2076 106.295 60.9066 106.899C59.8231 98.686 59.5276 89.906 63.8071 82.539C63.8341 82.493 63.8516 82.447 63.8626 82.4025C66.2716 80.508 68.9421 78.929 71.7376 77.62ZM56.6456 90.5025C57.6891 88.736 58.9221 87.131 60.2941 85.6655C57.5796 93.089 57.7991 101.418 59.5266 109.093C59.5491 109.193 59.6096 109.295 59.6901 109.394C58.6416 111.586 57.6306 113.801 56.6566 116.038C54.9111 111.796 53.5291 107.286 53.4376 102.681C53.3526 98.3685 54.4536 94.2135 56.6456 90.5025ZM82.6681 109.785C79.3221 112.071 75.4241 113.442 71.5181 114.419C67.2361 115.49 62.7641 116.43 58.3306 116.749C59.9906 113 61.7396 109.282 63.6171 105.654C65.6991 104.616 67.8336 103.668 70.0631 102.994C72.5161 102.252 75.0631 101.968 77.6041 101.719C81.8181 101.307 86.0331 100.907 90.2486 100.507C88.6001 104.242 86.0561 107.471 82.6681 109.785ZM90.7706 99.2595C86.0201 99.7065 81.2681 100.142 76.5191 100.601C73.9846 100.846 71.4671 101.176 69.0146 101.879C67.5961 102.285 66.2131 102.795 64.8426 103.338C69.5166 94.6815 75.0062 86.6415 81.9542 80.125C84.8512 77.4085 87.9706 75.0145 91.2856 72.9915C91.8226 72.664 91.2732 72.106 90.6882 71.9005C90.9382 71.846 91.1886 71.791 91.4391 71.7365C92.5831 80.9085 94.1516 90.379 90.7706 99.2595Z" fill="#1F1E21"/>
<path d="M16.5392 48.0065C16.2767 47.5615 14.9382 47.661 15.3027 48.2795C17.1777 51.46 18.8587 54.7485 20.3247 58.1375C21.6757 61.262 23.1041 64.8965 21.7026 68.2575C20.5696 70.9745 17.5692 72.3215 14.8917 70.8585C11.8057 69.1715 12.0646 65.217 12.6296 62.2525C13.3931 58.2455 14.8481 54.406 16.2871 50.603C16.4716 50.1155 15.3032 49.409 15.0742 50.005C13.4687 54.183 11.8332 58.404 11.1197 62.8455C10.6087 66.03 10.8982 69.6625 13.9937 71.412C16.3562 72.747 19.6697 72.652 21.6432 70.6575C24.3112 67.962 23.8767 63.876 22.7042 60.6055C21.1327 56.2235 18.8987 52.009 16.5392 48.0065Z" fill="#1F1E21"/>
<path d="M39.6886 58.4501C39.4261 58.0051 38.0876 58.1046 38.4521 58.7231C40.3271 61.9036 42.0081 65.1926 43.4736 68.5811C44.8246 71.7056 46.2531 75.3401 44.8516 78.7011C43.7186 81.4181 40.7181 82.7651 38.0411 81.3021C34.9551 79.6156 35.2141 75.6606 35.7791 72.6961C36.5426 68.6891 37.9976 64.8496 39.4366 61.0466C39.6211 60.5591 38.4527 59.8526 38.2237 60.4486C36.6182 64.6271 34.9821 68.8476 34.2691 73.2891C33.7576 76.4731 34.0471 80.1061 37.1426 81.8551C39.5051 83.1901 42.8187 83.0951 44.7927 81.1011C47.4607 78.4056 47.0256 74.3191 45.8536 71.0491C44.2821 66.6671 42.0481 62.4521 39.6886 58.4501Z" fill="#1F1E21"/>
<path d="M64.1872 39.156C63.9247 38.711 62.5862 38.8105 62.9507 39.429C64.8257 42.6095 66.5067 45.898 67.9727 49.287C69.3237 52.4115 70.7522 56.046 69.3507 59.407C68.2177 62.124 65.2172 63.4705 62.5397 62.0075C59.4537 60.321 59.7127 56.366 60.2777 53.4015C61.0412 49.3945 62.4962 45.5555 63.9352 41.752C64.1197 41.264 62.9507 40.558 62.7217 41.154C61.1162 45.3325 59.4807 49.553 58.7672 53.9945C58.2562 57.179 58.5457 60.8115 61.6412 62.561C64.0037 63.896 67.3171 63.801 69.2911 61.8065C71.9586 59.111 71.5242 55.025 70.3522 51.7545C68.7812 47.373 66.5472 43.1585 64.1872 39.156Z" fill="#1F1E21"/>
<path d="M44.1756 17.8585C43.9131 17.4135 42.5746 17.513 42.9391 18.1315C44.8141 21.312 46.4951 24.6005 47.9606 27.99C49.3116 31.114 50.7401 34.749 49.3386 38.11C48.2056 40.827 45.2051 42.1735 42.5276 40.7105C39.4416 39.024 39.7006 35.069 40.2656 32.1045C41.0291 28.0975 42.4841 24.258 43.9226 20.455C44.1071 19.9675 42.9386 19.261 42.7096 19.8575C41.1041 24.0355 39.4686 28.2565 38.7551 32.698C38.2436 35.8825 38.5331 39.515 41.6286 41.2645C43.9911 42.5995 47.3046 42.5045 49.2781 40.51C51.9461 37.8145 51.5116 33.7285 50.3391 30.458C48.7696 26.0755 46.5356 21.861 44.1756 17.8585Z" fill="#1F1E21"/>
<path d="M11.7862 20.8995C10.2152 16.5175 7.98116 12.303 5.62116 8.30102C5.35866 7.85602 4.02015 7.95552 4.38465 8.57402C6.26015 11.7545 7.94115 15.043 9.40665 18.432C10.7577 21.556 12.1861 25.191 10.7846 28.552C9.65214 31.269 6.65116 32.616 3.97416 31.1525C0.888157 29.466 1.14716 25.511 1.71216 22.5465C2.47566 18.539 3.93016 14.7 5.36966 10.897C5.55416 10.4095 4.38565 9.70301 4.15665 10.299C2.55115 14.477 0.915654 18.698 0.202154 23.1395C-0.309346 26.324 -0.0193534 29.9565 3.07615 31.706C5.43865 33.041 8.75215 32.946 10.7257 30.9515C13.3932 28.2565 12.9587 24.17 11.7862 20.8995Z" fill="#1F1E21"/>
<path d="M75.0782 12.8735C73.5072 8.49153 71.2732 4.27703 68.9132 0.274528C68.6512 -0.170472 67.3121 -0.0709736 67.6766 0.547526C69.5516 3.72803 71.2332 7.01653 72.6982 10.406C74.0492 13.53 75.4776 17.165 74.0761 20.526C72.9436 23.243 69.9427 24.5895 67.2657 23.1265C64.1797 21.44 64.4387 17.485 65.0037 14.5205C65.7672 10.5135 67.2217 6.67403 68.6612 2.87103C68.8457 2.38353 67.6772 1.67703 67.4482 2.27353C65.8427 6.45203 64.2072 10.6725 63.4937 15.114C62.9822 18.298 63.2722 21.931 66.3677 23.68C68.7297 25.015 72.0437 24.92 74.0172 22.926C76.6852 20.2295 76.2507 16.1435 75.0782 12.8735Z" fill="#1F1E21"/>
</svg>
