<svg viewBox="0 0 192 50" fill="none" xmlns="http://www.w3.org/2000/svg">
<path d="M61.9588 43.6932C61.8402 43.6932 61.7215 43.6614 61.6148 43.5958L8.43617 10.5385C8.13084 10.3478 8.03753 9.94691 8.22686 9.64011C8.41753 9.33331 8.81883 9.24118 9.1255 9.43064L61.7495 42.1437L84.6228 5.43851C84.7175 5.28797 84.8695 5.18117 85.0428 5.14531C85.2175 5.10784 85.3988 5.14531 85.5455 5.24531L131.901 36.965L184.527 21.9546C184.87 21.8557 185.234 22.0557 185.332 22.4026C185.432 22.7494 185.231 23.1093 184.884 23.2078L131.966 38.3041C131.779 38.3588 131.577 38.324 131.417 38.2145L85.3708 6.70677L62.5122 43.3854C62.3882 43.5854 62.1762 43.6932 61.9588 43.6932Z" fill="black"/>
<path d="M66.003 48.736C68.7177 48.1771 70.6897 45.3197 70.5964 42.2401C70.503 39.1599 68.4231 36.124 65.7311 34.9839C63.0391 33.8453 59.9257 34.6079 58.0764 36.7547C56.5444 38.5349 55.8844 41.236 56.5244 43.7453C57.1657 46.2547 59.1564 48.4479 61.4684 48.9948C62.7977 49.3079 64.1923 49.1093 66.003 48.736Z" fill="#ACD4F7"/>
<path d="M63.1447 35.1145C61.4221 35.1145 59.7247 35.8437 58.5727 37.1803C57.1434 38.8401 56.5887 41.3531 57.1581 43.5839C57.7541 45.9161 59.5887 47.8803 61.6207 48.3588C62.7834 48.6333 64.0607 48.4708 65.874 48.0973C68.242 47.6093 70.0314 45.0453 69.946 42.2599C69.8607 39.4521 67.9821 36.6453 65.4781 35.5855C64.7287 35.2677 63.9341 35.1145 63.1447 35.1145ZM62.8781 49.8027C62.3381 49.8027 61.8274 49.7479 61.3207 49.6281C58.8367 49.0427 56.6047 46.6907 55.8941 43.9068C55.2114 41.236 55.8594 38.3317 57.5847 36.3292C59.6287 33.9547 63.0834 33.1547 65.9874 34.3839C68.9367 35.6317 71.1501 38.9281 71.2501 42.2197C71.3554 45.6771 69.1567 48.7531 66.1367 49.3745C64.8674 49.6375 63.8274 49.8027 62.8781 49.8027Z" fill="black"/>
<path d="M186.724 29.1427C189.438 28.5839 191.411 25.7265 191.318 22.6469C191.223 19.5667 189.143 16.5307 186.452 15.3907C183.76 14.2505 180.646 15.0145 178.798 17.1615C177.265 18.9401 176.604 21.6427 177.246 24.1521C177.887 26.6615 179.878 28.8547 182.19 29.4C183.519 29.7136 184.914 29.5161 186.724 29.1427Z" fill="#ACD4F7"/>
<path d="M183.866 15.5198C182.143 15.5198 180.446 16.2495 179.294 17.5864C177.864 19.2454 177.308 21.7599 177.879 23.9907C178.475 26.3224 180.309 28.2855 182.34 28.7651C183.503 29.0402 184.78 28.8771 186.594 28.5042C188.963 28.0162 190.751 25.4522 190.667 22.6667C190.581 19.8588 188.703 17.0506 186.199 15.9907C185.448 15.6735 184.654 15.5198 183.866 15.5198ZM183.599 30.2079C183.059 30.2079 182.548 30.1547 182.04 30.035C179.557 29.4495 177.325 27.0959 176.615 24.3136C175.932 21.6412 176.58 18.7375 178.304 16.736C180.349 14.3599 183.805 13.5615 186.707 14.7896C189.657 16.0386 191.871 19.335 191.969 22.6266C192.075 26.0839 189.877 29.1599 186.856 29.7812C185.587 30.0427 184.548 30.2079 183.599 30.2079Z" fill="black"/>
<path d="M12.2592 18.0213C15.5019 17.3145 17.9299 14.0401 17.9059 10.5734C17.8832 7.10517 15.4965 3.7453 12.3285 2.5385C9.1592 1.33063 5.43522 2.28023 3.17522 4.7505C1.30322 6.79837 0.440541 9.86143 1.13121 12.6693C1.82187 15.477 4.12724 17.8921 6.86057 18.4412C8.43257 18.7557 10.0965 18.4932 12.2592 18.0213Z" fill="white"/>
<path d="M9.46584 2.67185C7.3085 2.67185 5.14049 3.56825 3.65783 5.19065C1.88849 7.12398 1.1458 9.99838 1.76447 12.5136C2.41114 15.1401 4.55916 17.3145 6.98849 17.8016C8.39116 18.0828 9.93112 17.8615 12.1205 17.3839C15.0205 16.7521 17.2751 13.7625 17.2538 10.5771C17.2325 7.40265 15.0631 4.27865 12.0951 3.14785C11.2538 2.82652 10.3605 2.67185 9.46584 2.67185ZM8.31115 19.2307C7.76581 19.2307 7.24584 19.1838 6.7325 19.0802C3.82317 18.4973 1.26047 15.9255 0.497802 12.8255C-0.234198 9.85305 0.608466 6.59065 2.69513 4.31039C5.14713 1.62919 9.2045 0.649451 12.5605 1.92812C16.0112 3.24265 18.5338 6.87705 18.5578 10.5683C18.5845 14.4093 15.9365 17.888 12.3978 18.6599C10.7858 19.0104 9.48981 19.2307 8.31115 19.2307Z" fill="black"/>
<path d="M86.9008 10.4385C88.8901 9.99839 90.3915 8.00933 90.3902 5.91453C90.3888 3.81973 88.9395 1.79839 87.0021 1.08119C85.0648 0.363992 82.7795 0.952127 81.3848 2.45306C80.2288 3.69839 79.6874 5.55306 80.1008 7.24692C80.5128 8.94119 81.9168 10.3921 83.5902 10.7136C84.5515 10.8973 85.5728 10.7317 86.9008 10.4385Z" fill="white"/>
<path d="M85.2819 1.43069C84.0179 1.43069 82.7406 1.95309 81.8646 2.89735C80.8286 4.01202 80.3859 5.65882 80.7352 7.09322C81.0979 8.58029 82.3219 9.80522 83.7139 10.0719C84.5299 10.2282 85.45 10.0907 86.7606 9.80162C88.4313 9.43175 89.7406 7.72549 89.7393 5.91456C89.7379 4.10269 88.4926 2.32815 86.7779 1.69215C86.2993 1.51615 85.7912 1.43069 85.2819 1.43069ZM84.4459 11.4427C84.1099 11.4427 83.7872 11.4146 83.4686 11.3531C81.5912 10.9932 79.9472 9.36829 79.4686 7.40162C79.0112 5.52402 79.5633 3.45736 80.9086 2.00936C82.4873 0.309355 85.0873 -0.323976 87.23 0.469357C89.438 1.28642 91.0419 3.57602 91.0432 5.91456C91.0446 8.35215 89.3246 10.5708 87.0432 11.076H87.0419C86.0206 11.3016 85.1979 11.4427 84.4459 11.4427Z" fill="black"/>
<path d="M134.633 43.7437C137.28 43.1588 139.277 40.512 139.276 37.7255C139.274 34.9375 137.345 32.2479 134.769 31.2932C132.19 30.3401 129.149 31.1213 127.294 33.1197C125.756 34.776 125.037 37.2437 125.585 39.4984C126.134 41.7521 128.001 43.6812 130.228 44.1093C131.508 44.3547 132.866 44.1349 134.633 43.7437Z" fill="white"/>
<path d="M132.478 31.5437C130.737 31.5437 128.977 32.264 127.77 33.5625C126.346 35.0973 125.735 37.3667 126.217 39.3437C126.718 41.4027 128.418 43.0973 130.349 43.4683C131.471 43.6839 132.717 43.4984 134.49 43.1068C136.809 42.5948 138.623 40.2307 138.622 37.7255C138.621 35.2281 136.903 32.7803 134.541 31.9052C133.881 31.6615 133.181 31.5437 132.478 31.5437ZM131.362 44.864C130.929 44.864 130.514 44.8281 130.103 44.7495C127.687 44.2864 125.567 42.1907 124.95 39.6531C124.359 37.224 125.073 34.5505 126.814 32.676C128.858 30.476 132.222 29.6547 134.993 30.6828C137.85 31.7401 139.925 34.7016 139.926 37.7255C139.927 40.8693 137.711 43.7307 134.771 44.3812C133.425 44.6787 132.346 44.864 131.362 44.864Z" fill="black"/>
</svg>
