<svg width="94" height="51" viewBox="0 0 94 51" fill="none" xmlns="http://www.w3.org/2000/svg">
<path d="M64.6164 44.4254C64.559 44.4254 64.5017 44.4187 64.4443 44.4027L6.51369 28.5853C6.16569 28.4907 5.9617 28.132 6.05637 27.784C6.15103 27.436 6.51103 27.232 6.8577 27.3267L64.319 43.016L87.2817 6.1707C87.471 5.86537 87.8737 5.77203 88.179 5.96136C88.4857 6.15203 88.579 6.55469 88.3884 6.86002L65.1697 44.1187C65.0484 44.312 64.8377 44.4254 64.6164 44.4254Z" fill="black"/>
<path d="M68.6618 49.4694C71.3751 48.9094 73.3485 46.052 73.2551 42.972C73.1618 39.892 71.0818 36.856 68.3898 35.716C65.6978 34.5774 62.5845 35.3414 60.7351 37.4867C59.2031 39.2667 58.5418 41.9694 59.1831 44.4774C59.8245 46.9867 61.8151 49.18 64.1271 49.7267C65.4565 50.04 66.8511 49.8414 68.6618 49.4694Z" fill="#ACD4F7"/>
<path d="M65.801 35.8467C64.0783 35.8467 62.381 36.576 61.229 37.912C59.7996 39.572 59.245 42.0853 59.8143 44.316C60.4103 46.648 62.245 48.612 64.277 49.092C65.4396 49.3653 66.717 49.2027 68.529 48.8293C70.8983 48.3427 72.6863 45.7787 72.6023 42.992C72.517 40.184 70.6383 37.3773 68.1343 36.3173C67.385 36 66.5903 35.8467 65.801 35.8467ZM65.5343 50.5347C64.9943 50.5347 64.4836 50.4813 63.977 50.3613C61.493 49.7747 59.2623 47.4227 58.5503 44.64C57.8676 41.968 58.5157 39.064 60.241 37.0613C62.285 34.6867 65.741 33.8867 68.6436 35.116C71.593 36.364 73.8063 39.66 73.9063 42.952C74.0103 46.4093 71.813 49.4853 68.793 50.108C67.5236 50.3693 66.4836 50.5347 65.5343 50.5347Z" fill="black"/>
<path d="M89.559 11.1707C91.5483 10.7307 93.0496 8.7427 93.0483 6.6467C93.047 4.55203 91.5976 2.5307 89.6603 1.81337C87.723 1.09603 85.4363 1.68401 84.043 3.18534C82.887 4.43067 82.3456 6.28537 82.759 7.98003C83.171 9.67337 84.5736 11.124 86.2483 11.4454C87.2096 11.6294 88.231 11.464 89.559 11.1707Z" fill="white"/>
<path d="M87.9376 2.16267C86.6749 2.16267 85.3976 2.68534 84.5203 3.62934C83.4856 4.744 83.0429 6.39067 83.3923 7.82533C83.7536 9.312 84.9789 10.5373 86.3709 10.804C87.1869 10.9613 88.1056 10.824 89.4176 10.5333C91.0883 10.164 92.3963 8.45736 92.3963 6.64802C92.3949 4.83602 91.1496 3.06 89.4336 2.42533C88.9563 2.248 88.4483 2.16267 87.9376 2.16267ZM87.1016 12.1747C86.7669 12.1747 86.4443 12.1467 86.1243 12.0853C84.2483 11.7267 82.6043 10.1 82.1243 8.13334C81.6683 6.25734 82.2189 4.19068 83.5643 2.74135C85.1443 1.04135 87.7429 0.40801 89.8869 1.20134C92.0963 2.01868 93.6989 4.30935 93.7003 6.64669C93.7016 9.08402 91.9816 11.3027 89.6989 11.808C88.6763 12.0333 87.8549 12.1747 87.1016 12.1747Z" fill="black"/>
<path d="M8.41 32.6401C10.3993 32.2001 11.9007 30.2121 11.8993 28.1161C11.898 26.0214 10.4487 24.0001 8.51133 23.2827C6.57533 22.5654 4.28867 23.1534 2.894 24.6547C1.738 25.9 1.198 27.7547 1.61 29.4494C2.022 31.1427 3.426 32.5934 5.09934 32.9147C6.06067 33.0987 7.082 32.9334 8.41 32.6401Z" fill="white"/>
<path d="M6.78974 23.632C5.52574 23.632 4.24841 24.1547 3.37108 25.0987C2.33641 26.2134 1.89373 27.86 2.24306 29.2947C2.60573 30.7814 3.82974 32.0067 5.22174 32.2734C6.03641 32.4294 6.95641 32.2934 8.26841 32.0027C9.93907 31.6334 11.2471 29.9267 11.2471 28.1174C11.2457 26.3054 10.0004 24.5294 8.28441 23.8947C7.80707 23.7174 7.29908 23.632 6.78974 23.632ZM5.95241 33.644C5.61641 33.644 5.29506 33.616 4.9764 33.5547C3.1004 33.1947 1.45506 31.5694 0.976398 29.6027C0.519065 27.7267 1.07107 25.66 2.41507 24.2107C3.99507 22.5107 6.59374 21.8774 8.73774 22.6707C10.9471 23.488 12.5511 25.7787 12.5511 28.116C12.5524 30.5534 10.8324 32.772 8.54974 33.2774C7.52707 33.5027 6.70574 33.644 5.95241 33.644Z" fill="black"/>
</svg>
