<svg width="484" height="288" viewBox="0 0 484 288" fill="none" xmlns="http://www.w3.org/2000/svg">
<path d="M1.07334 8.17203L1.07334 8.17407L0.5 148.779C0.5 148.779 0.5 148.779 0.5 148.78C0.500287 150.463 1.22311 152.697 2.68285 154.507C4.13199 156.304 6.28443 157.656 9.14935 157.656H251.015C253.077 157.656 254.957 156.756 256.325 155.42C257.697 154.08 258.519 152.337 258.519 150.693V9.23068C258.519 4.1611 253.777 0.50032 249.583 0.500031C249.583 0.500031 249.583 0.500031 249.583 0.500031L8.57649 0.733353H8.57601C6.5331 0.733353 4.6568 1.73529 3.2807 3.19249C1.90009 4.65445 1.07334 6.52155 1.07334 8.17203Z" fill="white" stroke="black"/>
<path d="M33.6123 109.722C33.611 109.722 33.611 109.722 33.6096 109.722C33.2496 109.721 32.9577 109.427 32.959 109.067L33.063 77.6515C33.063 77.2902 33.3576 76.9821 33.7163 77.0008C34.0776 77.0021 34.3683 77.2955 34.367 77.6555L34.2643 109.071C34.263 109.431 33.971 109.722 33.6123 109.722Z" fill="black"/>
<path d="M38.6737 102.105V84.6182H28.6523V102.105H38.6737Z" fill="white"/>
<path d="M29.304 101.453H38.0213V85.2702H29.304V101.453ZM38.6747 102.757H28.652C28.292 102.757 28 102.465 28 102.105V84.6182C28 84.2582 28.292 83.9661 28.652 83.9661H38.6747C39.0347 83.9661 39.3267 84.2582 39.3267 84.6182V102.105C39.3267 102.465 39.0347 102.757 38.6747 102.757Z" fill="black"/>
<path d="M59.9997 132.371H59.9983C59.6383 132.37 59.3463 132.078 59.3477 131.718L59.4503 89.1035C59.4517 88.7435 59.7437 88.4528 60.1037 88.4528H60.105C60.465 88.4528 60.7557 88.7461 60.7557 89.1061L60.6517 131.721C60.6517 132.079 60.3597 132.371 59.9997 132.371Z" fill="black"/>
<path d="M65.0623 122.271V98.5515H55.041V122.271H65.0623Z" fill="white"/>
<path d="M55.6921 121.619H64.4094V99.2034H55.6921V121.619ZM65.0614 122.923H55.0401C54.6787 122.923 54.3867 122.631 54.3867 122.271V98.5515C54.3867 98.1915 54.6787 97.8994 55.0401 97.8994H65.0614C65.4214 97.8994 65.7134 98.1915 65.7134 98.5515V122.271C65.7134 122.631 65.4214 122.923 65.0614 122.923Z" fill="black"/>
<path d="M1.26137 18.0466C0.901365 18.0466 0.60938 17.7559 0.60938 17.3959C0.608046 17.0359 0.900031 16.7426 1.26003 16.7426L258.512 16.2519C258.875 16.2466 259.164 16.5426 259.165 16.9026C259.165 17.2626 258.875 17.5559 258.513 17.5559L1.2627 18.0466H1.26137Z" fill="black"/>
<path d="M244.064 7.77193C243.461 7.65593 242.819 7.98259 242.516 8.47193C242.259 8.88659 242.223 9.4146 242.448 9.84393C242.673 10.2733 243.165 10.5839 243.688 10.5959C244.451 10.6146 245.132 9.96793 245.147 9.27193C245.161 8.57593 244.587 7.87193 244.064 7.77193Z" fill="black"/>
<path d="M230.584 7.77193C229.981 7.65593 229.339 7.98259 229.036 8.47193C228.779 8.88659 228.741 9.4146 228.968 9.84393C229.193 10.2733 229.685 10.5839 230.208 10.5959C230.971 10.6146 231.652 9.96793 231.667 9.27193C231.681 8.57593 231.107 7.87193 230.584 7.77193Z" fill="black"/>
<path d="M216.235 7.77193C215.631 7.65593 214.989 7.98259 214.687 8.47193C214.429 8.88659 214.392 9.4146 214.617 9.84393C214.844 10.2733 215.336 10.5839 215.859 10.5959C216.621 10.6146 217.303 9.96793 217.317 9.27193C217.332 8.57593 216.757 7.87193 216.235 7.77193Z" fill="black"/>
<path d="M167.466 121.164H167.465C167.105 121.164 166.813 120.872 166.814 120.511L166.917 66.5906C166.918 66.2306 167.21 65.94 167.569 65.94H167.57C167.93 65.94 168.222 66.2333 168.222 66.5933L168.118 120.513C168.118 120.873 167.826 121.164 167.466 121.164Z" fill="black"/>
<path d="M114.69 107.255C114.689 107.255 114.688 107.255 114.688 107.255C114.328 107.253 114.037 106.961 114.037 106.6L114.141 75.184C114.142 74.824 114.434 74.5333 114.793 74.5333C114.793 74.5333 114.794 74.5333 114.796 74.5333C115.156 74.5347 115.446 74.828 115.445 75.188L115.342 106.604C115.341 106.964 115.049 107.255 114.69 107.255Z" fill="black"/>
<path d="M193.854 84.3613C193.853 84.3613 193.853 84.3613 193.852 84.3613C193.492 84.36 193.201 84.068 193.201 83.7067L193.305 51.748C193.307 51.3893 193.598 51.0973 193.957 51.0973C193.957 51.0973 193.958 51.0973 193.96 51.0973C194.32 51.0987 194.611 51.392 194.609 51.752L194.507 83.7107C194.505 84.0707 194.213 84.3613 193.854 84.3613Z" fill="black"/>
<path d="M198.417 76.124V59.3347H189.395V76.124H198.417Z" fill="#ACD4F7" stroke="black"/>
<path d="M141.078 101.911C141.078 101.911 141.078 101.911 141.076 101.911C140.716 101.911 140.424 101.617 140.426 101.257L140.528 57.1386C140.53 56.78 140.822 56.488 141.182 56.488C141.182 56.488 141.182 56.488 141.183 56.488C141.543 56.4893 141.834 56.7813 141.834 57.1426L141.73 101.26C141.73 101.62 141.438 101.911 141.078 101.911Z" fill="black"/>
<path d="M145.64 90.9786V67.4213H136.619V90.9786H145.64Z" fill="#ACD4F7" stroke="black"/>
<path d="M172.5 107.5V77.5H162.5V107.5H172.5Z" fill="white" stroke="black"/>
<path d="M118.5 99V83C118.5 82.7239 118.276 82.5 118 82.5H111C110.724 82.5 110.5 82.7239 110.5 83V99C110.5 99.2761 110.724 99.5 111 99.5H118C118.276 99.5 118.5 99.2761 118.5 99Z" fill="white" stroke="black"/>
<path d="M88.3043 111.244C88.303 111.244 88.303 111.244 88.303 111.244C87.9417 111.243 87.651 110.951 87.6523 110.589L87.755 76.5107C87.7564 76.1507 88.0483 75.86 88.407 75.86C88.4083 75.86 88.4083 75.86 88.4097 75.86C88.7697 75.8613 89.0604 76.1547 89.059 76.5147L88.9564 110.593C88.955 110.953 88.663 111.244 88.3043 111.244Z" fill="black"/>
<path d="M220.24 78.948C220.24 78.948 220.24 78.948 220.239 78.948C219.879 78.948 219.588 78.6546 219.588 78.2946L219.692 34.6787C219.692 34.3187 219.984 34.028 220.344 34.028C220.344 34.028 220.344 34.028 220.345 34.028C220.705 34.0293 220.997 34.3213 220.996 34.6813L220.893 78.2973C220.892 78.6573 220.6 78.948 220.24 78.948Z" fill="black"/>
<path d="M67.5111 44.9854C67.5111 44.9854 67.5111 44.9854 67.5098 44.9854L31.8351 44.7507C31.7151 44.7507 31.6178 44.652 31.6192 44.532C31.6205 44.4134 31.7165 44.316 31.8365 44.316H31.8378L67.5125 44.5507C67.6325 44.5507 67.7298 44.648 67.7285 44.7694C67.7285 44.8894 67.6311 44.9854 67.5111 44.9854Z" fill="black"/>
<path d="M64.0248 52.084C64.0235 52.084 64.0234 52.084 64.0221 52.084L35.3235 51.8507C35.2021 51.8493 35.1061 51.7507 35.1074 51.632C35.1088 51.5107 35.2074 51.4347 35.3261 51.4147L64.0261 51.6493C64.1461 51.6506 64.2421 51.748 64.2421 51.8693C64.2408 51.988 64.1435 52.084 64.0248 52.084Z" fill="black"/>
<path d="M67.5111 59.184C67.5111 59.184 67.5111 59.184 67.5098 59.184L31.8351 58.9493C31.7151 58.9493 31.6178 58.8506 31.6192 58.7306C31.6205 58.612 31.7165 58.5147 31.8365 58.5147H31.8378L67.5125 58.7493C67.6325 58.7493 67.7298 58.848 67.7285 58.968C67.7285 59.088 67.6311 59.184 67.5111 59.184Z" fill="black"/>
<path d="M225.5 68.5V44.5H215.5V68.5H225.5Z" fill="white" stroke="black"/>
<path d="M93.5 106V82C93.5 81.7239 93.2761 81.5 93 81.5H84C83.7239 81.5 83.5 81.7239 83.5 82V106C83.5 106.276 83.7239 106.5 84 106.5H93C93.2761 106.5 93.5 106.276 93.5 106Z" fill="white" stroke="black"/>
<path d="M259.399 208.94C252.008 191.947 243.347 160.675 234.584 144.063C228.927 140.456 222.507 134.116 219.187 127.823C217.836 125.261 217.626 124.145 219.052 121.923C220.096 120.297 222.532 120.247 224.203 120.837C223.159 119.267 221.194 118.055 222.952 115.861C223.743 114.875 225.018 114.172 226.204 114.613C224.912 111.264 228.359 108.399 231.236 111.276C228.676 107.345 226.346 103.831 223.792 100.233C222.211 98.008 220.567 95.2947 221.89 93.972C223.584 92.2774 226.156 94.5867 229.223 98.2494C234.454 104.497 236.191 106.579 241.668 112.056C246.823 117.211 252.319 127.539 250.175 132.229C251.896 139.369 277.97 180.765 286.52 189.315C289.642 192.436 287.094 195.443 286.36 199.795C285.474 205.053 281.635 223.565 268.283 217.545C264.499 215.84 259.84 209.956 259.399 208.94Z" fill="white"/>
<path d="M259.998 208.68C260.395 209.593 264.939 215.323 268.551 216.951C271.718 218.379 274.546 218.449 276.957 217.163C282.518 214.196 284.833 204.94 285.717 199.687C285.931 198.417 286.298 197.245 286.622 196.211C287.435 193.615 288.023 191.739 286.059 189.776C277.679 181.396 251.401 140.093 249.542 132.381C249.507 132.24 249.522 132.091 249.582 131.959C251.506 127.752 246.573 117.883 241.207 112.517C235.753 107.063 234.011 104.984 228.845 98.8134L228.722 98.668C227.093 96.7214 224.751 94.1254 223.245 94.06C222.903 94.044 222.622 94.1627 222.351 94.4334C221.253 95.5307 223.565 98.7867 224.323 99.856C227.03 103.668 229.509 107.427 231.782 110.92C231.965 111.2 231.906 111.572 231.646 111.783C231.387 111.992 231.011 111.973 230.775 111.736C229.747 110.709 228.575 110.461 227.637 111.071C226.829 111.596 226.226 112.856 226.813 114.38C226.906 114.619 226.849 114.889 226.669 115.072C226.489 115.255 226.218 115.315 225.977 115.225C225.083 114.892 224.069 115.511 223.461 116.269C222.453 117.528 222.913 118.192 223.962 119.459C224.23 119.781 224.506 120.115 224.746 120.476C224.902 120.711 224.89 121.017 224.717 121.239C224.545 121.46 224.247 121.545 223.986 121.452C222.461 120.913 220.409 121.019 219.602 122.275C218.341 124.239 218.493 125.108 219.765 127.519C223.235 134.099 229.885 140.292 234.935 143.513C235.031 143.573 235.109 143.659 235.162 143.759C240.313 153.524 245.363 168.141 250.247 182.276C253.69 192.241 256.942 201.655 259.997 208.68H259.998ZM273.261 219.387C271.613 219.387 269.859 218.972 268.015 218.14C264.034 216.345 259.302 210.352 258.801 209.2C255.726 202.128 252.466 192.692 249.014 182.703C244.171 168.687 239.166 154.196 234.087 144.519C228.91 141.18 222.158 134.855 218.61 128.127C217.15 125.359 216.93 124.023 218.505 121.571C219.355 120.244 220.991 119.753 222.602 119.853C221.745 118.764 220.935 117.335 222.443 115.453C223.247 114.449 224.302 113.876 225.326 113.831C225.095 112.279 225.686 110.784 226.925 109.977C227.547 109.572 228.375 109.335 229.283 109.48C227.411 106.628 225.407 103.635 223.261 100.612C221.426 98.0281 219.774 95.1654 221.429 93.5107C221.961 92.9787 222.587 92.728 223.302 92.756C224.903 92.8267 226.765 94.2974 229.723 97.8307L229.845 97.9761C234.985 104.113 236.715 106.18 242.13 111.595C247.15 116.615 252.951 127.061 250.863 132.28C252.907 139.511 278.283 180.155 286.982 188.853C289.503 191.375 288.709 193.913 287.867 196.601C287.541 197.644 287.203 198.723 287.005 199.904C286.079 205.393 283.623 215.085 277.571 218.315C276.23 219.029 274.79 219.387 273.261 219.387Z" fill="black"/>
<path d="M228.71 130.72C228.338 130.72 227.95 130.649 227.572 130.504C226.774 130.197 226.142 129.643 225.585 129.155L223.009 126.899C222.738 126.66 222.712 126.248 222.949 125.977C223.185 125.707 223.598 125.679 223.869 125.917L226.444 128.173C226.944 128.611 227.46 129.063 228.04 129.285C228.576 129.492 229.136 129.449 229.464 129.179C229.862 128.847 229.912 128.196 229.79 127.731C229.622 127.099 229.189 126.532 228.758 126.005C227.141 124.029 226.74 123.712 225.546 122.769C225.1 122.416 224.544 121.976 223.782 121.337C223.506 121.105 223.47 120.695 223.702 120.419C223.933 120.143 224.344 120.107 224.621 120.337C225.368 120.964 225.916 121.397 226.356 121.745C227.597 122.727 228.061 123.095 229.768 125.18C230.266 125.789 230.818 126.513 231.052 127.399C231.334 128.475 231.038 129.567 230.296 130.183C229.868 130.537 229.308 130.72 228.71 130.72Z" fill="black"/>
<path d="M233.393 128.475C232.81 128.475 232.226 128.283 231.697 128.069C231.047 127.808 230.401 127.525 229.774 127.231C229.449 127.079 229.307 126.689 229.461 126.364C229.614 126.037 230.002 125.897 230.329 126.051C230.934 126.335 231.558 126.607 232.185 126.859C232.751 127.088 233.389 127.295 233.813 127.079C234.338 126.811 234.455 125.941 234.298 125.221C234.051 124.083 232.399 121.429 225.935 115.257L225.754 115.085C225.494 114.836 225.485 114.424 225.733 114.163C225.982 113.903 226.395 113.893 226.655 114.143L226.835 114.315C232.293 119.524 235.151 123.003 235.573 124.945C235.835 126.156 235.577 127.644 234.405 128.241C234.075 128.408 233.734 128.475 233.393 128.475Z" fill="black"/>
<path d="M238.061 132.881C237.826 132.881 237.601 132.755 237.483 132.533C235.923 129.579 237.233 126.567 238.189 124.367C238.522 123.603 239.077 122.323 238.882 122.115C238.183 121.367 235.127 121.111 233.659 120.988C232.823 120.919 232.445 120.884 232.214 120.809C230.551 120.267 229.855 119.376 229.566 118.724C229.309 118.147 229.277 117.524 229.482 117.06C229.757 116.441 230.819 115.079 231.667 114.797C233.217 114.284 236.898 114.396 240.229 114.543C240.659 114.561 241.031 114.577 241.321 114.588C242.578 114.628 246.273 115.975 246.709 117.461C246.81 117.808 246.613 118.171 246.266 118.272C245.921 118.372 245.558 118.175 245.457 117.829C245.275 117.233 242.462 115.929 241.278 115.891C240.985 115.881 240.607 115.865 240.171 115.845C237.85 115.744 233.529 115.555 232.077 116.036C231.749 116.145 230.897 117.088 230.675 117.588C230.651 117.643 230.614 117.872 230.757 118.193C230.907 118.529 231.347 119.153 232.619 119.569C232.741 119.603 233.287 119.648 233.769 119.688C236.31 119.901 238.873 120.195 239.835 121.224C240.615 122.057 240.073 123.305 239.386 124.887C238.487 126.952 237.37 129.524 238.637 131.924C238.805 132.243 238.683 132.637 238.365 132.807C238.267 132.857 238.163 132.881 238.061 132.881Z" fill="black"/>
<path d="M234.584 115.723C234.36 115.723 234.141 115.607 234.02 115.397C233.676 114.805 232.594 113.639 231.726 112.701C231.269 112.208 230.836 111.741 230.536 111.388C230.302 111.113 230.337 110.701 230.612 110.468C230.886 110.236 231.297 110.269 231.53 110.544C231.813 110.876 232.234 111.332 232.682 111.815C233.644 112.851 234.732 114.025 235.148 114.743C235.329 115.055 235.222 115.455 234.91 115.635C234.808 115.695 234.696 115.723 234.584 115.723Z" fill="black"/>
<path d="M235.758 126.379C235.6 126.379 235.442 126.36 235.292 126.323C234.941 126.237 234.728 125.884 234.814 125.533C234.9 125.185 235.253 124.971 235.602 125.056C235.913 125.132 236.421 124.968 236.753 124.511C237.264 123.809 237.14 122.735 236.413 121.563C236.222 121.256 236.317 120.855 236.622 120.664C236.929 120.475 237.33 120.568 237.521 120.875C238.97 123.212 238.205 124.733 237.808 125.279C237.308 125.967 236.514 126.379 235.758 126.379Z" fill="black"/>
<path d="M480.919 236.015C476.269 211.589 476.236 185.371 456.559 168.947C447.115 161.063 424.724 157.659 411.599 156.817C410.796 169.524 398.333 171.092 390.421 172.037C386.116 172.551 378.297 165.384 371.405 158.491C368.425 159.679 350.489 160.579 338.841 170.985C317.22 190.3 288.904 187.297 287.363 188.839C285.217 190.984 290.492 209.731 271.429 218.559C263.408 222.273 311.473 229.915 344.575 221.153C343.335 238.476 349.117 260.681 349.117 260.681C349.117 260.681 465.844 282.191 476.951 284.161C477.872 284.325 479.967 283.571 480.335 282.709C482.669 277.248 485.195 258.485 480.919 236.015Z" fill="white"/>
<path d="M349.647 260.116C357.283 261.523 466.416 281.631 477.063 283.52C477.774 283.647 479.522 282.948 479.734 282.452C481.762 277.708 484.715 259.459 480.276 236.137C479.402 231.537 478.679 226.809 477.98 222.237C474.87 201.868 471.931 182.628 456.14 169.447C447.528 162.259 427.246 158.543 412.198 157.511C410.975 170.239 398.189 171.765 390.498 172.684C385.979 173.227 378.252 166.241 371.23 159.239C370.454 159.468 369.231 159.688 367.642 159.973C360.86 161.193 348.239 163.464 339.275 171.472C322.268 186.665 301.055 188.191 291.996 188.843C290.04 188.984 288.192 189.117 287.803 189.321C287.464 189.72 287.382 191.46 287.302 193.143C286.98 199.856 286.383 212.352 271.702 219.151C271.379 219.3 271.251 219.416 271.206 219.468C271.799 220.657 280.679 223.199 296.803 224.187C307.04 224.815 326.839 225.172 344.407 220.523C344.612 220.468 344.828 220.516 344.991 220.651C345.152 220.785 345.24 220.989 345.224 221.2C344.098 236.948 348.883 257.039 349.647 260.116ZM477.212 284.835C477.075 284.835 476.948 284.824 476.835 284.804C465.854 282.856 350.166 261.537 348.999 261.323C348.75 261.276 348.55 261.091 348.486 260.845C348.428 260.627 342.888 239.107 343.866 222.011C326.36 226.464 306.906 226.109 296.767 225.492C284.178 224.724 270.927 222.545 269.962 219.868C269.806 219.436 269.754 218.615 271.154 217.967C285.118 211.5 285.691 199.517 285.998 193.08C286.118 190.592 286.188 189.089 286.9 188.377C287.39 187.888 288.492 187.788 291.902 187.541C300.828 186.9 321.731 185.396 338.406 170.499C347.644 162.245 360.503 159.932 367.411 158.689C369.178 158.372 370.572 158.12 371.163 157.885C371.404 157.788 371.682 157.845 371.866 158.031C378.339 164.504 386.279 171.869 390.343 171.389C398.24 170.445 410.174 169.02 410.947 156.776C410.958 156.603 411.038 156.441 411.167 156.328C411.298 156.213 411.471 156.156 411.64 156.165C426.944 157.148 448 160.953 456.976 168.445C473.147 181.943 476.26 202.327 479.271 222.04C479.967 226.601 480.687 231.317 481.558 235.893C485.655 257.424 483.607 276.709 480.934 282.965C480.47 284.051 478.438 284.835 477.212 284.835Z" fill="black"/>
<path d="M332.58 282.172C348.112 282.505 363.643 282.839 379.175 283.171L379.235 275.257L327.375 273.991L332.58 282.172Z" fill="white"/>
<path d="M332.943 281.527L378.527 282.505L378.578 275.893L328.582 274.672L332.943 281.527ZM379.175 283.824C379.17 283.824 379.166 283.824 379.161 283.824L332.567 282.824C332.349 282.819 332.147 282.705 332.03 282.521L326.825 274.341C326.695 274.137 326.689 273.879 326.807 273.669C326.923 273.464 327.139 273.339 327.374 273.339C327.379 273.339 327.385 273.339 327.391 273.339L379.25 274.604C379.606 274.613 379.89 274.905 379.887 275.263L379.827 283.176C379.826 283.351 379.754 283.517 379.629 283.639C379.507 283.757 379.345 283.824 379.175 283.824Z" fill="black"/>
<path d="M400.048 254.877L400.024 254.876L400.001 254.872C398.791 254.673 394.117 253.997 390.82 253.52C389.537 253.334 388.462 253.179 387.881 253.093C386.059 252.827 384.335 252.157 382.714 251.409L382.923 250.955L382.714 251.409C379.921 250.12 375.533 248.212 371.516 246.816C369.506 246.117 367.604 245.551 366.047 245.253C365.269 245.103 364.592 245.024 364.039 245.024C363.475 245.023 363.096 245.106 362.872 245.232L362.822 245.26L362.768 245.276C356.722 247.053 351.204 251.434 346.872 257.024L346.578 256.796L346.872 257.024C345.679 258.563 344.584 260.622 343.916 262.403C343.581 263.295 343.362 264.094 343.285 264.709C343.246 265.017 343.246 265.257 343.273 265.43C343.301 265.608 343.349 265.658 343.355 265.663L343.355 265.664C343.87 266.121 344.512 266.232 344.962 265.929C347.935 259.634 353.188 254.447 359.522 251.556L359.976 252.446C357.096 254.073 354.414 256.048 352.004 258.312C349.554 260.617 347.386 263.323 346.858 266.501C346.838 266.624 346.827 266.72 346.83 266.8C346.833 266.877 346.847 266.914 346.859 266.933C346.859 266.933 346.859 266.933 346.859 266.933L346.86 266.934C346.873 266.957 346.908 267.015 347.122 266.974C347.343 266.931 347.613 266.795 347.824 266.629L347.825 266.629C347.901 266.569 348.051 266.449 348.264 266.28C349.409 265.366 352.369 263.005 355.449 260.742C357.275 259.4 359.155 258.085 360.734 257.12C361.522 256.639 362.247 256.237 362.859 255.964C363.165 255.827 363.453 255.718 363.713 255.648C363.966 255.579 364.228 255.537 364.47 255.565L364.589 256.529C363.855 256.806 362.59 257.576 361.065 258.632C359.557 259.677 357.839 260.971 356.217 262.26C354.594 263.549 353.074 264.828 351.959 265.843C351.4 266.352 350.951 266.788 350.642 267.122C350.487 267.29 350.377 267.423 350.308 267.52C350.286 267.551 350.27 267.575 350.26 267.592C350.252 267.972 350.336 268.303 350.516 268.525L350.516 268.526C350.77 268.841 351.278 268.99 351.802 268.904C352.331 268.816 352.828 268.539 353.384 268.202L353.384 268.202C354.601 267.463 355.775 266.667 356.96 265.864C357.559 265.458 358.16 265.051 358.771 264.648C360.579 263.455 362.447 262.32 364.479 261.474C366.484 260.639 369.139 260.063 371.134 261.451L371.913 261.993L371.026 262.329C367.53 263.653 364.267 265.579 361.538 268.087L361.537 268.087C361.135 268.457 360.794 268.895 360.525 269.378L360.525 269.379C360.313 269.759 360.109 270.186 360.023 270.574C359.936 270.968 359.992 271.207 360.13 271.354L360.13 271.354C360.535 271.785 360.837 271.834 361.089 271.798C361.408 271.752 361.734 271.562 362.185 271.298C365.62 269.035 369.133 267.165 372.81 265.7L372.81 265.699C373.387 265.47 374.056 265.239 374.729 265.158C375.406 265.076 376.129 265.142 376.772 265.553L376.773 265.554C377.602 266.085 381.815 268.717 390.544 269.17C393.62 269.329 396.578 270.13 400.335 271.166C406.957 272.991 412.957 274.669 418.412 276.194C433.409 280.387 444.284 283.428 452.637 285.205C464.023 287.627 470.604 287.67 476.466 285.15C477.601 284.662 478.241 284.169 478.56 283.408C478.893 282.613 478.924 281.422 478.535 279.418C477.486 274.017 476.468 269.919 473.493 266.603C470.522 263.292 465.535 260.692 456.379 258.502C437.676 257.46 418.861 256.171 400.048 254.877ZM350.245 267.621C350.245 267.621 350.246 267.62 350.247 267.617C350.245 267.62 350.245 267.621 350.245 267.621Z" fill="white" stroke="black"/>
<path d="M445.289 258.009C445.014 258.009 444.759 257.836 444.669 257.561C437.621 236.219 433.633 222.719 433.633 193.453C433.633 193.093 433.926 192.801 434.286 192.801C434.646 192.801 434.938 193.093 434.938 193.453C434.938 222.519 438.902 235.937 445.907 257.152C446.021 257.495 445.835 257.863 445.493 257.976C445.425 257.999 445.355 258.009 445.289 258.009Z" fill="black"/>
<path d="M344.575 221.805C344.421 221.805 344.266 221.751 344.142 221.64C343.766 221.304 343.762 220.951 343.699 216.625C343.653 213.424 343.575 208.067 343.274 199.931C343.261 199.571 343.542 199.268 343.902 199.255C344.275 199.239 344.565 199.523 344.578 199.883C344.879 208.033 344.957 213.4 345.003 216.607C345.037 218.9 345.059 220.445 345.138 220.821C345.278 221.06 345.257 221.371 345.062 221.588C344.934 221.732 344.755 221.805 344.575 221.805Z" fill="black"/>
<path d="M381.78 209.847C368.521 209.847 356.477 208.675 350.125 205.441C350.019 205.387 349.975 205.255 350.029 205.148C350.084 205.041 350.217 205 350.323 205.053C363.427 211.724 401.073 209.541 423.18 206.447C423.295 206.429 423.409 206.512 423.425 206.632C423.443 206.751 423.36 206.86 423.24 206.877C411.748 208.487 396.06 209.847 381.78 209.847Z" fill="black"/>
<path d="M395.928 228.461C378.331 228.461 362.237 225.66 350.172 222.712C350.056 222.683 349.984 222.565 350.012 222.449C350.041 222.332 350.157 222.261 350.276 222.289C368.785 226.813 396.8 230.991 425.145 225.192C425.264 225.168 425.379 225.244 425.403 225.361C425.427 225.479 425.351 225.593 425.233 225.617C415.292 227.651 405.392 228.461 395.928 228.461Z" fill="black"/>
<path d="M482.466 263.839C482.405 263.839 482.343 263.812 482.301 263.761C473.817 253.775 459.987 248.748 447.071 250.951C446.955 250.972 446.841 250.892 446.819 250.773C446.799 250.655 446.88 250.543 446.998 250.523C460.065 248.291 474.052 253.379 482.632 263.48C482.71 263.572 482.698 263.708 482.607 263.787C482.566 263.821 482.517 263.839 482.466 263.839Z" fill="black"/>
<path d="M480.921 254.624C480.894 254.624 480.867 254.619 480.839 254.608C479.466 254.056 478.349 253.056 477.267 252.089C476.89 251.753 476.499 251.404 476.107 251.081C473.699 249.109 470.801 247.827 467.723 247.371C467.605 247.353 467.522 247.243 467.539 247.124C467.557 247.004 467.671 246.924 467.786 246.94C470.942 247.407 473.914 248.723 476.382 250.745C476.782 251.073 477.177 251.425 477.557 251.765C478.61 252.707 479.699 253.68 481.002 254.205C481.114 254.249 481.167 254.376 481.123 254.488C481.089 254.572 481.007 254.624 480.921 254.624Z" fill="black"/>
<path d="M200.184 209.911L301.472 210.465L336.384 282.169L236.045 281.917L200.184 209.911Z" fill="#ACD4F7"/>
<path d="M236.448 281.265L335.339 281.515L301.063 211.116L201.239 210.568L236.448 281.265ZM336.383 282.823H336.381L236.043 282.569C235.796 282.568 235.571 282.428 235.46 282.208L199.597 210.201C199.497 209.999 199.508 209.757 199.628 209.565C199.748 209.375 199.957 209.259 200.181 209.259C200.183 209.259 200.184 209.259 200.185 209.259L301.475 209.813C301.723 209.815 301.949 209.956 302.057 210.18L336.969 281.884C337.068 282.087 337.055 282.325 336.936 282.516C336.816 282.707 336.608 282.823 336.383 282.823Z" fill="black"/>
<path d="M264.249 239.128C261.375 238.845 258.232 239.615 257.061 242.256C255.889 244.896 256.788 248.205 258.921 250.153C261.055 252.101 264.211 252.728 267.028 252.093C268.551 251.751 270.06 251.013 270.936 249.721C271.544 248.825 271.803 247.725 271.809 246.643C271.833 243.087 270.212 239.713 264.249 239.128Z" fill="white"/>
<path d="M375.07 136.067C376.857 147.988 377.537 172.081 377.537 172.081C377.537 172.081 388.596 178.009 396.366 175.904C402.76 174.171 411.086 173.6 411.6 165.976C408.789 156.167 408.468 139.437 404.805 123.713C396.989 127.353 384.448 133.139 375.07 136.067Z" fill="white"/>
<path d="M378.178 171.676C380.058 172.62 389.501 177.088 396.196 175.275C397.19 175.004 398.248 174.759 399.269 174.521C404.778 173.241 410.474 171.917 410.941 166.044C409.57 161.204 408.809 154.893 407.929 147.593C407.068 140.455 406.096 132.395 404.349 124.644C397.732 127.725 385.173 133.524 375.796 136.521C377.386 147.672 378.082 168.577 378.178 171.676ZM392.652 177.011C385.45 177.011 377.618 172.864 377.229 172.656C377.024 172.545 376.892 172.333 376.885 172.1C376.878 171.859 376.185 147.909 374.425 136.163C374.378 135.844 374.569 135.539 374.876 135.444C384.574 132.416 398.052 126.139 404.529 123.121C404.708 123.039 404.913 123.04 405.09 123.127C405.266 123.212 405.396 123.373 405.44 123.564C407.317 131.623 408.33 140.025 409.224 147.437C410.105 154.737 410.865 161.043 412.228 165.796C412.248 165.869 412.256 165.944 412.252 166.02C411.782 172.953 405.292 174.461 399.565 175.792C398.508 176.037 397.509 176.269 396.537 176.533C395.298 176.869 393.986 177.011 392.652 177.011Z" fill="black"/>
<path d="M376.659 153.104C377.269 162.965 383.874 173.665 386.53 175.956C384.925 175.956 383.33 175.716 383.33 175.716C383.33 175.716 377.243 182.924 375.159 186.304C371.681 182.309 368.363 167.243 368.363 159.479C369.19 157.503 373.975 149.515 376.659 153.104Z" fill="white"/>
<path d="M369.016 159.612C369.052 167.069 372.027 180.547 375.119 185.168C377.52 181.596 382.602 175.569 382.832 175.295C382.979 175.123 383.206 175.037 383.428 175.071C383.439 175.072 384.084 175.168 384.952 175.237C381.852 171.516 376.643 162.229 376.023 153.351C375.576 152.836 375.163 152.816 374.884 152.851C372.847 153.103 369.878 157.657 369.016 159.612ZM375.16 186.956C374.972 186.956 374.792 186.875 374.668 186.732C370.895 182.4 367.711 166.911 367.711 159.479C367.711 159.392 367.73 159.307 367.762 159.227C368.426 157.643 371.718 151.927 374.724 151.556C375.39 151.473 376.356 151.608 377.183 152.713C377.259 152.815 377.304 152.936 377.311 153.063C377.91 162.725 384.424 173.279 386.958 175.463C387.164 175.64 387.238 175.928 387.143 176.183C387.048 176.439 386.804 176.608 386.531 176.608C385.342 176.608 384.174 176.483 383.6 176.411C382.474 177.756 377.523 183.715 375.715 186.647C375.607 186.823 375.42 186.937 375.214 186.953C375.196 186.956 375.178 186.956 375.16 186.956Z" fill="black"/>
<path d="M387.59 176.228C388.891 175.699 391.279 176.247 391.279 176.247C391.279 176.247 397.233 183.148 397.659 188.571C404.393 182.917 418.115 166.42 418.504 157.424C417.042 154.976 412.442 146.709 409.135 149.795C411.646 153.265 400.406 173.611 387.59 176.228Z" fill="white"/>
<path d="M391.459 175.62C391.581 175.655 391.69 175.725 391.773 175.821C392.005 176.088 397.057 181.993 398.134 187.295C405.295 180.891 417.31 165.884 417.842 157.587L417.689 157.327C416.527 155.361 413.442 150.14 410.979 149.785C410.607 149.731 410.275 149.795 409.957 149.984C410.473 151.465 409.803 153.816 409.094 155.639C406.59 162.064 399.621 171.869 391.459 175.62ZM397.659 189.223C397.574 189.223 397.489 189.207 397.407 189.172C397.182 189.077 397.029 188.865 397.009 188.621C396.641 183.928 391.811 177.909 390.925 176.839C390.367 176.731 389.359 176.593 388.547 176.673C388.273 176.745 387.997 176.811 387.721 176.867C387.393 176.933 387.063 176.739 386.966 176.416C386.867 176.093 387.033 175.751 387.345 175.623C387.635 175.505 387.962 175.432 388.302 175.389C397.202 173.011 405.187 162.069 407.878 155.164C408.997 152.292 408.989 150.705 408.607 150.177C408.414 149.911 408.45 149.543 408.69 149.317C409.418 148.639 410.25 148.36 411.166 148.493C414.247 148.937 417.33 154.156 418.811 156.663L419.065 157.089C419.13 157.199 419.162 157.325 419.157 157.452C418.769 166.415 405.289 183.017 398.079 189.071C397.959 189.171 397.81 189.223 397.659 189.223Z" fill="black"/>
<path d="M423.267 81.1266C421.986 89.5573 420.591 97.104 417.723 108.101C416.359 113.331 413.993 119.127 411.223 123.892C409.919 126.133 408.905 127.223 406.279 128.447C406.133 126.176 403.767 125.048 403.399 122.792C402.947 120.015 404.735 117.569 403.061 115.111C399.873 110.425 397.701 105.285 396.682 100.013C395.846 95.684 395.815 91.1293 397.858 87.1333C399.901 83.136 404.339 79.812 409.621 79.456C413.645 79.184 420.109 78.5866 423.267 81.1266Z" fill="#ACD4F7"/>
<path d="M415.088 79.848C413.392 79.848 411.715 79.964 410.3 80.0626L409.665 80.1066C404.957 80.424 400.552 83.2986 398.44 87.4293C396.719 90.796 396.353 94.872 397.323 99.8893C398.332 105.107 400.444 110.104 403.601 114.743C404.755 116.439 404.477 118.105 404.209 119.716C404.048 120.684 403.881 121.687 404.044 122.687C404.195 123.608 404.761 124.34 405.363 125.116C405.916 125.831 406.484 126.563 406.763 127.48C408.752 126.432 409.593 125.397 410.66 123.564C413.377 118.889 415.721 113.193 417.093 107.936C419.923 97.0853 421.297 89.7 422.564 81.416C420.757 80.1667 417.896 79.848 415.088 79.848ZM406.28 129.099C406.164 129.099 406.049 129.068 405.947 129.007C405.761 128.897 405.643 128.703 405.628 128.488C405.565 127.508 404.967 126.735 404.331 125.915C403.688 125.085 402.96 124.145 402.757 122.896C402.559 121.684 402.744 120.575 402.923 119.501C403.169 118.02 403.383 116.74 402.523 115.477C399.265 110.691 397.084 105.529 396.043 100.137C395.015 94.8226 395.419 90.472 397.277 86.836C399.595 82.304 404.423 79.152 409.577 78.8053L410.211 78.7613C414.3 78.4773 420.48 78.048 423.677 80.6186C423.857 80.7653 423.948 80.996 423.913 81.2253C422.623 89.7093 421.243 97.1906 418.355 108.265C416.956 113.632 414.563 119.447 411.788 124.22C410.476 126.476 409.409 127.707 406.555 129.037C406.468 129.079 406.373 129.099 406.28 129.099Z" fill="black"/>
<path d="M359.545 94.276C359.523 101.749 357.611 109.1 357.155 116.556C356.699 124.012 357.904 131.969 363.316 137.981C368.079 143.275 375.944 146.504 383.757 146.375C391.571 146.245 399.128 142.761 403.399 137.319C407.415 132.2 408.743 120.621 409.635 114.84C413.067 115.565 416.972 114.708 419.196 112.444C421.421 110.18 421.608 106.548 419.335 104.247C417.063 101.945 414.031 101.437 410.369 104.476C410.875 99.7 410.311 94.9773 410.063 92.8067C409.389 86.9147 409.759 78.248 405.827 75.5347C403.601 73.9987 398.809 72.4973 396.127 71.6387C391.491 70.1547 384.785 72.7653 379.863 72.476C374.94 72.188 369.775 74.2507 365.669 76.48C360.76 79.148 359.563 88.684 359.545 94.276Z" fill="white"/>
<path d="M360.196 94.2787C360.183 98.5427 359.555 102.816 358.947 106.948C358.482 110.108 358.002 113.376 357.804 116.596C357.263 125.475 359.279 132.523 363.799 137.545C368.452 142.716 376.111 145.864 383.746 145.723C391.387 145.596 398.72 142.221 402.884 136.916C406.38 132.46 407.831 122.593 408.696 116.699C408.8 115.993 408.896 115.336 408.988 114.74C409.016 114.563 409.115 114.405 409.263 114.303C409.41 114.201 409.592 114.165 409.768 114.201C413.128 114.912 416.73 114.021 418.73 111.987C420.78 109.901 420.842 106.703 418.87 104.705C416.551 102.357 413.831 102.449 410.784 104.977C410.58 105.147 410.295 105.176 410.06 105.051C409.827 104.925 409.692 104.671 409.72 104.407C410.207 99.804 409.682 95.2226 409.43 93.0213L409.414 92.88C409.272 91.6427 409.178 90.3093 409.079 88.8986C408.719 83.8106 408.312 78.044 405.456 76.072C403.391 74.6467 398.907 73.2133 396.228 72.356L395.927 72.26C393.339 71.432 389.939 71.9733 386.651 72.496C384.322 72.8666 381.914 73.2506 379.823 73.128C375.867 72.896 371.204 74.216 365.98 77.0533C361.743 79.3546 360.216 87.7707 360.196 94.2787ZM383.302 147.031C375.44 147.031 367.634 143.755 362.83 138.417C358.067 133.125 355.938 125.757 356.503 116.516C356.703 113.24 357.187 109.945 357.656 106.759C358.258 102.672 358.879 98.4453 358.892 94.2747C358.899 91.7893 359.248 79.2253 365.358 75.908C370.799 72.952 375.69 71.5826 379.9 71.8253C381.846 71.94 384.08 71.584 386.446 71.208C389.884 70.6613 393.442 70.0946 396.324 71.0173L396.626 71.1133C399.374 71.992 403.972 73.4626 406.196 74.9986C409.57 77.3253 410 83.4253 410.379 88.8067C410.478 90.2027 410.571 91.5226 410.71 92.732L410.726 92.872C410.958 94.8907 411.412 98.8666 411.14 103.093C414.278 101.044 417.315 101.275 419.798 103.789C422.276 106.299 422.216 110.301 419.66 112.901C417.499 115.101 413.758 116.148 410.178 115.601C410.116 116.008 410.054 116.439 409.987 116.888C409.046 123.301 407.622 132.993 403.911 137.721C399.511 143.329 391.791 146.895 383.767 147.027C383.612 147.029 383.456 147.031 383.302 147.031Z" fill="black"/>
<path d="M382.906 83.3027C382.176 86.6054 377.04 91.268 373.813 91.596C370.585 91.9227 369.374 90.4347 368.076 87.3387C365.21 89.876 363.062 92.464 360.14 93.5734C355.672 95.2694 350.144 92.472 348.665 87.7667C347.185 83.06 350.037 77.3507 354.586 75.9134C351.533 76.6427 348.484 73.552 348.422 70.2827C348.361 67.0134 350.654 64.0547 353.473 62.6187C356.29 61.184 359.54 61.0187 362.701 60.564C361.51 57.3947 363.018 53.58 365.65 51.5494C368.282 49.5187 371.762 49.0347 375.004 49.4334C377.132 49.6947 379.276 50.336 380.956 51.7213C382.636 53.1053 383.778 55.3333 383.688 57.7213C386.52 54.152 391.092 51.752 395.402 52.7853C399.714 53.8173 402.966 59.0854 403.292 62.7107C405.39 60.136 408.133 58.02 411.364 58.1947C417.776 58.54 419.222 63.9907 416.337 71.0014C419.75 69.3214 424.837 70.7907 426.46 75.7494C427.668 79.4427 426.313 85.3174 423.742 88.2067C421.17 91.0947 412.1 93.5587 405.753 89.02C402.228 86.4987 400.556 83.06 399.53 79.8307C397.653 83.0547 396.278 85.2747 391.574 86.816C388.142 87.9414 384.062 86.576 382.906 83.3027Z" fill="#ACD4F7"/>
<path d="M354.586 75.26C354.872 75.26 355.134 75.4507 355.214 75.7387C355.308 76.0773 355.117 76.4293 354.782 76.5347C350.59 77.86 347.919 83.2227 349.286 87.5707C349.955 89.7 351.568 91.516 353.711 92.556C355.739 93.54 357.998 93.6893 359.907 92.964C361.982 92.176 363.658 90.5853 365.599 88.744C366.25 88.1267 366.922 87.488 367.642 86.8506C367.8 86.7106 368.015 86.656 368.221 86.7027C368.425 86.7493 368.595 86.892 368.677 87.0866C369.918 90.0453 370.891 91.2347 373.746 90.9467C376.737 90.644 381.595 86.2053 382.27 83.1613C382.332 82.8773 382.576 82.6693 382.867 82.652C383.159 82.6346 383.424 82.8106 383.522 83.0853C384.598 86.1333 388.45 87.1533 391.371 86.196C395.943 84.6973 397.211 82.5187 398.966 79.5027C399.095 79.28 399.343 79.1533 399.6 79.1813C399.858 79.2093 400.074 79.3867 400.151 79.632C400.959 82.176 402.459 85.8626 406.132 88.4893C412.051 92.7226 420.778 90.5547 423.255 87.772C425.723 84.9987 426.955 79.3653 425.839 75.952C425.16 73.88 423.758 72.304 421.888 71.5173C420.16 70.7893 418.192 70.816 416.624 71.5866C416.382 71.7066 416.09 71.664 415.891 71.4787C415.692 71.2933 415.63 71.004 415.734 70.7533C417.38 66.7493 417.553 63.38 416.218 61.2653C415.282 59.7853 413.638 58.9707 411.329 58.8453C408.763 58.7067 406.223 60.1453 403.798 63.1226C403.63 63.328 403.354 63.412 403.1 63.3347C402.847 63.2573 402.666 63.0333 402.642 62.7693C402.351 59.5347 399.398 54.4133 395.25 53.4186C391.515 52.524 387.177 54.372 384.198 58.1267C384.023 58.348 383.723 58.4307 383.46 58.3333C383.196 58.236 383.024 57.9787 383.035 57.6973C383.112 55.6533 382.157 53.556 380.541 52.224C379.166 51.0907 377.275 50.3693 374.923 50.08C371.417 49.6507 368.266 50.3547 366.049 52.0653C363.465 54.0587 362.288 57.6133 363.311 60.3347C363.382 60.52 363.363 60.7267 363.263 60.896C363.162 61.0667 362.99 61.1813 362.794 61.2093C362.204 61.2947 361.612 61.3693 361.019 61.444C358.419 61.772 355.963 62.0827 353.768 63.2C351.388 64.412 349.015 67.068 349.074 70.2707C349.103 71.852 349.928 73.4587 351.227 74.464C352.234 75.244 353.374 75.5333 354.434 75.2787C354.484 75.2667 354.536 75.26 354.586 75.26ZM357.368 94.7213C355.951 94.7213 354.499 94.388 353.142 93.7293C350.676 92.5347 348.818 90.432 348.042 87.9613C346.711 83.728 348.594 78.8253 352.107 76.412C351.527 76.2147 350.962 75.908 350.429 75.496C348.826 74.2547 347.807 72.2613 347.77 70.2947C347.71 67.0333 349.882 63.716 353.177 62.0387C355.574 60.816 358.259 60.4773 360.857 60.1493C361.189 60.108 361.521 60.0667 361.854 60.0227C361.097 56.916 362.469 53.18 365.251 51.0333C367.742 49.1107 371.234 48.3133 375.082 48.7853C377.685 49.1053 379.8 49.9226 381.37 51.2173C382.891 52.4706 383.901 54.228 384.229 56.116C387.451 52.784 391.757 51.2413 395.554 52.1506C399.539 53.1053 402.775 57.416 403.705 61.2467C406.142 58.644 408.729 57.3987 411.398 57.5427C414.115 57.6907 416.163 58.736 417.321 60.5693C418.727 62.7947 418.762 66.076 417.447 69.908C419.039 69.512 420.806 69.6453 422.395 70.3147C424.618 71.2507 426.282 73.1093 427.079 75.5467C428.339 79.4 427.007 85.5187 424.229 88.64C421.541 91.66 412.105 94.3653 405.374 89.5506C402.005 87.1413 400.332 83.9533 399.372 81.38C397.816 83.948 396.148 86.0027 391.778 87.436C388.352 88.5587 384.746 87.4373 383.006 84.9173C381.372 88.236 376.951 91.9333 373.878 92.2453C370.604 92.5787 369.127 91.1773 367.842 88.4267C367.38 88.852 366.934 89.276 366.496 89.6893C364.539 91.548 362.69 93.3026 360.37 94.184C359.423 94.544 358.404 94.7213 357.368 94.7213Z" fill="black"/>
<path d="M366.477 105.096C366.373 104.177 367.074 103.344 368.045 103.235C369.016 103.124 369.888 103.78 369.992 104.7C370.097 105.619 369.394 106.452 368.424 106.563C367.453 106.672 366.582 106.016 366.477 105.096Z" fill="black"/>
<path d="M391.12 106.425C391.014 105.507 391.717 104.673 392.688 104.564C393.659 104.453 394.529 105.111 394.634 106.029C394.738 106.948 394.036 107.781 393.065 107.892C392.096 108.001 391.224 107.345 391.12 106.425Z" fill="black"/>
<path d="M383.791 135.373C383.025 135.373 382.259 135.277 381.513 135.08C381.164 134.988 380.957 134.631 381.049 134.283C381.141 133.935 381.5 133.727 381.847 133.819C384.728 134.58 387.963 133.573 389.897 131.313C390.132 131.039 390.543 131.007 390.817 131.241C391.091 131.476 391.123 131.887 390.888 132.161C389.136 134.208 386.468 135.373 383.791 135.373Z" fill="black"/>
<path d="M379.595 126.113C378.419 126.113 377.167 125.879 375.859 125.409C375.164 125.16 374.378 124.817 373.806 124.159C373.071 123.315 372.81 122.068 373.091 120.741C373.287 119.809 373.702 118.975 374.102 118.167L374.28 117.805C376.399 113.461 377.507 108.611 377.482 103.78C377.48 103.419 377.771 103.125 378.131 103.124C378.132 103.124 378.134 103.124 378.134 103.124C378.492 103.124 378.784 103.413 378.787 103.772C378.812 108.804 377.659 113.855 375.452 118.377L375.271 118.745C374.89 119.515 374.53 120.24 374.367 121.011C374.175 121.921 374.332 122.777 374.79 123.303C375.166 123.735 375.763 123.989 376.299 124.181C377.876 124.747 379.34 124.932 380.65 124.731C382.132 124.503 383.45 123.724 384.172 122.647C384.374 122.348 384.779 122.269 385.078 122.469C385.376 122.669 385.456 123.075 385.255 123.375C384.319 124.769 382.712 125.733 380.847 126.02C380.44 126.083 380.023 126.113 379.595 126.113Z" fill="black"/>
<path d="M409.976 108.928C409.948 108.928 409.918 108.927 409.889 108.923C409.533 108.876 409.281 108.548 409.328 108.191C409.596 106.161 409.696 105.077 409.877 103.109C409.911 102.751 410.224 102.484 410.586 102.52C410.945 102.552 411.209 102.871 411.177 103.229C410.993 105.213 410.893 106.307 410.622 108.361C410.578 108.689 410.298 108.928 409.976 108.928Z" fill="black"/>
<path d="M290.366 207.529C290.338 207.529 290.31 207.524 290.283 207.513C290.171 207.468 290.119 207.34 290.165 207.229C292.342 201.909 293.411 196.059 293.257 190.311C293.253 190.191 293.347 190.091 293.467 190.088C293.47 190.088 293.471 190.088 293.474 190.088C293.591 190.088 293.687 190.181 293.691 190.299C293.847 196.107 292.767 202.017 290.567 207.395C290.533 207.479 290.451 207.529 290.366 207.529Z" fill="black"/>
<path d="M298.299 196.819C298.285 196.819 298.268 196.817 298.252 196.813C298.134 196.787 298.061 196.671 298.088 196.553C298.553 194.508 298.682 192.413 298.474 190.327C298.462 190.208 298.55 190.101 298.669 190.089C298.787 190.079 298.895 190.164 298.906 190.284C299.119 192.417 298.987 194.559 298.511 196.649C298.489 196.751 298.399 196.819 298.299 196.819Z" fill="black"/>
</svg>
