<svg width="130" height="118" viewBox="0 0 130 118" fill="none" xmlns="http://www.w3.org/2000/svg">
<path d="M79.5032 41.8631C78.8967 41.3521 78.3047 40.8266 77.7247 40.2886C78.2722 40.2156 79.0042 39.3626 78.6007 38.9676C78.0582 38.4361 77.5162 37.9051 76.9737 37.3741C77.1172 37.4151 77.2597 37.4586 77.4052 37.4956C77.9287 37.6281 79.0382 36.6886 78.5052 36.1761C77.7692 35.4691 77.0332 34.7616 76.2972 34.0541C76.5842 34.1951 76.8722 34.3341 77.1617 34.4696C77.6872 34.7161 78.7872 33.5766 78.2652 33.1531C76.3632 31.6096 74.5562 29.9611 72.8452 28.2171C74.0007 28.9171 75.1247 29.6716 76.2122 30.4856C76.7892 30.9171 77.9082 29.5991 77.3502 29.1646C74.6907 27.0961 72.2197 24.8121 69.9552 22.3321C71.5372 23.3446 73.0542 24.4566 74.4992 25.6676C75.0447 26.1246 76.1587 24.7851 75.6092 24.3231C73.9872 22.9601 72.3652 21.5976 70.7432 20.2351C71.2207 20.4851 71.6982 20.7346 72.1752 20.9846C72.7497 21.2856 73.6637 20.2496 73.3197 19.7031C72.4672 18.3496 71.3152 17.2701 69.9522 16.5246C69.7972 15.9541 69.5667 15.4191 69.2137 14.9396C69.0487 14.7161 68.7182 14.4641 68.4452 14.2031C68.5592 13.9316 68.6152 13.6521 68.5742 13.5121C68.4787 13.1871 68.3067 13.0506 68.1062 13.0376C64.3442 9.90958 60.1897 7.31458 55.7202 5.31808C55.5007 5.22008 55.2532 5.31658 55.0462 5.49908C51.8157 4.21308 48.5852 2.92759 45.3552 1.64059C45.0172 1.50559 44.6632 1.83659 44.4697 2.22459C43.8947 1.90059 43.3212 1.57359 42.7507 1.24109C42.3712 1.02009 41.9577 1.54959 41.8267 2.05759C41.7037 2.03209 41.5807 2.00708 41.4577 1.98158C40.9512 1.87658 40.2732 2.64708 40.3902 3.17558C38.8787 2.70908 37.3667 2.24259 35.8552 1.77609C35.3362 1.61609 34.5347 2.74158 34.9052 3.16308C35.2247 3.52658 35.5447 3.88958 35.8637 4.25308C35.8357 4.26958 35.8082 4.28759 35.7802 4.30859C34.6667 3.79709 33.5717 3.24409 32.4987 2.64709C31.8517 2.28759 31.1367 3.73509 31.6662 4.17909C32.3327 4.73809 32.9997 5.29709 33.6662 5.85609C31.7427 5.17959 29.8817 4.33309 28.0987 3.32259C27.4732 2.96809 26.6357 4.39909 27.2112 4.82309C28.2662 5.60109 29.3212 6.37959 30.3762 7.15759C28.4602 6.66209 26.6262 5.88708 24.9092 4.84358C24.2957 4.47058 23.4417 5.90259 24.0087 6.33609C24.3067 6.56409 24.6047 6.79209 24.9027 7.01959C24.0197 6.72509 23.1367 6.43009 22.2537 6.13559C21.7112 5.95459 20.9582 7.11158 21.3317 7.55908C20.8097 7.35058 20.2937 7.12358 19.7847 6.87808C19.1622 6.57758 18.1512 7.77959 18.7247 8.26259C19.3962 8.82759 20.0677 9.39308 20.7387 9.95808C19.6667 9.66558 18.6097 9.31908 17.5682 8.91308C16.9687 8.67958 16.1707 9.87359 16.6092 10.3381C17.3007 11.0716 17.9922 11.8056 18.6837 12.5386C17.5007 12.2696 16.3307 11.9461 15.1742 11.5661C14.5902 11.3741 13.7397 12.5531 14.2302 13.0016C14.4652 13.2166 14.7002 13.4306 14.9352 13.6456C14.3782 13.4121 13.8212 13.1786 13.2642 12.9441C12.6737 12.6951 11.8182 13.8316 12.2372 14.3211C12.5827 14.7246 12.9392 15.1166 13.3062 15.4976C12.7932 15.3001 12.2807 15.1006 11.7672 14.9036C11.2502 14.7056 10.0927 15.6336 10.5882 16.1526C10.9242 16.5051 11.2672 16.8481 11.6177 17.1831C11.4062 17.1441 11.1937 17.1086 10.9797 17.0771C10.6162 17.0236 9.76669 17.6966 9.82919 18.1486C9.18869 18.0816 8.13325 18.7456 8.79575 19.1816C9.30825 19.5191 9.8352 19.8246 10.3732 20.1056C9.7512 19.8936 9.12971 19.6816 8.50821 19.4696C7.90171 19.2621 7.17173 20.5211 7.64023 20.9521C7.76023 21.0626 7.8802 21.1731 8.0007 21.2841C7.7452 21.1826 7.49021 21.0806 7.23471 20.9791C6.67321 20.7556 5.8062 22.0476 6.3317 22.4406C6.5967 22.6386 6.85425 22.8446 7.10825 23.0536C6.41025 22.7546 5.71171 22.4556 5.01321 22.1566C4.40921 21.8981 3.65073 23.1306 4.06723 23.5911C4.83423 24.4376 5.6012 25.2846 6.3682 26.1316C6.1522 26.0486 5.93625 25.9661 5.72025 25.8831C5.17425 25.6736 4.40223 26.7191 4.66873 27.1951C4.80823 27.4446 4.95973 27.6831 5.11673 27.9166C4.34023 27.4761 3.54124 27.0896 2.63174 27.0956C2.19274 27.0986 1.42119 28.0111 1.76669 28.4396C2.52869 29.3846 3.33125 30.2896 4.17075 31.1581C3.38325 30.7236 2.57224 30.3451 1.67374 30.1916C1.10724 30.0951 0.193737 31.1616 0.736237 31.6311C1.41024 32.2146 2.08372 32.7976 2.75772 33.3811C2.23022 33.5341 1.63174 34.4156 2.04874 34.7721C2.13774 34.8481 2.2267 34.9236 2.3157 34.9996C1.8292 35.2551 1.35872 35.9276 1.72122 36.2346C2.03322 36.4991 2.34575 36.7636 2.65775 37.0281C2.49225 36.9291 2.32721 36.8286 2.16171 36.7301C1.64421 36.4231 0.470688 37.6121 0.985688 37.9826C1.02469 38.0106 1.06474 38.0356 1.10324 38.0636L1.1022 38.0651C1.1107 38.0701 1.11923 38.0756 1.12723 38.0801C1.19123 38.1251 1.25621 38.1686 1.32071 38.2131C0.75721 38.3971 0.216729 38.9086 0.640229 39.2056C1.36323 39.7136 2.11419 40.1651 2.88919 40.5616C2.84069 40.7366 2.86724 40.8956 3.01724 40.9961C3.16124 41.0921 3.30321 41.1906 3.44571 41.2886C3.33871 41.2441 3.23119 41.1991 3.12369 41.1546C2.59619 40.9341 1.4887 41.9591 1.9877 42.4431C2.3912 42.8351 2.79471 43.2266 3.19821 43.6186C2.93521 43.5056 2.67069 43.3951 2.40469 43.2876C1.80619 43.0456 0.894737 43.9926 1.24924 44.5591C1.72274 45.3151 2.23873 46.0346 2.79123 46.7201C2.72623 46.6951 2.66221 46.6681 2.59671 46.6436C2.06521 46.4461 0.940219 47.2786 1.38022 47.8571C2.16472 48.8881 3.01174 49.8601 3.91324 50.7746C3.89524 50.7661 3.8777 50.7576 3.8602 50.7491C3.3602 50.5091 2.13222 51.4551 2.63022 51.9481C3.07372 52.3876 3.52519 52.8191 3.98019 53.2461C3.41169 53.3246 2.5662 54.1366 3.0267 54.4936C3.6332 54.9641 4.23923 55.4351 4.84573 55.9056C4.24123 55.6616 3.1757 56.7461 3.6727 57.1486C4.7177 57.9946 5.77673 58.8231 6.84573 59.6381C6.50023 59.9571 6.27621 60.4151 6.56271 60.6186C8.40571 61.9276 10.2482 63.2371 12.0907 64.5461C11.2902 64.1266 10.4902 63.7056 9.68973 63.2866C9.11373 62.9851 7.84424 64.0601 8.51224 64.5181C9.87524 65.4526 11.2492 66.3676 12.6342 67.2656C12.0747 67.4426 11.4672 67.9931 11.8902 68.2591C13.6327 69.3551 15.4422 70.3566 17.2987 71.2636C16.6652 71.3751 15.9017 72.0001 16.3957 72.3061C21.9432 75.7391 27.9677 78.3421 34.2492 80.0971C34.5412 80.1791 34.9457 79.8741 35.1772 79.5136C35.3312 79.5816 35.4847 79.6501 35.6387 79.7171C35.9897 79.8691 36.6022 79.4176 36.8117 78.9771C37.6947 79.4851 38.6367 79.8781 39.6907 80.0586C40.2447 80.1536 41.2582 79.2756 40.7602 78.7146C40.6842 78.6291 40.6067 78.5451 40.5307 78.4606C41.3452 78.7976 42.1757 79.1001 43.0217 79.3646C43.3107 79.4551 43.7377 79.2061 43.9992 78.8811C45.0837 79.3471 46.2412 79.6481 47.4382 79.7611C47.7517 79.7906 48.1952 79.4486 48.4242 79.0806C49.7507 79.2321 51.0792 79.3671 52.4097 79.4761C52.9072 79.5166 53.7687 78.5136 53.2892 78.0851C52.9037 77.7411 52.5182 77.3971 52.1327 77.0526C53.1577 77.3821 54.1797 77.7206 55.1987 78.0711C55.7247 78.2521 56.8277 77.1491 56.2717 76.7296C56.0827 76.5866 55.8932 76.4436 55.7042 76.3006C56.2457 76.1696 56.8887 75.2236 56.4192 74.8721C56.4012 74.8586 56.3832 74.8451 56.3652 74.8316C57.0027 74.9676 57.6397 75.1056 58.2777 75.2406C58.8512 75.3626 59.7527 74.2791 59.2277 73.8091C58.9562 73.5661 58.6782 73.3311 58.3977 73.1006C58.8957 73.1921 59.3957 73.2736 59.8992 73.3416C60.3652 73.4046 61.2882 72.4331 60.9552 72.0051C61.5452 72.0666 62.1372 72.1126 62.7332 72.1351C63.2912 72.1561 64.2092 71.1966 63.6507 70.6826C63.5302 70.5721 63.4072 70.4666 63.2837 70.3616C63.4522 70.3881 63.6207 70.4151 63.7892 70.4416C64.3347 70.5276 65.3167 69.4876 64.7522 69.0191C64.5867 68.8816 64.4177 68.7501 64.2472 68.6226C64.3572 68.6236 64.4667 68.6246 64.5767 68.6256C65.4972 68.8171 66.4252 68.9701 67.3537 69.0916C67.8062 69.1511 69.1667 68.4396 68.4937 67.9076C68.1662 67.6486 67.8362 67.3936 67.5057 67.1386C67.5697 67.1431 67.6337 67.1481 67.6977 67.1521C67.7572 67.1566 67.8177 67.1481 67.8777 67.1296C68.4642 67.2696 69.0562 67.3901 69.6567 67.4821C70.0952 67.5491 71.4942 66.7021 70.7742 66.2771C70.3752 66.0416 69.9762 65.8066 69.5772 65.5711C70.0807 65.3491 70.5682 64.8051 70.1347 64.4171C70.1042 64.3896 70.0727 64.3636 70.0422 64.3366C70.6217 64.4631 71.2012 64.5901 71.7807 64.7166C72.3117 64.8326 73.4492 63.9491 72.8337 63.4546C72.6907 63.3396 72.5477 63.2246 72.4047 63.1096C72.5077 63.1041 72.6107 63.0986 72.7137 63.0896C73.1782 63.0501 73.9327 62.2916 73.6407 61.7876C73.5032 61.5496 73.3397 61.3416 73.1602 61.1536C73.5827 61.2351 74.0077 61.3091 74.4367 61.3676C74.9462 61.4376 76.0102 60.2846 75.3742 59.9281C74.9862 59.7106 74.5977 59.4946 74.2097 59.2771C74.2532 59.1611 74.2577 59.0436 74.2102 58.9331C74.4157 58.9496 74.6212 58.9661 74.8267 58.9786C75.3917 59.0131 76.2482 57.9281 75.6677 57.4806C75.4147 57.2856 75.1572 57.0991 74.8967 56.9166C75.1127 56.6986 75.2472 56.4426 75.1587 56.2396C75.2437 56.2331 75.3302 56.2301 75.4152 56.2216C75.9397 56.1701 76.8482 54.9681 75.9892 54.8246C76.4132 54.5531 76.7977 54.0511 76.4787 53.7566C75.7647 53.0981 75.1382 52.3761 74.5992 51.5901C75.1832 51.7761 75.7672 51.9611 76.3512 52.1471C77.3057 52.4511 78.1322 52.7731 78.8377 51.8446C79.3977 51.1071 78.7597 50.8101 78.2027 51.0866C78.1177 51.0771 78.0262 51.0566 77.9327 51.0316C78.1322 50.7771 78.1967 50.4831 77.9357 50.2801C77.5907 50.0106 77.2542 49.7336 76.9242 49.4501C76.9942 49.4756 77.0632 49.5021 77.1337 49.5271C77.7002 49.7261 79.0032 48.7786 78.3002 48.2851C77.9057 48.0086 77.5307 47.7141 77.1692 47.4061C77.7192 47.4441 78.6272 46.5361 78.2027 46.1386C78.0157 45.9636 77.8247 45.7976 77.6307 45.6366C78.1822 45.6596 79.0477 44.7536 78.6252 44.3391C77.9222 43.6486 77.2512 42.9311 76.6092 42.1891C77.1867 42.5026 77.7647 42.8156 78.3422 43.1296C78.8547 43.4071 80.0117 42.2911 79.5032 41.8631ZM65.1412 15.3716C65.0992 15.3496 65.0567 15.3276 65.0142 15.3051C65.0692 15.3236 65.1237 15.3436 65.1782 15.3621C65.1652 15.3631 65.1537 15.3696 65.1412 15.3716ZM63.0442 11.3886C64.3477 12.2716 65.6127 13.2116 66.8367 14.2081C66.8287 14.2391 66.8222 14.2696 66.8187 14.2991C66.7547 14.8196 66.9987 15.1211 67.3457 15.4566C67.4367 15.5446 67.5147 15.6276 67.5982 15.7126C67.5232 15.7366 67.4482 15.7736 67.3752 15.8226C66.7762 15.6911 66.1772 15.5596 65.5777 15.4286C66.1582 15.3121 66.5952 14.1751 66.0652 13.8331C65.0342 13.1676 64.0037 12.5021 62.9727 11.8366C63.0252 11.6856 63.0512 11.5306 63.0442 11.3886ZM64.3367 15.0706C64.1357 15.0996 63.9257 15.2226 63.7542 15.3916C63.7337 15.2261 63.6632 15.0841 63.5222 15.0026C63.2127 14.8241 62.9037 14.6451 62.5947 14.4666C63.1737 14.6726 63.7552 14.8711 64.3367 15.0706ZM54.7402 7.21759C54.6927 7.28259 54.6507 7.35459 54.6132 7.43109C53.5062 6.91709 52.4047 6.39008 51.3112 5.84808C52.4542 6.30408 53.5972 6.76059 54.7402 7.21759ZM58.7682 11.1751C58.7772 11.1811 58.7867 11.1871 58.7957 11.1931C56.4637 10.2771 54.1542 9.30309 51.8702 8.26959C51.6342 8.16309 51.3907 8.29359 51.2037 8.51909C50.4427 8.11359 49.6777 7.72158 48.9067 7.34808C48.8872 7.25858 48.8522 7.18059 48.7947 7.12459C48.3612 6.70109 47.9277 6.27759 47.4942 5.85359C51.1742 7.78859 54.9352 9.56409 58.7682 11.1751ZM44.0177 4.79858C44.3037 5.07808 44.5897 5.35758 44.8757 5.63708C44.5242 5.51158 44.1707 5.39308 43.8157 5.28108C43.9162 5.13008 43.9887 4.96158 44.0177 4.79858ZM19.6257 72.3376C21.0992 72.9776 22.5972 73.5586 24.1147 74.0696C24.3187 74.1386 24.5737 74.0481 24.7977 73.8841C25.2652 74.1866 25.7307 74.4926 26.2047 74.7851C27.1102 75.3871 28.0172 75.9871 28.9232 76.5886C25.7327 75.3876 22.6312 73.9626 19.6257 72.3376ZM48.2832 77.5026C48.5322 77.2241 48.6557 76.8726 48.4392 76.6091C48.4572 76.5876 48.4752 76.5671 48.4922 76.5456C48.7597 76.6531 49.0297 76.7556 49.3007 76.8561C49.6257 77.1466 49.9502 77.4371 50.2752 77.7271C49.6112 77.6566 48.9467 77.5826 48.2832 77.5026ZM73.2387 42.9331C73.3192 43.1041 73.4042 43.2706 73.4912 43.4351C72.9672 43.4626 72.2352 44.1611 72.5227 44.6326C72.8082 45.1006 73.1157 45.5506 73.4427 45.9826C72.8967 45.8751 71.8252 46.5991 72.2302 47.0951C72.5242 47.4551 72.8277 47.8056 73.1377 48.1496C72.5427 48.2156 71.7137 48.8206 72.1677 49.1501C72.3877 49.3101 72.6117 49.4621 72.8372 49.6096C72.3777 49.7876 71.9142 50.2276 72.1022 50.6401C72.4817 51.4736 72.9297 52.2491 73.4522 52.9716C72.8567 52.8296 72.2607 52.6886 71.6647 52.5466C71.1492 52.4241 70.2282 53.2906 70.5977 53.7996C70.7782 54.0486 70.9647 54.2916 71.1552 54.5311C70.8967 54.5236 70.6387 54.5151 70.3827 54.5041C70.0157 54.4881 69.3917 55.1531 69.3377 55.6181C69.1762 55.8356 69.1142 56.0796 69.2747 56.2811C69.3352 56.3571 69.3972 56.4311 69.4587 56.5061C69.3252 56.4721 69.1907 56.4401 69.0577 56.4046C68.5737 56.2751 67.7122 57.2486 67.9622 57.6936C67.4007 57.6911 66.5492 58.7426 67.0412 59.0591C67.5512 59.3871 68.0592 59.7176 68.5672 60.0491C68.5472 60.0476 68.5272 60.0446 68.5072 60.0431C68.3117 60.0276 68.0137 60.1371 67.7592 60.3056C67.5452 60.2566 67.3292 60.2131 67.1107 60.1771C66.8947 60.1421 66.6172 60.2596 66.3827 60.4436C65.8102 60.4981 64.8987 61.4206 65.4912 61.7026C65.8167 61.8576 66.1462 62.0031 66.4782 62.1436C66.0292 62.2831 65.4322 62.7851 65.5142 63.1381C65.4292 63.1086 65.3437 63.0826 65.2587 63.0521C64.7487 62.8701 63.5237 63.9051 64.1767 64.2891C64.3887 64.4136 64.6012 64.5381 64.8132 64.6626C64.3437 64.4976 63.8752 64.3301 63.4072 64.1596C62.9227 63.9831 61.5917 64.8576 62.2302 65.3066C62.2942 65.3516 62.3577 65.3986 62.4217 65.4436C62.0987 65.7091 61.8307 66.1611 61.8752 66.4626C61.4302 66.3316 60.9857 66.1971 60.5412 66.0561C59.9427 65.8666 58.5182 66.6176 59.4977 67.0456C59.9242 67.2316 60.3562 67.4026 60.7932 67.5616C60.6202 67.8116 60.5247 68.1076 60.6067 68.3301C60.2107 68.2681 59.8147 68.2071 59.4187 68.1441C58.8057 68.0461 57.7782 69.3366 58.5617 69.6166C59.0682 69.7976 59.5522 70.0121 60.0187 70.2541C58.4972 69.9941 56.9997 69.6061 55.5347 69.0806C55.0537 68.9081 54.2782 69.8841 54.4507 70.3491C54.3572 70.3166 54.2632 70.2861 54.1702 70.2526C53.6212 70.0546 52.5942 71.3336 53.1657 71.6466C53.8832 72.0391 54.5772 72.4646 55.2512 72.9196C54.5577 72.7716 53.8652 72.6221 53.1717 72.4741C52.7812 72.3906 52.1822 72.9356 52.0722 73.4111C51.9442 73.3691 51.8162 73.3266 51.6887 73.2841C51.1607 73.1106 50.0712 74.2166 50.6292 74.6366C50.8062 74.7701 50.9832 74.9041 51.1607 75.0376C50.8547 74.9446 50.5477 74.8541 50.2412 74.7636C49.4052 74.0961 48.5227 73.4926 47.5902 72.9506C47.1822 72.7131 46.5217 73.1916 46.3262 73.6646C45.6557 73.3056 44.9962 72.9231 44.3517 72.5101C43.7642 72.1336 42.6442 73.2666 43.1682 73.7901C43.6952 74.3171 44.2222 74.8436 44.7497 75.3711C44.1637 75.2681 43.5772 75.1656 42.9912 75.0631C41.5792 74.5291 40.2087 73.8811 38.8877 73.1176C38.3682 72.8171 37.3132 73.9866 37.7897 74.4386C38.4162 75.0331 39.0422 75.6276 39.6682 76.2221C38.2882 75.5371 36.9637 74.7411 35.7007 73.8346C35.1207 73.4181 33.9517 74.6471 34.5002 75.0991C34.8962 75.4251 35.2852 75.7586 35.6692 76.0976C33.8227 74.6621 32.0597 73.0526 29.7782 72.4031C29.3037 72.2681 28.0172 73.1001 28.5702 73.6246C29.1347 74.1596 29.7057 74.6876 30.2817 75.2096C29.3587 74.7026 28.4472 74.1756 27.5462 73.6296C26.2477 72.7771 24.9497 71.9241 23.6527 71.0696C23.7227 70.8786 23.7107 70.7001 23.5572 70.5916C22.1132 69.5676 20.6707 68.5426 19.2272 67.5176C19.6612 67.1931 19.9842 66.5361 19.5322 66.2601C17.8577 65.2381 16.2097 64.1761 14.5837 63.0826C15.1117 62.8591 15.6982 62.1606 15.2727 61.8331C14.0437 60.8866 12.8182 59.9351 11.5927 58.9846C12.1237 58.7451 12.6082 58.0731 12.2252 57.7996C10.8322 56.8061 9.4832 55.7596 8.1752 54.6646C8.7067 54.9211 9.23773 55.1791 9.77023 55.4336C10.3652 55.7171 11.5227 54.5241 10.8362 54.1041C8.80221 52.8606 6.94871 51.3776 5.28671 49.6946C5.88171 50.0271 6.46522 50.3806 7.03372 50.7596C7.35122 50.9926 7.6752 51.2191 8.0062 51.4371C8.5152 51.7731 9.70124 50.5636 9.19424 50.1961C9.15524 50.1681 9.11574 50.1421 9.07724 50.1141L9.0787 50.1126C9.0427 50.0891 9.0077 50.0641 8.9722 50.0401C8.7672 49.8941 8.56124 49.7491 8.35324 49.6096C6.93324 48.5856 5.65071 47.4001 4.51871 46.0781C5.50821 46.5836 6.47724 47.1296 7.42374 47.7176C8.00674 48.0796 9.16972 46.9826 8.63272 46.4611C7.90822 45.7581 7.18419 45.0546 6.45969 44.3516C6.98319 44.5721 7.50723 44.7931 8.03073 45.0136C8.58273 45.2456 9.57274 44.1301 9.09024 43.6611C8.57024 43.1561 8.03322 42.6716 7.48422 42.2026C7.67022 42.2436 7.85671 42.2826 8.04471 42.3181C8.58071 42.4201 9.65674 41.4106 9.00424 40.9841C8.82024 40.8641 8.63473 40.7466 8.45023 40.6266C8.72973 40.3581 8.87722 40.0251 8.60172 39.7916C8.40172 39.6221 8.20174 39.4521 8.00174 39.2826C8.46774 39.0096 8.89624 38.3246 8.54074 38.0206C8.17324 37.7066 7.80523 37.3921 7.43723 37.0781C7.94473 36.8886 8.46674 36.0131 8.06674 35.6671C7.52774 35.2006 6.98873 34.7346 6.45023 34.2686C6.94523 34.4451 7.46074 34.5656 8.01224 34.5931C8.54224 34.6201 9.52769 33.6176 8.93069 33.1416C7.65569 32.1246 6.45024 31.0316 5.31674 29.8676C6.16324 30.3576 7.03424 30.7776 8.08524 30.6571C8.52724 30.6061 9.43973 29.5906 8.86423 29.2071C8.55873 29.0036 8.26975 28.7876 7.99625 28.5576C8.32475 28.6836 8.65322 28.8091 8.98172 28.9351C9.58522 29.1666 10.3817 27.9911 9.95224 27.5176C9.25874 26.7531 8.56524 25.9886 7.87174 25.2241C8.68774 25.5736 9.50373 25.9231 10.3197 26.2731C10.8277 26.4906 11.6697 25.3606 11.3342 24.9321C11.1377 24.6816 10.9352 24.4376 10.7297 24.1971C11.0302 24.3171 11.3307 24.4371 11.6307 24.5566C12.2247 24.7936 12.9697 23.5046 12.5057 23.0786C12.2442 22.8381 11.9822 22.5971 11.7207 22.3561C11.9287 22.4276 12.1362 22.4986 12.3437 22.5696C12.8302 22.7361 13.4457 21.8391 13.3177 21.3206C13.6627 21.4286 14.0102 21.5296 14.3637 21.6176C14.8792 21.7456 16.0682 20.8561 15.4392 20.3751C15.2232 20.2096 15.0057 20.0466 14.7897 19.8816C14.8762 19.9226 14.9637 19.9611 15.0502 20.0031C15.5747 20.2596 16.7112 19.0896 16.1777 18.7071C15.8702 18.4866 15.5682 18.2596 15.2702 18.0296C15.8862 18.2711 16.5017 18.5156 17.1187 18.7566C17.6547 18.9661 18.7102 17.7861 18.1612 17.3916C17.6267 17.0071 17.1097 16.6026 16.6077 16.1836C17.3367 16.4926 18.0662 16.8016 18.7962 17.1091C19.3767 17.3536 20.1802 16.0846 19.7092 15.6536C19.1292 15.1231 18.5492 14.5936 17.9697 14.0631C18.8692 14.2676 19.7757 14.4421 20.6902 14.5841C21.3147 14.6811 22.0617 13.6221 21.5902 13.1211C21.0797 12.5776 20.5692 12.0331 20.0587 11.4891C21.1842 11.7936 22.3267 12.0371 23.4837 12.2181C24.0452 12.3056 24.9682 11.2401 24.4152 10.7746C24.1312 10.5356 23.8477 10.2966 23.5637 10.0576C24.2187 10.2306 24.8802 10.3811 25.5522 10.5036C25.9937 10.5841 26.6237 9.87909 26.6037 9.37509C27.4632 9.66259 28.3227 9.95009 29.1827 10.2376C29.7277 10.4201 30.3787 9.31258 30.0822 8.83058C31.1792 9.09158 32.2992 9.26808 33.4352 9.35258C34.0272 9.39658 34.6577 8.28159 34.2027 7.83859C35.1292 8.12459 36.0677 8.37509 37.0197 8.58659C37.5487 8.70409 38.2147 7.44808 37.7922 7.09358C37.7482 7.05658 37.7037 7.01959 37.6597 6.98209C39.7952 7.80659 41.9892 8.47909 44.2307 8.99809C44.6452 9.09409 45.0547 8.46459 45.0927 7.95309C45.7477 8.13259 46.4082 8.29508 47.0732 8.44058C52.4117 10.8606 57.4177 14.3626 62.7822 16.5801C63.0202 16.6786 63.2612 16.5481 63.4452 16.3261C63.4717 16.3791 63.5057 16.4296 63.5572 16.4726C63.8527 16.7211 64.1482 16.9696 64.4442 17.2181C64.4912 17.4776 64.5502 17.7316 64.6237 17.9806C64.2327 17.8476 63.8522 17.6781 63.4787 17.4641C63.3307 17.3791 63.1672 17.3931 63.0112 17.4681C59.3722 14.8426 55.3902 12.7481 51.1567 11.2131C50.5407 10.9901 49.6802 12.4831 50.4372 12.7576C55.1152 14.4536 59.4817 16.8846 63.4047 19.9351C63.6632 20.1736 63.9392 20.3941 64.2397 20.5986C64.6252 20.8601 65.1502 20.3541 65.3167 19.8451C65.4272 19.8576 65.5382 19.8681 65.6507 19.8756C65.6577 19.8871 65.6607 19.9006 65.6692 19.9111C66.9457 21.5626 68.3067 23.1416 69.7447 24.6456C69.6272 24.5911 69.5107 24.5346 69.3927 24.4811C68.8182 24.2221 67.8992 25.3221 68.3197 25.8226C69.3512 27.0506 70.4282 28.2366 71.5467 29.3816C71.3922 29.2796 71.2367 29.1786 71.0837 29.0751C70.5897 28.7411 69.4567 29.8931 69.9292 30.3471C71.2012 31.5701 72.4732 32.7931 73.7452 34.0161C73.4862 33.8396 73.2307 33.6571 72.9817 33.4621C72.4227 33.0241 71.2377 34.1941 71.7532 34.6991C72.2812 35.2161 72.8092 35.7331 73.3372 36.2501C72.8332 36.4436 72.3097 37.1336 72.6347 37.5121C73.0122 37.9521 73.3987 38.3841 73.7912 38.8096C73.2292 38.7816 72.4702 39.6171 72.8002 40.0986C73.2022 40.6856 73.6222 41.2576 74.0562 41.8176C73.5817 41.9811 73.0622 42.5581 73.2387 42.9331Z" fill="#7497C1"/>
<path d="M61.4322 15.3091C58.3822 12.6791 54.9243 11.0566 51.1268 9.80707C47.6593 8.66607 44.0668 7.85957 40.4078 7.74457C38.6438 7.68907 36.8893 7.81358 35.1448 8.07308C23.8603 9.87808 14.4232 17.7851 10.1012 28.2931C7.98274 33.4441 7.0827 39.1016 7.6262 44.6521C8.2347 50.8706 10.6912 56.5791 14.3477 61.6096C16.7322 64.8896 19.6347 68.0841 23.2007 70.0991C26.5272 71.9786 30.3097 73.1161 34.0742 73.6911C41.6147 74.8431 49.4567 73.6551 56.1282 69.8931C68.7692 62.7656 75.2042 47.9901 72.2937 33.8566C70.8277 26.7416 66.9392 20.0581 61.4322 15.3091ZM59.1532 66.0396C53.3362 70.3216 46.2372 72.4211 39.0377 72.2691C31.5097 72.1101 23.9338 69.8126 18.5928 64.3216C14.1118 59.7151 10.6177 53.9176 9.2512 47.6011C8.1387 42.4591 8.44874 37.0796 9.98374 32.0581C13.0697 21.9661 21.1567 13.7131 31.3212 10.7506C32.6232 10.3711 33.9477 10.0831 35.2872 9.86908C38.7727 9.35008 42.3142 9.54208 45.7612 10.2396C49.2097 10.9371 52.7632 12.0161 55.9122 13.6036C62.3732 16.8611 67.3552 23.2196 69.8882 29.9156C74.7992 42.8961 70.3202 57.8191 59.1532 66.0396Z" fill="#1F1E21"/>
<path d="M128.924 103.195C128.219 101.751 127.046 100.811 125.839 99.8036L91.2413 70.9491C91.0428 70.7836 90.7868 71.0046 90.6688 71.1456C90.2423 71.6566 89.8158 72.1681 89.3898 72.6791C87.0738 70.5831 84.5717 68.6861 82.1622 66.7016C79.7842 64.7436 77.4633 62.6946 74.9948 60.8476C78.0853 54.9861 79.6818 48.2506 80.0108 41.7066C80.1078 39.7741 80.0873 37.8356 79.9428 35.9061C79.8348 34.4671 78.5612 35.2651 78.6442 36.3751C79.2207 44.0601 77.7408 52.0536 74.3078 58.9641C70.5643 66.4986 63.9977 71.7976 56.5637 75.4686C53.0232 77.2166 49.4123 78.6996 45.4793 79.2526C41.7298 79.7796 37.8808 79.6141 34.1528 79.0001C26.5648 77.7501 19.4548 74.3701 13.7833 69.1561C8.15578 63.9821 4.06925 57.2236 2.28675 49.7781C0.447755 42.0966 1.08374 33.9286 4.07624 26.6196C7.06124 19.3291 12.3078 13.1756 18.7308 8.66458C22.0258 6.35058 25.6507 4.48758 29.4982 3.28408C33.4347 2.05258 37.6208 1.98158 41.6973 2.38458C49.4373 3.15008 56.9063 5.62558 63.1893 10.2776C69.1543 14.6941 73.8223 20.8286 76.4693 27.7626C77.1373 29.5121 77.6527 31.3161 78.0557 33.1441C78.1492 33.5666 78.5107 33.8726 78.9097 33.6066C79.3312 33.3256 79.3623 32.5796 79.2673 32.1486C77.5858 24.5281 73.6833 17.4696 68.1203 11.9941C62.4328 6.39609 55.3268 2.76609 47.5458 1.11009C43.2528 0.196589 38.7748 -0.269914 34.3933 0.163586C30.2493 0.573586 26.3123 2.03609 22.6643 4.00659C15.4023 7.92959 9.16026 13.9001 5.13026 21.1196C-2.91924 35.5401 -1.41075 54.0061 9.05275 66.8111C14.0467 72.9231 20.8143 77.5281 28.3598 79.8541C35.8218 82.1546 44.4198 82.6501 51.8013 79.7866C56.7808 77.8546 61.6848 75.2611 65.8853 71.8626C68.1703 73.9211 70.5713 75.8546 72.9198 77.8371C75.2943 79.8401 77.5807 81.9906 80.0762 83.8471L79.2298 84.8621C78.8678 85.2961 78.9198 86.1066 79.3468 86.4631L94.5918 99.1776C98.8888 102.761 103.335 106.221 107.462 110.001C109.932 112.262 112.402 114.644 115.327 116.317C117.778 117.719 120.894 118.58 123.224 116.471C124.142 115.64 124.893 114.569 125.682 113.623L128.254 110.539C128.27 110.52 128.284 110.5 128.298 110.479C129.897 108.401 130.063 105.531 128.924 103.195ZM81.6353 68.7356C82.3263 69.3291 83.0143 69.9281 83.7028 70.5286C81.4403 70.0456 79.0353 70.0026 76.7803 69.9381C74.0668 69.8606 71.4148 69.7226 68.7468 69.2981C69.1793 68.8701 69.5992 68.4306 70.0092 67.9811C70.2237 67.9946 70.4728 67.9821 70.6773 67.8926C70.9668 67.9296 71.2858 68.0136 71.5253 68.0386C71.9598 68.0836 72.3938 68.1306 72.8288 68.1721C73.7553 68.2601 74.6828 68.3416 75.6093 68.4261C77.4638 68.5951 79.3188 68.7621 81.1738 68.9286C81.3238 68.9416 81.4883 68.8601 81.6353 68.7356ZM78.4973 66.1026C79.0858 66.5916 79.6743 67.0801 80.2608 67.5706C78.8028 67.4541 77.3447 67.3381 75.8867 67.2231C74.9147 67.1466 73.9422 67.0666 72.9697 66.9996C72.3192 66.9551 71.6403 66.8431 70.9808 66.8696C71.4023 66.3641 71.8077 65.8451 72.1992 65.3131C74.0057 65.6531 75.7683 66.1321 77.5368 66.6446C77.8398 66.7321 78.2793 66.4251 78.4973 66.1026ZM76.6622 64.5661C76.9057 64.7721 77.1497 64.9776 77.3942 65.1821C75.9357 64.7676 74.4417 64.4841 72.9412 64.2671C73.0207 64.1496 73.0992 64.0306 73.1777 63.9121C74.1372 64.2336 75.1508 64.5026 76.1088 64.7086C76.2478 64.7391 76.4607 64.6746 76.6622 64.5661ZM75.0427 63.1786C74.6352 63.0741 74.2272 62.9826 73.8217 62.8986C73.9282 62.7241 74.0358 62.5501 74.1398 62.3736C74.4408 62.6421 74.7387 62.9131 75.0427 63.1786ZM68.0493 71.3626C67.7768 71.1491 67.5002 70.9411 67.2252 70.7316C67.3837 70.5916 67.5352 70.4446 67.6912 70.3021C70.4082 71.0696 73.3668 71.0546 76.1543 71.1461C77.6498 71.1956 79.1467 71.2531 80.6342 71.4181C82.2722 71.5991 83.7883 72.0381 85.3773 72.4296C85.4943 72.4586 85.6453 72.4111 85.7943 72.3221C86.4473 72.8676 87.1078 73.4031 87.7838 73.9171C81.2193 73.0001 74.6218 72.2631 68.0538 71.3631C68.0518 71.3626 68.0503 71.3626 68.0493 71.3626ZM70.7883 73.5901C70.4478 73.3056 70.1067 73.0221 69.7642 72.7406C75.5427 73.7641 81.3932 74.7121 87.2277 75.2716L87.0637 75.4681C81.6312 75.8181 76.3322 74.1051 70.9592 73.5741C70.9062 73.5691 70.8483 73.5766 70.7883 73.5901ZM73.7747 76.0926C73.2777 75.6806 72.7833 75.2651 72.2883 74.8496C76.8363 75.6671 81.3532 76.9116 85.9882 76.7571L85.2218 77.6761C85.2208 77.6761 85.2203 77.6761 85.2193 77.6761C81.4168 77.6746 77.7837 77.3296 74.1912 76.0886C74.0727 76.0476 73.9247 76.0556 73.7747 76.0926ZM76.9263 78.6451C76.5743 78.3626 76.2228 78.0811 75.8718 77.7986C78.5928 78.5651 81.4557 78.9856 84.2537 78.8376L83.2683 80.0191C83.2543 79.9176 83.1743 79.8411 82.9928 79.8176C81.0903 79.5716 79.2768 79.1976 77.4113 78.7706C77.3128 78.6556 77.1293 78.6216 76.9263 78.6451ZM79.2313 80.5241C80.2208 80.7346 81.2323 80.9061 82.2393 80.9501C82.3348 80.9541 82.4498 80.9186 82.5678 80.8586C82.1553 81.3531 81.7428 81.8476 81.3303 82.3421C80.6443 81.7216 79.9428 81.1176 79.2313 80.5241ZM127.565 109.133C126.131 110.852 124.731 112.605 123.261 114.294C121.212 116.648 118.294 115.935 115.875 114.572C113.002 112.952 110.589 110.628 108.173 108.415C104.378 104.94 100.296 101.757 96.3447 98.4611L80.6583 85.3786C83.5148 81.9536 86.3707 78.5291 89.2272 75.1041C89.2867 75.0431 89.3413 74.9776 89.3903 74.9091L91.0263 72.9476L124.897 101.196C126.223 102.301 127.639 103.325 128.241 105.012C128.761 106.468 128.52 107.922 127.565 109.133Z" fill="#1F1E21"/>
<path d="M48.4872 63.0201C43.8297 64.8156 38.7217 65.5341 33.7892 64.5721C28.4992 63.5396 23.6173 60.5281 20.6373 55.9976C20.2953 55.4781 18.9633 56.1101 19.2778 56.6006C22.3073 61.3261 27.2442 64.5566 32.7057 65.7471C37.8857 66.8766 43.3098 66.2091 48.2388 64.3581C48.7553 64.1641 49.1592 62.7611 48.4872 63.0201Z" fill="#1F1E21"/>
</svg>
