<svg viewBox="0 0 144 91" fill="none" xmlns="http://www.w3.org/2000/svg">
<path d="M1.05575 14.1815C5.73975 13.9995 10.4472 14.1205 15.1337 14.1195C19.7752 14.1185 24.4167 14.123 29.0587 14.1245C38.2262 14.128 47.3932 14.1315 56.5602 14.135C75.0107 14.142 93.4612 14.1485 111.912 14.155C122.228 14.1585 132.545 14.1035 142.861 14.174C143.896 14.181 143.489 13.155 142.672 13.16C124.201 13.2685 105.727 13.1605 87.2562 13.157C68.7962 13.1535 50.3357 13.1495 31.8752 13.146C21.4247 13.144 10.9552 13.3185 0.507239 13.073C-0.586761 13.0475 0.321247 14.21 1.05575 14.1815Z" fill="#ECECED"/>
<path d="M142.672 29.204C124.202 29.3125 105.728 29.205 87.2567 29.201C68.7967 29.1975 50.3362 29.1935 31.8757 29.1905C21.4252 29.1885 10.9557 29.3635 0.507715 29.1175C-0.586785 29.0915 0.321219 30.254 1.05572 30.2255C5.73972 30.0435 10.4472 30.1645 15.1337 30.163C19.7752 30.162 24.4167 30.1665 29.0587 30.1685C38.2262 30.172 47.3932 30.1755 56.5602 30.1785C75.0107 30.1855 93.4612 30.192 111.912 30.199C122.228 30.2025 132.545 30.1475 142.861 30.218C143.896 30.2255 143.489 29.199 142.672 29.204Z" fill="#ECECED"/>
<path d="M142.672 45.2485C124.202 45.357 105.728 45.249 87.2567 45.2455C68.7967 45.242 50.3362 45.2385 31.8757 45.235C21.4252 45.233 10.9557 45.408 0.507715 45.162C-0.586785 45.136 0.321219 46.2985 1.05572 46.27C5.73972 46.088 10.4472 46.209 15.1337 46.208C19.7752 46.207 24.4167 46.2115 29.0587 46.213C38.2262 46.2165 47.3932 46.22 56.5602 46.223C75.0107 46.2295 93.4612 46.2365 111.912 46.243C122.228 46.2465 132.545 46.192 142.861 46.2625C143.896 46.2695 143.489 45.2435 142.672 45.2485Z" fill="#ECECED"/>
<path d="M142.672 60.7375C124.202 60.846 105.728 60.7385 87.2567 60.7345C68.7967 60.731 50.3362 60.727 31.8757 60.724C21.4252 60.722 10.9557 60.8965 0.507715 60.651C-0.586785 60.6255 0.321219 61.788 1.05572 61.7595C5.73972 61.5775 10.4472 61.6985 15.1337 61.697C19.7752 61.6955 24.4167 61.7005 29.0587 61.702C38.2262 61.7055 47.3932 61.709 56.5602 61.7125C75.0107 61.7195 93.4612 61.726 111.912 61.7325C122.228 61.736 132.545 61.6815 142.861 61.752C143.896 61.759 143.489 60.733 142.672 60.7375Z" fill="#ECECED"/>
<path d="M142.672 76.782C124.202 76.8905 105.728 76.7825 87.2567 76.779C68.7967 76.7755 50.3362 76.772 31.8757 76.768C21.4252 76.766 10.9557 76.941 0.507715 76.6955C-0.586785 76.6695 0.321219 77.832 1.05572 77.8035C5.73972 77.6215 10.4472 77.7425 15.1337 77.7415C19.7752 77.7405 24.4167 77.745 29.0587 77.747C38.2262 77.7505 47.3932 77.754 56.5602 77.757C75.0107 77.764 93.4612 77.7705 111.912 77.777C122.228 77.7805 132.545 77.7255 142.861 77.7965C143.896 77.8035 143.489 76.7775 142.672 76.782Z" fill="#ECECED"/>
<path d="M142.797 0.051501C125.074 0.051501 107.35 0.0514989 89.6263 0.0274989C84.5943 0.0204989 79.5628 0.0115061 74.5308 0.000506078C73.9278 -0.000993922 73.0738 1.1785 74.0043 1.1805C91.7308 1.22 109.457 1.22951 127.183 1.23101C131.726 1.23151 136.27 1.23151 140.813 1.23151C137.907 7.84951 127.331 32.28 125.064 37.8435C122.746 43.5335 117.229 66.228 116.428 68.693C114.516 57.947 110.862 41.1565 107.048 30.973C105.876 27.8445 104.613 24.7535 103.27 21.7005C103.071 21.248 102.156 21.4415 101.931 21.768C95.8293 30.63 92.3888 41.0065 89.1598 51.2845C86.2283 47.012 83.3378 42.689 80.2298 38.558C79.9353 38.1665 78.6753 38.053 79.1258 38.768C79.1363 38.784 79.1468 38.8 79.1568 38.816C78.5868 39.258 78.5143 40.461 78.3238 41.1325C78.0228 42.1905 77.7103 43.245 77.3858 44.296C76.7518 46.347 76.0723 48.3825 75.3483 50.401C74.1693 53.6865 72.8643 56.92 71.4573 60.106C68.7973 55.637 66.1743 51.1445 63.6028 46.6195C62.1633 44.0865 60.7368 41.545 59.3233 38.995C57.9228 36.4685 56.5998 33.8635 55.0923 31.402C55.1598 31.233 55.0398 31.0955 54.8423 31.008C54.5223 30.6535 53.5213 30.436 53.7403 31.0735C53.7093 31.1 53.6818 31.129 53.6598 31.162C46.9558 41.19 41.5328 52.114 37.5428 63.601C36.1493 60.088 29.9348 54.9225 28.0218 51.682C28.0373 51.668 28.0528 51.6535 28.0678 51.639C28.5803 51.17 27.3673 50.83 26.8868 51.109C26.8778 51.114 26.8698 51.119 26.8613 51.125C26.8433 51.137 26.8258 51.1495 26.8103 51.164C17.9068 59.298 14.2858 70.0775 7.0018 79.8035C5.4118 81.9265 3.88429 84.093 2.37079 86.272C2.37079 75.7465 2.37079 65.221 2.37079 54.696C2.37079 43.0985 2.37079 31.5005 2.37079 19.903C2.37079 13.679 2.37079 7.45501 2.37079 1.23101C20.5238 1.23101 38.6768 1.2305 56.8298 1.207C62.0163 1.2 67.2033 1.19151 72.3898 1.18001C72.9928 1.17851 73.8463 -0.00199746 72.9163 2.53841e-06C54.4563 0.0400025 35.9963 0.0490127 17.5363 0.0510127C12.3388 0.0515127 7.14131 0.051501 1.9438 0.051501C1.4768 0.051501 0.990298 0.513006 0.990298 0.972506C0.990298 12.5245 0.990298 24.0765 0.990298 35.629C0.990298 47.2265 0.990298 58.8245 0.990298 70.4225C0.990298 76.3795 0.990298 82.337 0.990298 88.2945C0.958298 88.3825 0.962298 88.469 0.990298 88.5515C0.990298 89.0395 0.990298 89.5275 0.990298 90.0155C0.990298 90.229 1.2658 90.2745 1.4173 90.2745C4.7113 90.2745 8.00579 90.273 11.2998 90.212C11.9008 90.201 12.7548 89.0145 11.8263 89.032C8.6748 89.0905 5.5233 89.0935 2.3713 89.094C2.3713 88.996 2.3713 88.898 2.3713 88.8C8.98879 78.526 25.0378 54.446 27.2708 52.38C29.2948 56.0545 35.5598 61.68 36.9608 65.658C37.1098 66.081 38.1563 66.3615 38.3298 65.837C42.2368 54.025 47.6488 42.7945 54.3988 32.469C55.5408 34.7895 56.8383 37.0455 58.0738 39.3045C59.4933 41.9005 60.9278 44.488 62.3773 47.0655C65.1258 51.9535 67.9228 56.812 70.7718 61.638C70.6873 61.824 70.6038 62.011 70.5188 62.197C70.2558 62.771 71.4903 63.57 71.7428 63.0285C71.7698 62.971 71.7958 62.9125 71.8228 62.8545C72.3243 62.907 72.9643 62.635 72.7258 62.2375C72.6088 62.042 72.4933 61.846 72.3763 61.6505C73.8978 58.295 75.2863 54.8755 76.5428 51.4025C77.2333 49.494 77.8838 47.57 78.4933 45.632C78.8143 44.612 79.1238 43.5885 79.4218 42.561C79.5563 42.0985 79.6878 41.6355 79.8178 41.172C79.8668 40.996 79.9383 40.576 80.0358 40.1895C82.8273 44.5135 85.8148 48.7135 88.7178 52.953C88.9673 53.3175 89.9553 53.478 90.1268 52.927C93.3123 42.6925 96.5808 32.2805 102.41 23.3055C106.841 33.583 110.309 44.2975 112.744 55.276C113.461 58.5095 114.85 68.0115 115.39 71.2815C115.416 71.4405 115.536 71.532 115.695 71.572C115.949 72.029 116.774 72.3635 116.919 71.921C120.819 60.0405 124.282 42.0785 129.23 30.6225C130.491 27.7015 139.111 8.1075 141.843 2.194C141.843 24.047 141.843 45.9005 141.843 67.754C141.843 74.1125 141.843 80.471 141.843 86.8295C141.843 87.467 143.224 86.7795 143.224 86.1675C143.224 63.8975 143.224 41.628 143.224 19.358C143.224 13.0095 143.224 6.661 143.224 0.312503C143.225 0.0965025 142.949 0.051501 142.797 0.051501Z" fill="#1F1E21"/>
<path d="M140.484 88.9415C124.203 89.14 107.919 89.1805 91.6368 89.162C75.2748 89.143 58.9128 89.0655 42.5508 89.0305C33.3663 89.011 24.1813 89.0055 14.9968 89.031C14.3938 89.0325 13.5403 90.214 14.4703 90.211C30.7658 90.166 47.0618 90.2195 63.3573 90.272C79.7153 90.3245 96.0738 90.3765 112.432 90.3245C121.607 90.2955 130.783 90.233 139.957 90.121C140.559 90.114 141.413 88.93 140.484 88.9415Z" fill="#1F1E21"/>
<path d="M75.1022 63.124C75.3122 62.5825 75.3648 61.992 75.2583 61.422C75.0033 60.0545 74.0307 58.5805 72.4122 58.344C72.4052 58.3395 72.3978 58.335 72.3908 58.3305C72.4153 58.2595 72.3882 58.175 72.3212 58.1115C72.1692 57.9675 71.8702 57.952 71.6597 58.0035C70.3912 58.315 68.8962 58.74 68.4357 60.118C67.9792 61.485 68.0332 63.1175 69.1377 64.141C70.2117 65.1355 72.0697 65.4725 73.3877 64.8815C73.5227 64.821 73.6507 64.7535 73.7717 64.681C73.8382 64.675 73.9017 64.6625 73.9562 64.643C74.1627 64.5705 74.2467 64.453 74.2667 64.3185C74.5692 64.0505 74.8067 63.739 74.9777 63.402C75.1077 63.36 75.1842 63.284 75.1282 63.1755L75.1022 63.124ZM74.0083 63.4165C73.8183 62.9355 73.6167 62.458 73.4212 61.979C73.2857 61.6465 73.1538 61.313 73.0303 60.977C73.4008 61.702 73.7712 62.4265 74.1412 63.1515C74.1022 63.2415 74.0573 63.33 74.0083 63.4165ZM74.3097 61.591C74.0797 61.1465 73.8503 60.702 73.6203 60.2575C73.5028 60.0305 73.3927 59.7575 73.2652 59.483C73.8367 60.041 74.1857 60.864 74.3097 61.591ZM68.8728 61.224C68.8783 61.1155 68.8938 61.0115 68.9143 60.9095C69.2138 61.537 69.5277 62.1585 69.8612 62.772C70.1057 63.2215 70.3382 63.74 70.6287 64.206C69.5677 63.539 68.8168 62.346 68.8728 61.224ZM71.9187 64.669C71.8732 64.5665 71.8213 64.465 71.7673 64.3645C71.8338 64.4675 71.9013 64.569 71.9703 64.6705C71.9528 64.67 71.9357 64.6705 71.9187 64.669ZM72.8162 64.4265C71.9727 63.053 71.1642 61.694 70.5387 60.2215C70.4627 60.043 70.2492 59.8995 70.0232 59.882C69.8662 59.8695 69.6032 59.9235 69.6752 60.114C70.1282 61.308 70.6612 62.499 71.3147 63.6265C71.1312 63.349 70.9447 63.0745 70.7837 62.7985C70.3652 62.0805 69.9713 61.3525 69.5953 60.616C69.5358 60.4995 69.2982 60.409 69.0892 60.387C69.4682 59.619 70.2947 59.0885 71.2167 58.7495C71.2622 58.799 71.3462 58.8325 71.4777 58.8315C71.5767 59.3745 71.7208 59.907 71.8933 60.433C71.6333 59.9655 71.3077 59.537 70.8137 59.2545C70.4387 59.0405 69.9652 59.3625 70.4087 59.628C70.8127 59.87 70.9733 60.412 71.1578 60.7925C71.3703 61.23 71.5722 61.6715 71.7837 62.1095C72.1607 62.891 72.5787 63.6545 73.1087 64.363C73.0397 64.4055 72.9692 64.445 72.8957 64.4795C72.8732 64.46 72.8462 64.4425 72.8162 64.4265Z" fill="#CA5227"/>
<path d="M41.4378 66.501C41.1823 65.1335 40.2098 63.6595 38.5918 63.423C38.5848 63.4185 38.5778 63.414 38.5703 63.41C38.5948 63.339 38.5678 63.2545 38.5008 63.191C38.3488 63.047 38.0498 63.0315 37.8393 63.083C36.5708 63.3945 35.0763 63.8195 34.6158 65.1975C34.1593 66.5645 34.2128 68.197 35.3178 69.2205C36.3918 70.215 38.2498 70.552 39.5683 69.961C39.7033 69.9005 39.8313 69.8335 39.9523 69.7605C40.0188 69.7545 40.0823 69.742 40.1368 69.7225C40.3433 69.65 40.4273 69.533 40.4473 69.398C40.7498 69.13 40.9873 68.8185 41.1583 68.482C41.2888 68.4405 41.3648 68.364 41.3088 68.2555L41.2818 68.2035C41.4918 67.662 41.5443 67.0715 41.4378 66.501ZM35.0518 66.3035C35.0573 66.195 35.0728 66.091 35.0933 65.989C35.3928 66.6165 35.7068 67.238 36.0403 67.852C36.2848 68.301 36.5168 68.82 36.8078 69.286C35.7468 68.618 34.9963 67.425 35.0518 66.3035ZM38.0978 69.7485C38.0523 69.646 38.0008 69.5445 37.9463 69.444C38.0128 69.547 38.0808 69.6485 38.1493 69.75C38.1323 69.7495 38.1153 69.7495 38.0978 69.7485ZM39.0753 69.559C39.0528 69.5395 39.0258 69.522 38.9958 69.506C38.1528 68.133 37.3438 66.7735 36.7183 65.3005C36.6423 65.122 36.4288 64.9785 36.2023 64.961C36.0453 64.9485 35.7823 65.0025 35.8543 65.193C36.3073 66.3875 36.8403 67.578 37.4938 68.7055C37.3103 68.428 37.1238 68.1535 36.9628 67.8775C36.5443 67.1595 36.1503 66.431 35.7743 65.695C35.7148 65.5785 35.4773 65.488 35.2683 65.466C35.6473 64.698 36.4738 64.168 37.3953 63.829C37.4408 63.8785 37.5248 63.912 37.6563 63.911C37.7553 64.454 37.8993 64.9865 38.0718 65.5125C37.8113 65.0445 37.4863 64.616 36.9923 64.334C36.6178 64.12 36.1438 64.442 36.5873 64.7075C36.9913 64.9495 37.1518 65.491 37.3368 65.8715C37.5493 66.309 37.7513 66.7505 37.9628 67.1885C38.3398 67.97 38.7578 68.7335 39.2878 69.442C39.2188 69.4845 39.1488 69.5245 39.0753 69.559ZM40.1873 68.496C39.9973 68.015 39.7963 67.5375 39.6008 67.0585C39.4653 66.726 39.3333 66.3925 39.2098 66.057C39.5803 66.7815 39.9503 67.5065 40.3213 68.2315C40.2813 68.321 40.2363 68.409 40.1873 68.496ZM39.7993 65.3365C39.6818 65.1095 39.5718 64.8365 39.4443 64.562C40.0163 65.1205 40.3648 65.9435 40.4888 66.67C40.2593 66.2255 40.0293 65.781 39.7993 65.3365Z" fill="#AA3030"/>
<path d="M119.113 71.9585C119.323 71.417 119.375 70.8265 119.269 70.2565C119.014 68.889 118.041 67.415 116.423 67.1785C116.416 67.174 116.409 67.17 116.402 67.1655C116.426 67.0945 116.399 67.01 116.332 66.9465C116.18 66.8025 115.881 66.787 115.671 66.8385C114.402 67.1495 112.907 67.575 112.447 68.953C111.991 70.32 112.044 71.9525 113.149 72.976C114.223 73.9705 116.081 74.3075 117.399 73.7165C117.535 73.656 117.662 73.5885 117.783 73.516C117.85 73.51 117.913 73.4975 117.968 73.478C118.174 73.4055 118.258 73.2885 118.278 73.153C118.581 72.885 118.818 72.5735 118.989 72.237C119.119 72.1955 119.196 72.119 119.14 72.0105L119.113 71.9585ZM112.883 70.059C112.889 69.9505 112.904 69.8465 112.925 69.7445C113.224 70.372 113.538 70.9935 113.872 71.6075C114.116 72.0565 114.348 72.5755 114.639 73.0415C113.578 72.3735 112.827 71.1805 112.883 70.059ZM115.929 73.504C115.883 73.4015 115.832 73.3005 115.777 73.1995C115.844 73.3025 115.911 73.404 115.98 73.5055C115.963 73.505 115.946 73.505 115.929 73.504ZM116.906 73.314C116.884 73.2945 116.857 73.277 116.827 73.261C115.983 71.8875 115.175 70.5285 114.549 69.0555C114.473 68.877 114.26 68.734 114.033 68.716C113.876 68.7035 113.613 68.758 113.685 68.948C114.138 70.1425 114.671 71.333 115.325 72.4605C115.141 72.183 114.955 71.9085 114.794 71.6325C114.375 70.915 113.981 70.1865 113.605 69.45C113.546 69.3335 113.308 69.243 113.099 69.221C113.478 68.453 114.305 67.923 115.226 67.584C115.272 67.6335 115.356 67.667 115.487 67.666C115.586 68.2095 115.73 68.7415 115.903 69.2675C115.643 68.7995 115.318 68.371 114.823 68.089C114.448 67.875 113.975 68.197 114.418 68.4625C114.822 68.7045 114.983 69.2465 115.167 69.627C115.379 70.0645 115.582 70.506 115.793 70.944C116.17 71.7255 116.588 72.489 117.118 73.1975C117.05 73.2395 116.979 73.28 116.906 73.314ZM118.018 72.251C117.828 71.77 117.627 71.2925 117.432 70.813C117.296 70.4805 117.164 70.147 117.041 69.8115C117.411 70.536 117.782 71.261 118.152 71.986C118.113 72.076 118.068 72.1645 118.018 72.251ZM117.631 69.092C117.513 68.865 117.403 68.5915 117.276 68.3175C117.847 68.876 118.196 69.699 118.32 70.4255C118.09 69.981 117.86 69.5365 117.631 69.092Z" fill="#AA3030"/>
<path d="M57.6478 31.9135C57.8578 31.372 57.9103 30.7815 57.8038 30.211C57.5483 28.8435 56.5763 27.37 54.9583 27.1335C54.9513 27.129 54.9438 27.1245 54.9368 27.12C54.9613 27.049 54.9338 26.9645 54.8673 26.901C54.7158 26.757 54.4163 26.7415 54.2058 26.7935C52.9373 27.1045 51.4423 27.53 50.9823 28.908C50.5258 30.275 50.5793 31.9075 51.6843 32.931C52.7583 33.9255 54.6163 34.2625 55.9343 33.6715C56.0693 33.611 56.1973 33.5435 56.3183 33.471C56.3848 33.465 56.4483 33.4525 56.5028 33.433C56.7093 33.3605 56.7933 33.243 56.8133 33.1085C57.1158 32.8405 57.3533 32.529 57.5243 32.1925C57.6543 32.1505 57.7307 32.0745 57.6747 31.966L57.6478 31.9135ZM56.5533 32.206C56.3633 31.725 56.1618 31.2475 55.9663 30.7685C55.8308 30.436 55.6987 30.1025 55.5757 29.7665C55.9462 30.4915 56.3168 31.216 56.6868 31.941C56.6478 32.031 56.6028 32.1195 56.5533 32.206ZM56.8553 30.3805C56.6253 29.936 56.3958 29.4915 56.1658 29.047C56.0483 28.82 55.9383 28.5465 55.8108 28.2725C56.3823 28.8305 56.7313 29.6535 56.8553 30.3805ZM51.4182 30.0135C51.4237 29.905 51.4393 29.801 51.4598 29.699C51.7593 30.3265 52.0733 30.948 52.4068 31.5615C52.6513 32.011 52.8833 32.5295 53.1743 32.9955C52.1133 32.3285 51.3622 31.1355 51.4182 30.0135ZM54.4643 33.459C54.4188 33.3565 54.3667 33.255 54.3127 33.1545C54.3792 33.257 54.4473 33.359 54.5158 33.4605C54.4983 33.4595 54.4813 33.46 54.4643 33.459ZM55.3618 33.216C54.5183 31.8425 53.7097 30.4835 53.0842 29.0105C53.0082 28.832 52.7948 28.6885 52.5688 28.671C52.4118 28.6585 52.1488 28.7125 52.2208 28.903C52.6738 30.097 53.2067 31.288 53.8602 32.4155C53.6767 32.138 53.4903 31.8635 53.3293 31.5875C52.9108 30.8695 52.5168 30.1415 52.1408 29.405C52.0813 29.2885 51.8438 29.198 51.6348 29.176C52.0138 28.408 52.8403 27.878 53.7623 27.5385C53.8078 27.588 53.8918 27.6215 54.0233 27.6205C54.1223 28.1635 54.2663 28.696 54.4388 29.222C54.1788 28.7545 53.8533 28.326 53.3593 28.0435C52.9843 27.8295 52.5108 28.1515 52.9538 28.417C53.3578 28.659 53.5182 29.201 53.7027 29.5815C53.9152 30.019 54.1173 30.4605 54.3288 30.8985C54.7063 31.68 55.1238 32.4435 55.6543 33.152C55.5853 33.1945 55.5148 33.234 55.4413 33.2685C55.4188 33.2495 55.3918 33.232 55.3618 33.216Z" fill="#547CB5"/>
<path d="M105.785 23.0315C105.995 22.49 106.047 21.8995 105.941 21.329C105.685 19.9615 104.713 18.4875 103.095 18.251C103.088 18.2465 103.081 18.2425 103.074 18.238C103.098 18.167 103.071 18.0825 103.004 18.019C102.852 17.875 102.553 17.8595 102.343 17.911C101.074 18.2225 99.5792 18.6475 99.1192 20.0255C98.6627 21.3925 98.7162 23.025 99.8212 24.0485C100.895 25.043 102.753 25.38 104.071 24.789C104.206 24.7285 104.334 24.661 104.455 24.5885C104.522 24.5825 104.585 24.57 104.64 24.5505C104.846 24.478 104.93 24.3605 104.95 24.226C105.253 23.958 105.49 23.6465 105.661 23.31C105.791 23.268 105.868 23.1915 105.812 23.0835L105.785 23.0315ZM104.69 23.3235C104.5 22.8425 104.299 22.365 104.103 21.886C103.968 21.5535 103.836 21.22 103.713 20.884C104.083 21.609 104.454 22.3335 104.824 23.0585C104.784 23.149 104.74 23.237 104.69 23.3235ZM104.992 21.498C104.762 21.0535 104.532 20.609 104.302 20.1645C104.185 19.9375 104.075 19.6645 103.947 19.39C104.519 19.9485 104.868 20.7715 104.992 21.498ZM99.5552 21.1315C99.5607 21.023 99.5762 20.919 99.5967 20.817C99.8962 21.4445 100.21 22.066 100.544 22.6795C100.788 23.129 101.02 23.6475 101.311 24.1135C100.25 23.446 99.4992 22.253 99.5552 21.1315ZM102.601 24.5765C102.555 24.474 102.503 24.3725 102.449 24.272C102.516 24.375 102.583 24.4765 102.652 24.578C102.635 24.5775 102.618 24.5775 102.601 24.5765ZM103.499 24.334C102.655 22.9605 101.847 21.6015 101.221 20.129C101.145 19.9505 100.932 19.807 100.706 19.7895C100.549 19.777 100.286 19.831 100.358 20.0215C100.811 21.2155 101.344 22.4065 101.997 23.534C101.814 23.2565 101.627 22.982 101.466 22.706C101.048 21.988 100.654 21.26 100.278 20.5235C100.218 20.407 99.9807 20.3165 99.7717 20.2945C100.151 19.5265 100.977 18.9965 101.899 18.657C101.945 18.7065 102.029 18.74 102.16 18.739C102.259 19.282 102.403 19.8145 102.576 20.3405C102.316 19.873 101.99 19.4445 101.496 19.162C101.121 18.948 100.648 19.27 101.091 19.5355C101.495 19.7775 101.656 20.3195 101.84 20.6995C102.053 21.137 102.255 21.5785 102.466 22.0165C102.844 22.798 103.261 23.5615 103.792 24.27C103.723 24.3125 103.652 24.352 103.579 24.3865C103.555 24.367 103.529 24.3495 103.499 24.334Z" fill="#66AFA4"/>
<path d="M83.7362 40.334C83.9462 39.7925 83.9987 39.202 83.8927 38.6315C83.6372 37.2645 82.6653 35.79 81.0473 35.554C81.0403 35.5495 81.0327 35.545 81.0257 35.541C81.0502 35.4695 81.0228 35.385 80.9558 35.3215C80.8043 35.1775 80.5048 35.1625 80.2948 35.214C79.0263 35.525 77.5313 35.9505 77.0708 37.3285C76.6143 38.695 76.6682 40.328 77.7727 41.3515C78.8467 42.346 80.7047 42.683 82.0227 42.0915C82.1582 42.031 82.2857 41.964 82.4067 41.891C82.4732 41.885 82.5368 41.8725 82.5913 41.8535C82.7978 41.781 82.8817 41.6635 82.9017 41.5285C83.2042 41.2605 83.4418 40.949 83.6123 40.6125C83.7428 40.5705 83.8192 40.4945 83.7627 40.386L83.7362 40.334ZM77.5068 38.434C77.5123 38.3255 77.5278 38.2215 77.5483 38.1195C77.8478 38.747 78.1618 39.3685 78.4953 39.982C78.7398 40.4315 78.9722 40.95 79.2627 41.4165C78.2012 40.7485 77.4508 39.556 77.5068 38.434ZM80.5523 41.879C80.5068 41.7765 80.4547 41.675 80.4007 41.5745C80.4672 41.6775 80.5352 41.7795 80.6037 41.8805C80.5867 41.88 80.5698 41.88 80.5523 41.879ZM81.5292 41.689C81.5067 41.6695 81.4797 41.652 81.4502 41.636C80.6067 40.2625 79.7983 38.9035 79.1723 37.431C79.0968 37.2525 78.8827 37.109 78.6567 37.091C78.4997 37.0785 78.2368 37.133 78.3088 37.323C78.7613 38.517 79.2943 39.708 79.9483 40.835C79.7653 40.5575 79.5782 40.283 79.4172 40.007C78.9987 39.2895 78.6047 38.561 78.2287 37.825C78.1692 37.7085 77.9318 37.618 77.7228 37.596C78.1018 36.8275 78.9282 36.2975 79.8497 35.9585C79.8952 36.008 79.9798 36.0415 80.1108 36.0405C80.2098 36.584 80.3538 37.116 80.5263 37.642C80.2663 37.1745 79.9413 36.746 79.4468 36.4635C79.0718 36.2495 78.5982 36.5715 79.0412 36.8375C79.4452 37.0795 79.6057 37.621 79.7902 38.002C80.0027 38.4395 80.2047 38.881 80.4162 39.3185C80.7932 40.1005 81.2113 40.8635 81.7413 41.572C81.6738 41.615 81.6027 41.655 81.5292 41.689ZM82.6417 40.626C82.4517 40.145 82.2503 39.6675 82.0548 39.1885C81.9193 38.856 81.7873 38.5225 81.6643 38.1865C82.0348 38.9115 82.4047 39.636 82.7752 40.361C82.7357 40.4515 82.6912 40.5395 82.6417 40.626ZM82.2537 37.467C82.1367 37.24 82.0263 36.9665 81.8988 36.6925C82.4708 37.251 82.8197 38.0735 82.9432 38.8005C82.7137 38.356 82.4837 37.9115 82.2537 37.467Z" fill="#7497C1"/>
<path d="M30.7198 51.0615C30.4643 49.6945 29.4923 48.2205 27.8743 47.984C27.8673 47.9795 27.8598 47.975 27.8528 47.971C27.8773 47.8995 27.8503 47.8155 27.7833 47.7515C27.6313 47.6075 27.3323 47.5925 27.1223 47.644C25.8533 47.9555 24.3588 48.3805 23.8983 49.7585C23.4418 51.1255 23.4953 52.7585 24.6003 53.7815C25.6743 54.776 27.5323 55.113 28.8508 54.522C28.9858 54.461 29.1138 54.394 29.2348 54.3215C29.3013 54.3155 29.3648 54.3025 29.4193 54.2835C29.6258 54.211 29.7098 54.094 29.7298 53.959C30.0323 53.691 30.2698 53.3795 30.4408 53.043C30.5713 53.001 30.6478 52.925 30.5913 52.8165L30.5643 52.7645C30.7738 52.2225 30.8263 51.6325 30.7198 51.0615ZM24.3338 50.864C24.3393 50.7555 24.3548 50.6515 24.3753 50.5495C24.6748 51.177 24.9888 51.7985 25.3223 52.412C25.5663 52.8615 25.7988 53.38 26.0898 53.8465C25.0293 53.179 24.2783 51.986 24.3338 50.864ZM27.3798 54.3095C27.3343 54.207 27.2828 54.106 27.2283 54.005C27.2948 54.108 27.3628 54.2095 27.4313 54.311C27.4143 54.3105 27.3973 54.3105 27.3798 54.3095ZM28.3573 54.1195C28.3348 54.1 28.3078 54.0825 28.2778 54.0665C27.4343 52.693 26.6258 51.334 26.0003 49.861C25.9243 49.6825 25.7108 49.539 25.4848 49.521C25.3278 49.509 25.0648 49.5625 25.1368 49.753C25.5898 50.9475 26.1228 52.138 26.7763 53.2655C26.5928 52.9885 26.4063 52.7135 26.2453 52.438C25.8268 51.72 25.4328 50.9915 25.0568 50.2555C24.9973 50.139 24.7598 50.0485 24.5508 50.0265C24.9298 49.2585 25.7563 48.7285 26.6778 48.389C26.7233 48.4385 26.8073 48.472 26.9388 48.4715C27.0373 49.0145 27.1818 49.547 27.3543 50.073C27.0938 49.6055 26.7688 49.177 26.2748 48.895C25.8998 48.6805 25.4263 49.003 25.8693 49.2685C26.2733 49.5105 26.4333 50.052 26.6183 50.433C26.8308 50.8705 27.0328 51.312 27.2443 51.75C27.6213 52.5315 28.0393 53.295 28.5693 54.0035C28.5008 54.045 28.4308 54.085 28.3573 54.1195ZM29.4693 53.0565C29.2788 52.5755 29.0778 52.098 28.8823 51.619C28.7468 51.2865 28.6148 50.953 28.4913 50.617C28.8618 51.342 29.2323 52.0665 29.6028 52.7915C29.5633 52.8815 29.5183 52.97 29.4693 53.0565ZM29.0813 49.8975C28.9638 49.6705 28.8538 49.3975 28.7263 49.123C29.2983 49.6815 29.6468 50.5045 29.7708 51.231C29.5413 50.7865 29.3113 50.3415 29.0813 49.8975Z" fill="#7497C1"/>
<path d="M45.7927 21.5495C45.0552 21.6125 44.3172 21.684 43.5797 21.761C43.5587 21.2815 43.5242 20.805 43.4622 20.338C43.4452 20.211 43.2272 20.3835 43.2162 20.4535C43.1452 20.897 43.1037 21.3535 43.0792 21.814C42.4042 21.886 41.7297 21.961 41.0567 22.038C40.9342 22.052 40.6562 22.3925 40.8617 22.386C41.5932 22.3645 42.3277 22.328 43.0612 22.2775C43.0412 23.0355 43.0632 23.798 43.0927 24.5315C43.1027 24.777 43.6502 24.4595 43.6417 24.22C43.6187 23.568 43.6162 22.9015 43.5967 22.2365C44.2592 22.184 44.9207 22.1215 45.5777 22.041C45.7942 22.014 46.1687 21.5175 45.7927 21.5495Z" fill="#6F7072"/>
<path d="M49.8597 21.869C50.2947 21.585 50.5902 21.098 50.5027 20.5195C50.3122 19.2615 48.9117 19.2095 48.1207 19.8505C47.9377 19.999 48.0592 20.1675 48.2472 20.023C48.7542 19.632 49.4312 19.666 49.8192 20.16C50.1432 20.572 50.3907 21.809 49.1967 21.6585C48.9937 21.633 48.5787 22.0875 48.8737 22.1325C49.4157 22.2145 49.8937 22.5075 50.1617 23.0165C50.3732 23.418 50.4887 23.661 49.8987 23.69C49.5712 23.706 49.2417 23.579 48.9397 23.4665C48.7112 23.3815 48.2112 23.866 48.4657 23.9695C49.0887 24.224 50.5402 24.512 50.8702 23.621C51.1432 22.885 50.5212 22.2035 49.8597 21.869Z" fill="#6F7072"/>
<path d="M55.5567 21.823C55.0442 21.741 54.4812 21.8125 53.9497 21.8505C53.9802 21.784 54.0098 21.7165 54.0408 21.65C54.2368 21.225 54.4333 20.8 54.6293 20.375C54.7063 20.2085 55.0403 19.745 54.9698 19.5285C54.8473 19.1515 54.3417 19.2775 54.0202 19.272C53.2487 19.259 52.4737 19.2585 51.7042 19.3205C51.5377 19.334 51.2922 19.6855 51.4907 19.7015C52.1167 19.735 52.7447 19.7325 53.3712 19.75C53.5827 19.756 53.9952 19.6745 54.1652 19.7755C54.3992 19.7305 54.4288 19.8525 54.2543 20.1405L54.0267 20.6195C53.8282 21.038 53.6212 21.4555 53.4147 21.874C52.9192 21.888 52.4232 21.893 51.9292 21.9345C51.8267 21.943 51.5582 22.22 51.7547 22.2455C52.1962 22.3025 52.6817 22.3455 53.1757 22.362C52.8667 22.997 52.5677 23.6365 52.3097 24.289C52.1582 24.6725 52.7397 24.385 52.8372 24.2045C53.1582 23.609 53.4377 22.9875 53.7162 22.367C54.2857 22.36 54.8492 22.311 55.3502 22.192C55.4482 22.1685 55.8072 21.863 55.5567 21.823Z" fill="#6F7072"/>
<path d="M56.6152 23.5815C56.5742 23.425 56.4777 23.377 56.3692 23.391C56.1317 23.2175 55.7762 23.412 55.6287 23.639C55.4202 23.96 55.6382 24.392 56.0252 24.35C56.3482 24.3145 56.7087 23.94 56.6152 23.5815Z" fill="#6F7072"/>
<path d="M61.2927 19.7085C61.2867 19.5125 61.0022 19.6515 60.8422 19.808C60.8892 19.0255 59.9727 18.81 59.3752 19.206C58.3967 19.8545 58.1752 21.525 58.3372 22.6105C58.5022 23.718 59.4047 24.2085 60.2657 23.4025C61.1292 22.593 61.3272 20.824 61.2927 19.7085ZM60.3247 22.3785C60.3032 22.755 60.0962 22.9325 59.7037 22.9105C59.3332 23.214 59.1072 23.1495 59.0257 22.7165C58.8182 22.1775 58.8672 21.532 58.9532 20.973C58.9887 20.7425 59.0492 20.227 59.1702 20.0415C59.4962 19.8385 59.8222 19.636 60.1482 19.433C60.4362 19.568 60.5512 19.805 60.4927 20.145C60.4692 20.27 60.6122 20.2215 60.7142 20.142C60.6527 20.643 60.6087 21.1435 60.5062 21.6395C60.4547 21.888 60.3987 22.1365 60.3247 22.3785Z" fill="#6F7072"/>
<path d="M64.7683 18.872C64.0763 18.8975 63.3852 18.9395 62.6942 18.99C62.4902 19.0045 62.2697 19.2275 62.2672 19.437C62.2592 20.1545 62.1312 21.0385 62.2887 21.7385C62.3047 21.81 62.3522 21.828 62.4142 21.8445C62.6392 21.9045 63.2823 21.8105 63.3738 21.8585C63.8993 22.2015 63.8107 22.666 63.1072 23.2525C62.9397 23.277 62.7717 23.2905 62.6027 23.293C62.4117 23.302 61.9657 23.81 62.2982 23.836C63.2442 23.9095 64.5677 23.1815 64.3607 22.014C64.2677 21.489 63.8717 21.258 63.3972 21.2015C62.9882 21.1525 62.9882 21.3685 62.8897 20.825C62.8137 20.406 62.8522 19.924 62.8727 19.472C63.4452 19.3865 64.0168 19.2965 64.5873 19.1955C64.6893 19.1775 64.9653 18.865 64.7683 18.872Z" fill="#6F7072"/>
<path d="M93.8547 12.447C93.0722 12.3555 92.2737 12.2875 91.4772 12.2775C91.4662 11.542 91.4427 10.8065 91.4422 10.083C91.4422 9.93001 91.0937 10.1195 91.0892 10.2485C91.0652 10.9175 91.0202 11.598 90.9832 12.279C90.5697 12.2875 90.1577 12.3115 89.7497 12.3615C89.6557 12.373 89.3987 12.6435 89.5847 12.656C90.0442 12.687 90.5027 12.7085 90.9602 12.731C90.9247 13.4925 90.9072 14.253 90.9522 15C90.9652 15.219 91.3987 14.933 91.4122 14.7845C91.4727 14.1175 91.4852 13.4385 91.4817 12.758C92.1627 12.7945 92.8427 12.841 93.5247 12.93C93.7387 12.958 94.1497 12.4815 93.8547 12.447Z" fill="#6F7072"/>
<path d="M97.6847 12.323C97.5972 12.304 97.5092 12.2895 97.4202 12.2765C97.4852 11.551 97.5338 10.824 97.5678 10.0955C97.5803 9.83301 97.2452 10.029 97.1587 10.111C96.4507 10.78 95.9087 11.5605 95.5202 12.467C95.4897 12.5385 95.4992 12.652 95.5987 12.6515C96.0232 12.6485 96.4512 12.653 96.8762 12.6275C96.8062 13.1675 96.7082 14.0615 96.8872 14.062C96.7647 14.062 96.5092 14.206 96.5502 14.3685C96.5562 14.3915 96.5618 14.415 96.5678 14.438C96.6108 14.61 96.8452 14.482 96.9227 14.426C97.3662 14.108 97.3012 13.458 97.3537 12.957C97.3672 12.831 97.3782 12.705 97.3902 12.5785C97.4447 12.571 97.4992 12.5645 97.5537 12.5555C97.6257 12.5435 97.8367 12.3555 97.6847 12.323ZM97.0372 10.717C97.0077 11.2215 96.9732 11.726 96.9282 12.2295C96.6402 12.214 96.3507 12.214 96.0642 12.211C96.3227 11.6595 96.6447 11.164 97.0372 10.717Z" fill="#6F7072"/>
<path d="M101.953 9.9755C101.401 9.939 100.25 9.733 99.8242 10.247C99.3122 10.8655 99.4882 12.453 99.5342 13.209C99.5372 13.26 99.5962 13.2945 99.6387 13.2975C99.9517 13.317 100.199 13.1245 100.484 13.1225C101.506 13.1145 101.154 15.399 99.7882 14.967C99.6107 14.911 99.1472 15.274 99.3807 15.3995C100.626 16.0695 101.688 14.4965 101.626 13.35C101.579 12.476 101.177 12.6145 100.559 12.6795C100.056 12.7325 100.129 12.6045 100.043 12.253C99.9906 12.0395 100.048 11.276 100.112 11.0065C100.306 10.178 101.111 10.341 101.817 10.2165C101.888 10.2035 102.109 9.986 101.953 9.9755Z" fill="#6F7072"/>
<path d="M103.552 13.2445C103.524 13.125 103.354 13.2115 103.302 13.253C103.258 13.287 103.219 13.3245 103.181 13.364C103.12 13.383 103.04 13.452 103.023 13.4855C102.976 13.574 102.948 13.672 102.933 13.7735C102.885 13.9195 102.87 14.0765 102.9 14.238C102.909 14.2825 102.931 14.303 102.96 14.3085C102.97 14.346 102.98 14.383 102.992 14.4185C103.032 14.541 103.211 14.436 103.261 14.3755C103.523 14.0575 103.649 13.658 103.552 13.2445Z" fill="#6F7072"/>
<path d="M108.53 14.1495C107.676 13.751 106.727 14.237 105.826 14.229C106.606 13.228 107.655 11.822 107.462 10.5075C107.288 9.31951 105.91 10.3465 105.575 10.875C105.487 11.0145 105.673 10.992 105.737 10.9195C106.031 10.478 106.474 10.4715 107.066 10.9C107.049 11.084 107.018 11.265 106.975 11.4445C106.872 11.871 106.697 12.258 106.49 12.638C106.138 13.283 105.688 13.857 105.232 14.4255C105.165 14.508 105.149 14.657 105.28 14.675C106.265 14.811 107.198 14.406 108.189 14.571C108.333 14.5945 108.744 14.249 108.53 14.1495Z" fill="#6F7072"/>
<path d="M110.479 12.227C111.118 11.6285 111.894 10.606 111.215 10.0735C110.761 9.717 109.446 10.317 109.717 10.9445C109.767 11.0605 110.023 10.8535 110.004 10.751C110.082 10.6485 110.159 10.546 110.236 10.443C110.873 10.676 111.059 10.9795 110.795 11.3545C110.653 11.755 110.254 12.094 109.922 12.297C109.818 12.36 109.559 12.728 109.858 12.6745C110.331 12.5905 110.792 12.6875 111.09 13.109C111.491 13.675 111.098 14.5815 110.361 14.4285C110.191 14.3935 109.795 14.8065 110.004 14.87C110.733 15.091 111.568 14.661 111.773 13.8705C112.024 12.906 111.291 12.281 110.479 12.227Z" fill="#6F7072"/>
<path d="M115.323 10.11C115.336 9.9345 115.187 9.96851 115.052 10.059C115.087 10.015 115.108 9.96351 115.09 9.92351C114.341 8.21451 112.479 10.7165 112.59 11.7745C112.667 12.5095 113.177 12.8185 113.794 12.445C114.165 12.2205 114.465 11.8905 114.707 11.5135C114.653 12.059 114.607 12.605 114.562 13.151C114.53 13.5405 114.237 14.604 114.529 14.9095C114.601 14.984 114.731 14.95 114.807 14.9005C114.827 14.888 114.846 14.875 114.866 14.8625C114.966 14.7975 115.152 14.6435 115.073 14.4975C115.065 14.4825 115.056 14.4675 115.048 14.452C115.026 14.4115 114.989 14.396 114.946 14.3975C115.176 14.0295 115.126 12.5365 115.145 12.283C115.199 11.558 115.271 10.8345 115.323 10.11ZM113.079 11.6335C112.897 10.7665 114.023 8.9095 114.835 10.1245C114.86 10.1615 114.905 10.16 114.952 10.1385C114.897 10.1895 114.855 10.2445 114.843 10.2875C114.699 10.817 113.399 13.1565 113.079 11.6335Z" fill="#6F7072"/>
<path d="M68.4288 30.269C67.6998 30.265 66.9738 30.2305 66.2478 30.1965C66.2778 29.66 66.3003 29.124 66.3028 28.588C66.3033 28.4845 66.1063 28.629 66.0938 28.686C65.9848 29.177 65.9023 29.6755 65.8353 30.1775C65.3968 30.1575 64.9583 30.139 64.5183 30.1305C64.4358 30.129 64.1468 30.359 64.2958 30.406C64.7653 30.5535 65.2638 30.6485 65.7708 30.7065C65.6743 31.578 65.6208 32.4565 65.5723 33.325C65.5473 33.617 66.0748 33.353 66.0818 33.1365C66.1073 32.341 66.1648 31.545 66.2148 30.7485C66.8713 30.796 67.5328 30.7875 68.1588 30.75C68.3353 30.7395 68.7118 30.2705 68.4288 30.269Z" fill="#6F7072"/>
<path d="M73.6758 32.367C72.8838 32.4005 72.1083 32.468 71.3168 32.4435C71.9578 31.357 73.4913 30.02 72.8923 28.6615C72.4848 27.737 70.8873 28.072 71.2383 29.0755C71.2913 29.2265 71.5278 29.0185 71.5268 28.912C71.7028 28.774 71.8788 28.636 72.0548 28.498C72.1598 28.5925 72.2648 28.6865 72.3698 28.781C72.5498 29.049 72.5513 29.4295 72.4993 29.7365C72.4178 30.2195 72.1413 30.645 71.8608 31.029C71.4523 31.5885 71.0123 32.1035 70.6918 32.7265C70.6478 32.8125 70.6753 32.9255 70.7798 32.9335C71.6733 33 72.5873 33.0185 73.4693 32.8375C73.6578 32.7985 74.0523 32.351 73.6758 32.367Z" fill="#6F7072"/>
<path d="M76.1073 30.264C76.7588 29.7855 77.3633 29.053 76.8398 28.378C76.3198 27.7075 74.8133 28.122 74.5538 28.874C74.5458 28.8965 74.5293 28.948 74.5533 28.9695C74.5848 28.9975 74.6163 29.026 74.6478 29.054C74.7273 29.1255 74.9613 28.9805 74.9173 28.8725C74.7558 28.4755 76.1168 28.484 76.2583 28.612C77.0143 29.297 75.9863 30.073 75.3908 30.3085C75.1853 30.39 74.9533 30.84 75.3213 30.7165C75.5378 30.6435 75.8963 30.7065 76.0933 30.828C76.4548 31.051 76.5448 31.334 76.2958 31.6735C76.0343 32.03 75.6813 32.1175 75.2993 32.3045C75.1193 32.3925 74.9728 32.7835 75.2948 32.668C75.9083 32.448 77.0483 32.178 77.0373 31.3075C77.0308 30.7175 76.5998 30.3605 76.1073 30.264Z" fill="#6F7072"/>
<path d="M83.5947 30.323C83.1372 30.286 82.6752 30.2795 82.2132 30.2855C82.3527 29.562 82.4677 28.833 82.5572 28.0975C82.5952 27.784 82.1513 28.088 82.0838 28.1735C81.4618 28.9615 80.8393 29.749 80.2168 30.5365C80.1638 30.6035 80.1262 30.7865 80.2642 30.7815C80.7112 30.7665 81.1603 30.7555 81.6098 30.738C81.4628 31.443 81.2963 32.144 81.1058 32.84C81.0508 33.041 81.3398 32.986 81.4198 32.932C81.6793 32.7575 81.8448 32.598 81.9833 32.3095C82.0693 32.1305 81.9323 32.1195 81.7883 32.1695C81.9133 31.6865 82.0258 31.201 82.1268 30.7135C82.5663 30.69 83.0043 30.656 83.4393 30.5995C83.5268 30.5895 83.7722 30.337 83.5947 30.323ZM80.8208 30.324C81.1923 29.859 81.5632 29.3945 81.9347 28.9295C81.8642 29.387 81.7857 29.8425 81.6977 30.2955C81.4047 30.304 81.1123 30.315 80.8208 30.324Z" fill="#6F7072"/>
<path d="M85.9838 27.6395C85.9828 27.496 85.7433 27.622 85.7078 27.6485C85.3763 27.8965 85.0418 28.1395 84.7093 28.386C84.5738 28.4865 84.6068 28.692 84.7878 28.576C85.0523 28.4065 85.3128 28.231 85.5723 28.0535C85.5268 28.903 85.4678 29.751 85.3618 30.5955C85.2618 31.3935 85.0298 32.201 85.0268 33.004C85.0263 33.199 85.3873 32.941 85.4173 32.859C85.9918 31.276 85.9938 29.3175 85.9838 27.6395Z" fill="#6F7072"/>
<path d="M91.0842 31.216C89.8307 31.334 88.5982 31.6525 87.4192 32.1055C87.7942 31.2085 88.7083 30.911 89.1618 30.09C89.4758 29.521 89.3468 28.3765 88.9953 27.8605C88.4548 27.067 87.7127 28.5085 87.6507 29.01C87.6342 29.146 87.8527 29.017 87.8747 28.95C87.8922 28.679 88.0453 28.54 88.3323 28.5325C88.5898 28.2765 88.7272 28.2745 88.7457 28.5265C88.8532 28.6575 88.8987 29.106 88.8812 29.291C88.8062 30.085 88.3833 30.4345 87.8793 30.9035C87.3788 31.37 87.0108 31.8735 86.8078 32.54C86.7633 32.6855 86.9553 32.689 87.0343 32.659C88.2873 32.1825 89.5513 31.8895 90.8713 31.7015C91.0823 31.6725 91.4582 31.1805 91.0842 31.216Z" fill="#6F7072"/>
<path d="M78.7637 31.8565C78.7252 31.7455 78.6357 31.6965 78.5232 31.713C78.4087 31.73 78.2983 31.799 78.2228 31.894C78.0423 32.035 77.9208 32.2935 77.9533 32.527C78.0033 32.8865 78.4247 32.6525 78.5632 32.493C78.6997 32.336 78.8397 32.0745 78.7637 31.8565Z" fill="#6F7072"/>
<path d="M64.2768 71.1665C63.9613 71.225 63.6503 71.2965 63.3303 71.3265C63.0268 71.355 62.7318 71.3375 62.4363 71.4195C62.3483 71.444 62.1488 71.6245 62.2708 71.714C62.4983 71.88 62.8438 71.8385 63.1113 71.8325C63.4208 71.826 63.7298 71.802 64.0313 71.7275C64.1913 71.688 64.3907 71.573 64.4477 71.4C64.4947 71.258 64.4418 71.136 64.2768 71.1665Z" fill="#6F7072"/>
<path d="M66.3473 69.5495C66.3248 69.3975 66.0558 69.6 66.0453 69.691C65.8968 71.0055 65.9537 72.372 65.9087 73.6965C65.8617 73.9505 66.3848 73.741 66.3913 73.518C66.4313 72.2235 66.5363 70.8295 66.3473 69.5495Z" fill="#6F7072"/>
<path d="M69.7102 69.8105C69.7242 69.4725 69.1807 69.801 69.1502 70.0175C69.1087 70.3135 68.9737 71.497 68.4047 71.3595C68.1402 71.139 68.0307 70.858 68.0762 70.518C68.0682 70.076 68.3587 69.8675 68.9477 69.8925C69.0347 69.993 69.2877 69.804 69.2532 69.687C69.1027 69.1755 68.5952 69.1425 68.1952 69.3995C67.6567 69.746 67.3587 70.649 67.5327 71.2705C67.6887 71.8265 68.2342 72.102 68.7387 71.827C68.8712 71.755 68.9857 71.6555 69.0857 71.5385C69.0482 72.3645 69.0087 73.1905 68.9812 74.0165C68.9697 74.3645 69.6202 74.036 69.5702 73.7525C69.6287 72.439 69.6557 71.124 69.7102 69.8105Z" fill="#6F7072"/>
<path d="M71.7337 72.9C71.7432 72.8805 71.7512 72.8605 71.7542 72.84C71.7662 72.7595 71.6997 72.7225 71.6297 72.734C71.5022 72.7555 71.2202 72.9485 71.3432 73.115C71.4327 73.2365 71.6137 73.151 71.6907 73.0625C71.7182 73.0305 71.7627 72.9765 71.7497 72.928C71.7462 72.917 71.7407 72.908 71.7337 72.9Z" fill="#6F7072"/>
<path d="M76.5717 71.084C76.1707 71.0085 75.7282 70.9755 75.2857 70.9685C75.4972 70.4185 75.7292 69.8765 75.9907 69.34C76.0262 69.267 76.0092 69.1525 75.9107 69.152C75.1237 69.147 74.3347 69.1355 73.5502 69.2035C73.4352 69.21 73.1627 69.519 73.3652 69.5335C74.0527 69.5825 74.7437 69.5795 75.4327 69.5985C75.2107 70.0475 75.0032 70.5055 74.8122 70.9705C74.6582 70.974 74.5062 70.9795 74.3577 70.9875C74.3532 70.9595 74.3277 70.945 74.2662 70.9605C74.2087 70.975 74.1512 70.989 74.0937 71.0035C74.0037 71.026 73.6907 71.279 73.9107 71.33C74.1352 71.382 74.3752 71.423 74.6207 71.4555C74.3677 72.122 74.1512 72.803 73.9822 73.4965C73.9152 73.771 74.5817 73.5535 74.5272 73.2735C74.6962 72.672 74.8817 72.084 75.0877 71.5045C75.5147 71.537 75.9442 71.539 76.3352 71.5065C76.4742 71.4955 76.8407 71.135 76.5717 71.084Z" fill="#6F7072"/>
<path d="M78.3717 68.7465C77.9957 68.8515 77.7402 69.146 77.5807 69.4915C77.5697 69.4605 77.5572 69.4325 77.5467 69.4005C77.4597 69.1415 76.9332 69.493 77.0072 69.707C77.1682 70.172 77.3617 70.612 77.6407 71.016C77.6942 71.0935 77.7557 71.1665 77.8187 71.2385C77.5367 71.5635 77.2457 71.9185 77.1447 72.3545C77.0202 72.8925 77.2532 73.774 77.9417 73.6885C78.4477 73.6255 78.8662 72.85 78.9637 72.404C79.0622 71.955 78.9157 71.647 78.6587 71.288C78.5762 71.173 78.4962 71.064 78.4182 70.956C78.7052 70.59 78.9687 70.252 79.0422 70.005C79.2052 69.4565 79.1222 68.536 78.3717 68.7465ZM78.1742 71.6685C78.3767 71.841 78.4392 72.0665 78.3622 72.3465C78.5207 72.831 78.3167 73.0535 77.7492 73.013C77.2972 72.654 77.5972 72.063 78.0237 71.4725C78.0777 71.536 78.1297 71.6005 78.1742 71.6685ZM78.5367 70.227C78.4657 70.4185 78.3672 70.578 78.2547 70.727C78.0487 70.436 77.8637 70.146 77.7082 69.805C77.8192 69.4585 78.1347 69.331 78.6582 69.4255C78.7277 69.7145 78.6872 69.982 78.5367 70.227Z" fill="#6F7072"/>
<path d="M108.922 78.667C108.511 78.656 108.1 78.653 107.689 78.6545C107.33 78.6555 106.933 78.7175 106.577 78.6875C106.54 78.661 106.457 78.689 106.432 78.706L106.415 78.7175C106.365 78.7505 106.219 78.8665 106.284 78.9485C106.45 79.1605 106.97 79.0855 107.208 79.0975C107.669 79.121 108.13 79.141 108.592 79.1495C108.8 79.1545 109.212 78.6745 108.922 78.667Z" fill="#6F7072"/>
<path d="M111.672 77.3085C112.04 77.195 112.493 77.195 112.875 77.1335C112.96 77.12 113.186 76.8655 113.023 76.868C112.453 76.878 111.203 76.6595 110.812 77.1915C110.656 77.4045 110.696 77.6565 110.701 77.909C110.708 78.3245 110.563 79.206 110.898 79.495C110.958 79.547 111.032 79.55 111.105 79.518C111.506 79.341 112.297 79.07 112.404 79.6605C112.449 79.9105 112.255 80.507 112.065 80.6495C112.021 80.682 111.384 80.9015 111.383 80.6105C111.382 80.325 110.877 80.7385 110.84 80.8655C110.634 81.5725 111.782 81.1905 112.06 81.065C112.673 80.788 113.04 80.2585 112.964 79.55C112.885 78.8055 112.33 78.511 111.676 78.797C111.528 78.8615 111.433 79.0055 111.306 78.922C111.165 78.829 111.21 78.1015 111.223 77.9295C111.263 77.4365 111.228 77.4455 111.672 77.3085Z" fill="#6F7072"/>
<path d="M114.574 80.2525C114.57 80.2335 114.56 80.2215 114.547 80.213C114.538 80.178 114.521 80.146 114.491 80.1205C114.384 80.0255 114.223 80.133 114.142 80.216C114.087 80.272 114.033 80.3675 114.049 80.446C113.897 80.56 113.78 80.7715 113.961 80.8065C114.154 80.844 114.364 80.6905 114.469 80.5335C114.5 80.4875 114.529 80.4235 114.544 80.358C114.567 80.3255 114.583 80.288 114.574 80.2525Z" fill="#6F7072"/>
<path d="M117.996 78.203C117.633 78.236 117.27 78.2635 116.906 78.2845C116.911 78.1505 116.915 78.016 116.919 77.8815C116.93 77.559 117.132 76.7395 116.828 76.531C116.741 76.471 116.582 76.5645 116.515 76.617C115.949 77.059 115.522 77.9205 115.157 78.5335C115.114 78.6055 115.056 78.7875 115.205 78.7845C115.596 78.777 115.983 78.753 116.368 78.7155C116.367 78.7365 116.366 78.7525 116.365 78.7635L116.306 80.5445C116.295 80.859 116.832 80.5675 116.839 80.347C116.858 79.7825 116.876 79.2175 116.894 78.6525C117.222 78.607 117.549 78.553 117.875 78.48C117.984 78.4555 118.216 78.1835 117.996 78.203ZM115.718 78.322C115.934 77.9445 116.175 77.4875 116.454 77.1555C116.477 77.422 116.439 77.9295 116.405 78.3075C116.176 78.316 115.947 78.321 115.718 78.322Z" fill="#6F7072"/>
<path d="M119.645 78.6045C120.194 78.2105 120.595 77.614 120.532 76.874C120.448 75.8795 119.505 76.0195 118.967 76.5665C118.857 76.6785 118.942 76.804 119.077 76.716C119.424 76.4905 120.001 76.509 120.083 76.9915C120.209 77.7315 119.572 78.4085 118.916 78.6145C118.718 78.6915 118.496 79.1205 118.849 79.0055C119.262 78.924 119.563 79.0355 119.75 79.3405C119.993 79.599 119.97 79.84 119.681 80.0635C119.58 80.443 119.343 80.572 118.971 80.4505C118.776 80.4695 118.608 80.4185 118.466 80.2965C118.31 80.1905 117.984 80.493 118.064 80.6635C118.399 81.376 120.007 80.809 120.333 80.2525C120.742 79.5565 120.278 78.8145 119.645 78.6045Z" fill="#6F7072"/>
<path d="M123.352 76.6015C123.012 76.5 122.673 76.4985 122.321 76.4865C121.957 76.474 121.502 76.3825 121.148 76.4695C120.815 76.5515 120.691 76.7525 120.67 77.084C120.653 77.3355 120.734 77.62 120.738 77.8765C120.742 78.142 120.691 78.406 120.694 78.6685C120.695 78.831 120.66 79.0105 120.784 79.134C120.978 79.3265 121.239 79.1635 121.46 79.118C121.839 79.04 122.342 78.987 122.466 79.4465C122.605 79.962 122.043 80.3465 121.62 80.386C121.443 80.4025 121.014 80.8945 121.33 80.904C122.197 80.9305 123.428 79.947 123.008 78.9305C122.766 78.3455 122.254 78.549 121.781 78.5625C121.626 78.567 121.394 78.6465 121.283 78.4505C121.254 78.399 121.328 77.977 121.33 77.876C121.335 77.6905 121.234 77.2235 121.222 76.9195C121.871 76.8455 122.557 76.9605 123.201 76.8235C123.244 76.814 123.473 76.638 123.352 76.6015Z" fill="#6F7072"/>
<path d="M29.6422 76.193C28.9427 76.05 28.1332 76.173 27.4232 76.205C27.3202 76.2095 27.0907 76.4825 27.2627 76.491C27.9832 76.5255 28.7552 76.618 29.4702 76.5C29.5632 76.4845 29.8437 76.234 29.6422 76.193Z" fill="#6F7072"/>
<path d="M31.5782 74.385C31.3527 75.6395 31.2692 76.927 31.1942 78.199C31.1747 78.5275 31.7532 78.227 31.7592 77.99C31.7792 76.745 31.8802 75.505 31.9122 74.2615C31.9172 74.0555 31.6002 74.2605 31.5782 74.385Z" fill="#6F7072"/>
<path d="M35.2437 74.972C35.3337 73.998 34.2622 73.977 33.6032 74.138C33.4962 74.164 33.2557 74.439 33.4807 74.4185C33.9802 74.373 34.7967 74.3325 34.7952 75.138C34.7937 75.687 34.1387 76.145 33.7417 76.3595C33.6582 76.4045 33.3597 76.775 33.6162 76.768C34.2577 76.7505 34.7447 77.286 34.6192 77.9525C34.4692 78.748 33.7137 79.05 33.0062 79.146C33.0237 79.1015 33.0412 79.0575 33.0587 79.013C33.2407 78.688 32.6842 78.905 32.5882 79.0315C32.4342 79.2345 32.4082 79.3015 32.3387 79.5475C32.3032 79.673 32.4322 79.71 32.5207 79.702C33.5317 79.609 34.6632 79.2235 35.0937 78.169C35.4197 77.371 35.0632 76.555 34.3477 76.354C34.7932 76.005 35.1912 75.5355 35.2437 74.972Z" fill="#6F7072"/>
<path d="M37.2307 78.2865C37.1897 78.2915 37.1612 78.2985 37.1312 78.282C37.1772 78.2155 37.2107 78.139 37.1932 78.0555C37.1777 77.98 37.1277 77.9225 37.0637 77.8865C36.9092 77.7985 36.6782 78.011 36.6202 78.142C36.5492 78.303 36.5752 78.497 36.7297 78.594C36.9027 78.7025 37.1342 78.6225 37.2687 78.4895C37.3412 78.4185 37.3732 78.2685 37.2307 78.2865Z" fill="#6F7072"/>
<path d="M41.3972 75.338C41.1262 75.376 40.8567 75.417 40.5882 75.457C40.6462 74.745 40.7002 74.032 40.6602 73.3285C40.6497 73.1405 40.3447 73.2975 40.2902 73.341C39.4132 74.0375 38.8542 74.96 38.3072 75.939C38.2357 76.0665 38.3377 76.1435 38.4517 76.1365C39.0052 76.1025 39.5562 76.045 40.0992 75.9435C40.0857 76.1625 40.0712 76.3815 40.0552 76.601C40.0257 77.0065 39.7627 78.0345 40.0262 78.36C40.1247 78.482 40.3532 78.334 40.4222 78.2515C40.4282 78.244 40.4347 78.237 40.4407 78.2295C40.4952 78.1645 40.5687 78.0585 40.5167 77.981C40.4557 77.279 40.4992 76.5645 40.5562 75.847C40.8087 75.7865 41.0597 75.715 41.3072 75.6285C41.4077 75.593 41.6232 75.3065 41.3972 75.338ZM38.9237 75.648C39.2737 75.0305 39.6437 74.436 40.1387 73.942C40.1572 74.4705 40.1472 74.9975 40.1222 75.5245C39.7252 75.579 39.3267 75.6245 38.9237 75.648Z" fill="#6F7072"/>
<path d="M43.5417 75.25C44.0122 74.756 44.3802 74.0215 43.9697 73.4325C43.5662 72.8535 42.5212 73.307 42.2297 73.8185C42.1272 73.9985 42.3512 73.97 42.4342 73.8745C43.2312 72.96 44.4447 74.5095 42.9852 75.324C42.8752 75.3855 42.6237 75.7705 42.9207 75.707C43.4077 75.603 43.9882 76.053 43.8142 76.642C43.6902 77.0615 42.9917 77.8345 42.4932 77.5285C42.3347 77.431 41.9422 77.744 42.0592 77.9245C42.4817 78.5785 43.8432 77.47 44.1072 77.0295C44.5332 76.319 44.2787 75.3545 43.5417 75.25Z" fill="#6F7072"/>
<path d="M47.1682 75.7215C46.7602 75.7075 46.3177 75.878 45.9857 76.163C46.0082 75.315 46.0462 74.467 46.0727 73.6195C46.0777 73.454 45.8132 73.615 45.7992 73.721C45.6782 74.61 45.5937 75.5035 45.5357 76.399C45.5237 76.5835 45.4937 76.809 45.4777 77.042C45.4702 77.1 45.4657 77.1595 45.4672 77.2195C45.4672 77.2225 45.4682 77.2245 45.4687 77.2275C45.4587 77.5705 45.4957 77.9115 45.6792 78.1485C46.2702 78.9105 47.4207 78.012 47.8007 77.428C48.2437 76.747 48.0882 75.7535 47.1682 75.7215ZM47.1087 77.622C46.3602 78.274 46.0717 77.655 45.9967 77.0085C46.0022 76.994 46.0057 76.98 46.0062 76.9665C46.1942 76.7245 46.3822 76.4825 46.5702 76.2405C46.8477 76.296 47.1247 76.351 47.4022 76.4065C47.7852 76.7275 47.3452 77.416 47.1087 77.622Z" fill="#6F7072"/>
<path d="M12.8317 38.191C11.5952 38.526 10.4252 39.0675 9.35771 39.7955C8.70671 40.2395 7.2307 41.3635 8.4797 42.0685C9.0027 42.3635 9.6372 42.4755 10.2162 42.59C10.5337 42.653 10.8532 42.707 11.1702 42.7735C11.4522 42.8325 12.1042 42.9075 12.0977 43.325C12.0932 43.608 11.6762 43.901 11.4817 44.0625C11.2427 44.261 10.9842 44.435 10.7162 44.5885C10.1072 44.9375 9.4372 45.1535 8.7452 45.2275C8.2207 45.2835 8.54019 45.7735 8.95319 45.71C10.1327 45.5285 11.2292 45.1025 12.1687 44.3285C12.5112 44.046 13.0647 43.6225 12.8772 43.096C12.7097 42.627 12.1142 42.4545 11.6987 42.3575C11.0397 42.204 10.3657 42.1195 9.71369 41.934C9.43669 41.855 8.9022 41.756 8.8122 41.433C8.7192 41.1 9.06669 40.8135 9.28719 40.6285C10.4132 39.6875 11.8502 39.084 13.2427 38.7275C13.7022 38.6095 13.1332 38.1095 12.8317 38.191Z" fill="#1F1E21"/>
<path d="M19.0377 39.43C18.3947 39.326 17.7182 39.336 17.0662 39.358C17.0817 39.2135 17.0967 39.069 17.1122 38.9245C17.1452 38.6105 16.3957 38.3455 16.3532 38.7235C16.3272 38.9525 16.3012 39.1815 16.2752 39.4105C15.6962 39.4685 15.1177 39.556 14.5397 39.563C14.1032 39.5685 14.5747 40.2835 14.9697 40.127C15.3537 39.9745 15.7897 39.9175 16.2212 39.89C16.0217 41.654 15.8232 43.418 15.6387 45.1835C15.6057 45.498 16.3522 45.471 16.4282 45.207C16.4607 45.093 16.4942 44.9795 16.5282 44.8665C16.5462 44.806 16.5282 44.7515 16.4877 44.7055C16.6707 43.091 16.8427 41.475 17.0132 39.859C17.7017 39.8385 18.3842 39.8875 19.0712 39.9305C19.5297 39.959 19.4172 39.4915 19.0377 39.43Z" fill="#1F1E21"/>
<path d="M23.2462 40.4145C23.2277 39.816 22.9572 39.206 22.4142 38.9405C21.8917 38.6845 21.1647 38.803 20.7727 39.253C20.7042 39.3315 20.7007 39.4045 20.7377 39.4655C20.2312 39.451 19.9032 39.8945 19.7132 40.3555C19.2217 41.548 18.8277 43.0105 19.4112 44.2445C19.6372 44.7225 20.0257 45.1625 20.5612 45.221C21.2007 45.291 21.5707 44.818 21.8852 44.314C22.2647 43.705 22.5827 43.057 22.8247 42.377C23.0417 41.766 23.2667 41.0735 23.2462 40.4145ZM22.2792 41.5285C22.0217 42.492 21.6217 43.4205 21.0922 44.257C20.9767 44.4395 20.8647 44.7495 20.6092 44.624C20.4327 44.5375 20.2857 44.2585 20.1987 44.09C19.9957 43.6965 19.9177 43.249 19.9197 42.806C19.9222 42.248 20.0617 41.7015 20.2397 41.178C20.3132 40.962 20.3882 40.7445 20.4772 40.5355C20.5112 40.4565 20.5442 40.3745 20.5872 40.3C20.6162 40.236 20.6552 40.18 20.7047 40.132C20.7477 40.051 20.8122 40.042 20.8992 40.105C20.8192 40.409 21.5167 40.789 21.6197 40.4235C21.7132 40.093 21.5132 39.8005 21.2442 39.628C21.3482 39.6115 21.4417 39.567 21.4937 39.4855C21.8192 38.977 22.2937 39.6905 22.3882 40.014C22.5312 40.504 22.4062 41.0515 22.2792 41.5285Z" fill="#1F1E21"/>
<path d="M27.4102 43.4C26.9677 43.7105 26.4327 44.0895 25.8687 44.01C25.1357 43.907 24.9602 43.214 24.9952 42.5615C25.0272 41.9615 25.1792 41.3485 25.3747 40.7845C25.4797 40.481 25.6037 40.1845 25.7457 39.8975C25.8152 39.757 25.8872 39.616 25.9712 39.484C26.0142 39.416 26.4682 38.9065 26.4892 39.0595C26.5302 39.3555 27.2602 39.673 27.2367 39.303C27.2122 38.9125 26.9422 38.641 26.5852 38.5315C26.1462 38.397 25.7337 38.594 25.4502 38.9455C24.7672 39.7925 24.4052 41.06 24.2527 42.132C24.1242 43.035 24.2037 44.033 25.1442 44.405C26.1502 44.803 27.1207 44.2335 27.9812 43.746C28.3747 43.5225 27.6847 43.2075 27.4102 43.4Z" fill="#1F1E21"/>
<path d="M33.5712 39.0865C33.8287 38.738 34.1752 38.372 33.9892 37.91C33.9207 37.7395 33.6247 37.7295 33.4877 37.764L33.1922 37.82C32.8302 37.8715 32.9727 38.164 33.2317 38.2815C33.1307 38.6865 32.6312 39.1555 32.4157 39.4385C32.2027 39.7175 31.9887 39.9955 31.7752 40.2735C31.7082 40.2915 31.6607 40.339 31.6547 40.4275C31.6547 40.4285 31.6547 40.4295 31.6547 40.4305C31.5912 40.5135 31.5277 40.5965 31.4637 40.679C31.1457 41.0935 30.8287 41.5095 30.5127 41.9255C30.5487 41.745 30.5852 41.5645 30.6212 41.3835C30.8442 40.2605 31.0572 39.135 31.2732 38.0105C31.3322 37.703 30.6007 37.3925 30.5257 37.767C30.2487 39.149 29.9702 40.5305 29.7027 41.9145C29.5667 42.618 29.4327 43.322 29.2967 44.0255C29.2177 44.434 29.1442 44.8135 29.5607 45.0195C29.7197 45.0985 30.3917 45.047 30.1357 44.7295C29.9442 44.492 30.0567 44.2085 30.1102 43.939C30.1292 43.8435 30.1482 43.7485 30.1672 43.653C30.1957 43.6395 30.2207 43.621 30.2397 43.5955C30.7032 42.977 31.1637 42.356 31.6227 41.7345C31.6452 42.9495 31.8172 44.1555 32.1607 45.326C32.2497 45.6295 33.0412 45.5835 32.9377 45.22C32.5182 43.7495 32.3162 42.238 32.3917 40.7045C32.3917 40.7005 32.3907 40.6965 32.3907 40.6925C32.4372 40.629 32.4842 40.566 32.5307 40.5025C32.8762 40.0295 33.2227 39.5575 33.5712 39.0865Z" fill="#1F1E21"/>
<path d="M38.6927 42.6025C38.0747 41.8575 36.9207 41.5995 36.0512 41.347C35.8017 41.2745 35.4392 41.224 35.2157 41.082C34.8897 40.8745 35.1507 40.675 35.3727 40.499C35.8987 40.0815 36.5067 39.6735 37.1417 39.4675C37.4972 39.352 36.9157 38.763 36.6167 38.937C36.1382 39.2155 35.6532 39.479 35.2032 39.806C34.9012 40.0255 34.4182 40.308 34.2442 40.6615C33.8307 41.503 35.6922 41.7795 36.1027 41.898C36.6622 42.0595 37.2222 42.2365 37.7157 42.5615C38.4237 43.028 37.7262 43.6925 37.2767 44.0155C36.5282 44.553 35.5762 44.805 34.6897 44.9685C34.1812 45.0625 34.6752 45.547 35.0212 45.461C35.9222 45.237 36.8322 45.049 37.6467 44.567C38.2337 44.2195 39.3217 43.361 38.6927 42.6025Z" fill="#1F1E21"/>
</svg>
