<svg width="226" height="50" viewBox="0 0 226 50" fill="none" xmlns="http://www.w3.org/2000/svg">
<g clip-path="url(#clip0_347_11)">
<path d="M28.3334 44.5833H28.3109C28.0411 44.5787 27.7801 44.4869 27.5668 44.3217C27.3535 44.1565 27.1994 43.9267 27.1275 43.6667L18.3859 11.6108L12.8792 33.6367C12.8151 33.893 12.6713 34.1225 12.4687 34.2921C12.266 34.4617 12.0147 34.5627 11.751 34.5806C11.4874 34.5984 11.2248 34.5323 11.0011 34.3916C10.7773 34.2509 10.604 34.0429 10.5059 33.7975L7.48669 26.25H6.66669C6.33517 26.25 6.01722 26.1183 5.7828 25.8839C5.54838 25.6495 5.41669 25.3315 5.41669 25C5.41669 24.6685 5.54838 24.3505 5.7828 24.1161C6.01722 23.8817 6.33517 23.75 6.66669 23.75H8.33335C8.58323 23.7499 8.82738 23.8248 9.03429 23.9649C9.24121 24.1049 9.4014 24.3038 9.49419 24.5358L11.3917 29.28L17.1209 6.36332C17.1879 6.09514 17.342 5.85675 17.559 5.68546C17.776 5.51417 18.0436 5.41964 18.32 5.41666H18.3334C18.6075 5.41667 18.8741 5.50681 19.092 5.6732C19.3098 5.8396 19.467 6.07301 19.5392 6.33749L28.4167 38.8817L35.475 16.2983C35.5519 16.0518 35.7032 15.8351 35.9082 15.6781C36.1131 15.5211 36.3617 15.4313 36.6197 15.4213C36.8778 15.4113 37.1326 15.4814 37.3491 15.622C37.5657 15.7626 37.7334 15.9669 37.8292 16.2067L40.8467 23.75H43.3334C43.6649 23.75 43.9828 23.8817 44.2172 24.1161C44.4517 24.3505 44.5833 24.6685 44.5833 25C44.5833 25.3315 44.4517 25.6495 44.2172 25.8839C43.9828 26.1183 43.6649 26.25 43.3334 26.25H40C39.7501 26.25 39.506 26.1752 39.2991 26.0351C39.0922 25.895 38.932 25.6962 38.8392 25.4642L36.8117 20.3942L29.5267 43.7058C29.4473 43.9602 29.2887 44.1825 29.074 44.3404C28.8593 44.4982 28.5998 44.5833 28.3334 44.5833Z" fill="#8D9CF4"/>
<path d="M28.3334 44.5833C28.0599 44.5834 27.7939 44.4937 27.5763 44.3282C27.3586 44.1626 27.2013 43.9302 27.1284 43.6667L17.1284 6.99999C17.0835 6.84114 17.0706 6.67498 17.0903 6.51111C17.11 6.34723 17.162 6.18889 17.2433 6.04521C17.3245 5.90153 17.4334 5.77537 17.5636 5.67399C17.6939 5.57262 17.843 5.49805 18.0022 5.45458C18.1614 5.41112 18.3277 5.39962 18.4914 5.42075C18.6551 5.44187 18.813 5.49521 18.9559 5.57768C19.0989 5.66016 19.2241 5.77013 19.3244 5.90125C19.4246 6.03238 19.4979 6.18206 19.54 6.34165L29.54 43.0083C29.5899 43.1936 29.5965 43.3878 29.5592 43.576C29.522 43.7642 29.4419 43.9412 29.3253 44.0935C29.2086 44.2458 29.0585 44.3692 28.8864 44.4541C28.7144 44.5391 28.5252 44.5833 28.3334 44.5833Z" fill="#7BCDD1"/>
<path d="M36.6667 44.5833C36.3352 44.5833 36.0172 44.4516 35.7828 44.2172C35.5484 43.9828 35.4167 43.6648 35.4167 43.3333V6.66666C35.4167 6.33514 35.5484 6.01719 35.7828 5.78277C36.0172 5.54835 36.3352 5.41666 36.6667 5.41666C36.9982 5.41666 37.3162 5.54835 37.5506 5.78277C37.785 6.01719 37.9167 6.33514 37.9167 6.66666V43.3333C37.9167 43.6648 37.785 43.9828 37.5506 44.2172C37.3162 44.4516 36.9982 44.5833 36.6667 44.5833Z" fill="#F2C4BB"/>
<path d="M36.6666 20C38.5076 20 40 18.5076 40 16.6667C40 14.8257 38.5076 13.3333 36.6666 13.3333C34.8257 13.3333 33.3333 14.8257 33.3333 16.6667C33.3333 18.5076 34.8257 20 36.6666 20Z" fill="#F2C4BB"/>
<path d="M36.6666 21.25C35.7601 21.25 34.874 20.9812 34.1203 20.4776C33.3666 19.974 32.7791 19.2581 32.4322 18.4206C32.0853 17.5831 31.9945 16.6616 32.1714 15.7725C32.3482 14.8834 32.7848 14.0668 33.4257 13.4258C34.0667 12.7848 34.8834 12.3483 35.7725 12.1714C36.6616 11.9946 37.5831 12.0853 38.4206 12.4322C39.2581 12.7791 39.9739 13.3666 40.4775 14.1203C40.9812 14.874 41.25 15.7602 41.25 16.6667C41.2484 17.8818 40.7651 19.0467 39.9058 19.9059C39.0466 20.7651 37.8817 21.2485 36.6666 21.25ZM36.6666 14.5833C36.2546 14.5833 35.8518 14.7055 35.5092 14.9344C35.1666 15.1634 34.8996 15.4887 34.7419 15.8694C34.5842 16.2501 34.543 16.669 34.6233 17.0731C34.7037 17.4772 34.9021 17.8485 35.1935 18.1398C35.4849 18.4312 35.8561 18.6296 36.2602 18.71C36.6643 18.7904 37.0832 18.7491 37.4639 18.5914C37.8446 18.4337 38.17 18.1667 38.3989 17.8241C38.6278 17.4815 38.75 17.0787 38.75 16.6667C38.75 16.1141 38.5305 15.5842 38.1398 15.1935C37.7491 14.8028 37.2192 14.5833 36.6666 14.5833Z" fill="#F28080"/>
</g>
<path d="M59.248 18.884C58.48 18.884 57.912 18.812 57.544 18.668C57.192 18.508 56.96 18.324 56.848 18.116C56.752 17.892 56.704 17.692 56.704 17.516C56.704 17.292 56.832 17.036 57.088 16.748C57.344 16.444 57.84 16.22 58.576 16.076C59.312 15.916 60.184 15.772 61.192 15.644C62.2 15.5 63.272 15.38 64.408 15.284C65.544 15.172 66.696 15.076 67.864 14.996C69.032 14.916 70.144 14.86 71.2 14.828C72.256 14.78 73.192 14.756 74.008 14.756C74.856 14.756 75.512 14.804 75.976 14.9C76.44 14.996 76.768 15.116 76.96 15.26C77.168 15.404 77.288 15.556 77.32 15.716C77.368 15.876 77.392 16.028 77.392 16.172C77.392 16.204 77.392 16.228 77.392 16.244C77.392 16.436 77.344 16.644 77.248 16.868C77.168 17.092 76.984 17.284 76.696 17.444C76.408 17.588 75.976 17.66 75.4 17.66C75.192 17.66 74.728 17.692 74.008 17.756C73.288 17.82 72.408 17.9 71.368 17.996C70.328 18.092 69.224 18.188 68.056 18.284C67.88 19.004 67.68 19.844 67.456 20.804C67.248 21.764 67.032 22.772 66.808 23.828C66.6 24.884 66.4 25.924 66.208 26.948C66.016 27.956 65.856 28.892 65.728 29.756C65.6 30.604 65.512 31.3 65.464 31.844C65.4 32.58 65.184 33.1 64.816 33.404C64.464 33.692 64.112 33.836 63.76 33.836C63.504 33.836 63.248 33.78 62.992 33.668C62.736 33.572 62.528 33.356 62.368 33.02C62.208 32.668 62.128 32.148 62.128 31.46C62.128 30.756 62.192 29.892 62.32 28.868C62.448 27.828 62.616 26.716 62.824 25.532C63.048 24.348 63.296 23.156 63.568 21.956C63.856 20.756 64.152 19.636 64.456 18.596C63.384 18.676 62.392 18.748 61.48 18.812C60.568 18.86 59.824 18.884 59.248 18.884ZM73.597 34.556C73.197 34.556 72.853 34.412 72.565 34.124C72.293 33.836 72.157 33.42 72.157 32.876C72.157 32.636 72.189 32.244 72.253 31.7C72.333 31.14 72.429 30.5 72.541 29.78C72.669 29.06 72.789 28.308 72.901 27.524C73.029 26.74 73.133 25.996 73.213 25.292C73.309 24.588 73.373 23.988 73.405 23.492C73.437 22.884 73.597 22.452 73.885 22.196C74.173 21.924 74.517 21.788 74.917 21.788C75.237 21.788 75.525 21.868 75.781 22.028C76.053 22.172 76.221 22.484 76.285 22.964C76.365 23.428 76.373 24.1 76.309 24.98C77.013 23.7 77.725 22.556 78.445 21.548C79.181 20.54 79.949 19.74 80.749 19.148C82.077 18.14 83.277 17.636 84.349 17.636C84.957 17.636 85.357 17.772 85.549 18.044C85.741 18.316 85.837 18.596 85.837 18.884C85.837 19.076 85.789 19.252 85.693 19.412C85.613 19.572 85.437 19.74 85.165 19.916C84.893 20.092 84.477 20.324 83.917 20.612C83.165 20.996 82.421 21.5 81.685 22.124C80.965 22.748 80.245 23.548 79.525 24.524C78.805 25.5 78.077 26.7 77.341 28.124C76.605 29.548 75.845 31.244 75.061 33.212C74.917 33.756 74.709 34.116 74.437 34.292C74.181 34.468 73.901 34.556 73.597 34.556ZM85.0437 34.412C84.5317 34.412 84.0677 34.268 83.6517 33.98C83.2357 33.708 82.9077 33.348 82.6677 32.9C82.4277 32.436 82.3077 31.94 82.3077 31.412C82.3077 30.42 82.5237 29.452 82.9557 28.508C83.4037 27.564 83.9877 26.668 84.7077 25.82C85.4277 24.972 86.2117 24.196 87.0597 23.492C87.9237 22.772 88.7797 22.156 89.6277 21.644C90.4917 21.132 91.2757 20.732 91.9797 20.444C92.6997 20.156 93.2597 20.012 93.6597 20.012C94.1237 20.012 94.4997 20.116 94.7877 20.324C95.0917 20.516 95.2437 20.82 95.2437 21.236C95.2437 21.364 95.2117 21.468 95.1477 21.548C95.3557 21.596 95.5237 21.716 95.6517 21.908C95.7797 22.1 95.8437 22.388 95.8437 22.772C95.8437 22.932 95.8037 23.348 95.7237 24.02C95.6437 24.692 95.5557 25.508 95.4597 26.468C95.3797 27.428 95.3397 28.428 95.3397 29.468C95.3397 29.628 95.3637 29.772 95.4117 29.9C95.4597 30.012 95.5637 30.068 95.7237 30.068C96.3637 30.068 97.0117 29.94 97.6677 29.684C98.3397 29.412 98.9877 29.084 99.6117 28.7C100.252 28.3 100.828 27.908 101.34 27.524C101.868 27.124 102.308 26.796 102.66 26.54C103.028 26.268 103.268 26.132 103.38 26.132C103.924 26.132 104.196 26.404 104.196 26.948C104.196 27.092 104.02 27.396 103.668 27.86C103.332 28.308 102.868 28.828 102.276 29.42C101.684 29.996 101.02 30.572 100.284 31.148C99.5637 31.708 98.8117 32.172 98.0277 32.54C97.2597 32.908 96.5157 33.092 95.7957 33.092C94.9157 33.092 94.2437 32.884 93.7797 32.468C93.3317 32.052 93.0117 31.492 92.8197 30.788C92.6437 30.068 92.5477 29.26 92.5317 28.364C91.7157 29.532 90.8677 30.572 89.9877 31.484C89.1237 32.38 88.2677 33.092 87.4197 33.62C86.5717 34.148 85.7797 34.412 85.0437 34.412ZM93.5397 22.388C91.9717 23.14 90.5637 24.004 89.3157 24.98C88.0677 25.94 87.0757 26.948 86.3397 28.004C85.6197 29.06 85.2597 30.076 85.2597 31.052C85.2597 31.324 85.3877 31.46 85.6437 31.46C85.9477 31.46 86.3477 31.284 86.8437 30.932C87.3557 30.58 87.9077 30.116 88.4997 29.54C89.0917 28.948 89.6837 28.292 90.2757 27.572C90.8677 26.836 91.4197 26.084 91.9317 25.316C92.4437 24.548 92.8517 23.812 93.1557 23.108C93.2677 22.852 93.3957 22.612 93.5397 22.388ZM112.191 20.66C113.071 18.564 113.847 16.404 114.519 14.18C114.647 13.732 114.831 13.388 115.071 13.148C115.327 12.908 115.679 12.788 116.127 12.788C116.495 12.788 116.775 12.9 116.967 13.124C117.159 13.332 117.255 13.62 117.255 13.988C117.255 14.292 117.127 14.836 116.871 15.62C116.615 16.388 116.303 17.364 115.935 18.548C115.567 19.732 115.199 21.1 114.831 22.652C114.463 24.204 114.151 25.908 113.895 27.764C113.639 29.62 113.511 31.604 113.511 33.716C113.511 34.292 113.399 34.764 113.175 35.132C112.967 35.516 112.599 35.708 112.071 35.708C111.495 35.708 111.071 35.508 110.799 35.108C110.543 34.708 110.415 34.196 110.415 33.572C110.415 32.34 110.455 31.316 110.535 30.5C110.631 29.668 110.727 28.956 110.823 28.364C110.039 29.708 109.207 30.868 108.327 31.844C107.463 32.804 106.631 33.54 105.831 34.052C105.031 34.58 104.343 34.844 103.767 34.844C102.823 34.844 102.055 34.58 101.463 34.052C100.871 33.524 100.575 32.724 100.575 31.652C100.575 30.82 100.775 29.964 101.175 29.084C101.575 28.188 102.103 27.308 102.759 26.444C103.415 25.58 104.135 24.772 104.919 24.02C105.719 23.252 106.519 22.58 107.319 22.004C108.119 21.412 108.863 20.948 109.551 20.612C110.239 20.276 110.799 20.108 111.231 20.108C111.711 20.108 112.031 20.292 112.191 20.66ZM111.639 21.956C111.543 22.02 111.439 22.084 111.327 22.148C111.231 22.196 111.135 22.252 111.039 22.316C110.431 22.7 109.783 23.164 109.095 23.708C108.407 24.236 107.727 24.828 107.055 25.484C106.383 26.124 105.767 26.796 105.207 27.5C104.663 28.188 104.223 28.876 103.887 29.564C103.567 30.236 103.407 30.884 103.407 31.508C103.407 31.62 103.455 31.7 103.551 31.748C103.647 31.796 103.735 31.82 103.815 31.82C104.375 31.82 104.975 31.572 105.615 31.076C106.271 30.58 106.935 29.892 107.607 29.012C108.295 28.116 108.975 27.068 109.647 25.868C110.335 24.668 110.999 23.364 111.639 21.956ZM121.812 34.316C120.82 34.316 120.02 33.972 119.412 33.284C118.804 32.58 118.5 31.452 118.5 29.9C118.5 28.908 118.612 27.916 118.836 26.924C119.076 25.916 119.404 24.964 119.82 24.068C120.252 23.156 120.748 22.348 121.308 21.644C121.884 20.94 122.516 20.388 123.204 19.988C123.892 19.572 124.604 19.364 125.34 19.364C126.588 19.364 127.564 19.7 128.268 20.372C128.972 21.044 129.324 21.9 129.324 22.94C129.324 23.74 129.1 24.468 128.652 25.124C128.22 25.764 127.628 26.34 126.876 26.852C126.124 27.364 125.284 27.828 124.356 28.244C123.428 28.66 122.476 29.036 121.5 29.372C121.42 29.948 121.38 30.46 121.38 30.908C121.38 31.18 121.532 31.316 121.836 31.316C122.556 31.316 123.324 31.204 124.14 30.98C124.972 30.74 125.812 30.436 126.66 30.068C127.508 29.684 128.324 29.292 129.108 28.892C129.892 28.476 130.604 28.084 131.244 27.716C131.9 27.332 132.436 27.028 132.852 26.804C133.284 26.564 133.564 26.444 133.692 26.444C134.044 26.444 134.3 26.548 134.46 26.756C134.62 26.964 134.7 27.188 134.7 27.428C134.7 27.54 134.484 27.788 134.052 28.172C133.636 28.556 133.06 29.012 132.324 29.54C131.604 30.052 130.788 30.588 129.876 31.148C128.98 31.692 128.044 32.212 127.068 32.708C126.108 33.188 125.172 33.572 124.26 33.86C123.364 34.164 122.548 34.316 121.812 34.316ZM121.908 27.236C122.564 26.852 123.212 26.452 123.852 26.036C124.508 25.604 125.052 25.124 125.484 24.596C125.916 24.052 126.132 23.42 126.132 22.7C126.132 22.492 126.076 22.356 125.964 22.292C125.852 22.212 125.692 22.172 125.484 22.172C124.924 22.172 124.412 22.42 123.948 22.916C123.5 23.412 123.1 24.052 122.748 24.836C122.412 25.604 122.132 26.404 121.908 27.236ZM134.459 18.884C133.691 18.884 133.123 18.812 132.755 18.668C132.403 18.508 132.171 18.324 132.059 18.116C131.963 17.892 131.915 17.692 131.915 17.516C131.915 17.292 132.043 17.036 132.299 16.748C132.555 16.444 133.051 16.22 133.787 16.076C134.523 15.916 135.395 15.772 136.403 15.644C137.411 15.5 138.483 15.38 139.619 15.284C140.755 15.172 141.907 15.076 143.075 14.996C144.243 14.916 145.355 14.86 146.411 14.828C147.467 14.78 148.403 14.756 149.219 14.756C150.067 14.756 150.723 14.804 151.187 14.9C151.651 14.996 151.979 15.116 152.171 15.26C152.379 15.404 152.499 15.556 152.531 15.716C152.579 15.876 152.603 16.028 152.603 16.172C152.603 16.204 152.603 16.228 152.603 16.244C152.603 16.436 152.555 16.644 152.459 16.868C152.379 17.092 152.195 17.284 151.907 17.444C151.619 17.588 151.187 17.66 150.611 17.66C150.403 17.66 149.939 17.692 149.219 17.756C148.499 17.82 147.619 17.9 146.579 17.996C145.539 18.092 144.435 18.188 143.267 18.284C143.091 19.004 142.891 19.844 142.667 20.804C142.459 21.764 142.243 22.772 142.019 23.828C141.811 24.884 141.611 25.924 141.419 26.948C141.227 27.956 141.067 28.892 140.939 29.756C140.811 30.604 140.723 31.3 140.675 31.844C140.611 32.58 140.395 33.1 140.027 33.404C139.675 33.692 139.323 33.836 138.971 33.836C138.715 33.836 138.459 33.78 138.203 33.668C137.947 33.572 137.739 33.356 137.579 33.02C137.419 32.668 137.339 32.148 137.339 31.46C137.339 30.756 137.403 29.892 137.531 28.868C137.659 27.828 137.827 26.716 138.035 25.532C138.259 24.348 138.507 23.156 138.779 21.956C139.067 20.756 139.363 19.636 139.667 18.596C138.595 18.676 137.603 18.748 136.691 18.812C135.779 18.86 135.035 18.884 134.459 18.884ZM149.473 34.412C148.961 34.412 148.497 34.268 148.081 33.98C147.665 33.708 147.337 33.348 147.097 32.9C146.857 32.436 146.737 31.94 146.737 31.412C146.737 30.42 146.953 29.452 147.385 28.508C147.833 27.564 148.417 26.668 149.137 25.82C149.857 24.972 150.641 24.196 151.489 23.492C152.353 22.772 153.209 22.156 154.057 21.644C154.921 21.132 155.705 20.732 156.409 20.444C157.129 20.156 157.689 20.012 158.089 20.012C158.553 20.012 158.929 20.116 159.217 20.324C159.521 20.516 159.673 20.82 159.673 21.236C159.673 21.364 159.641 21.468 159.577 21.548C159.785 21.596 159.953 21.716 160.081 21.908C160.209 22.1 160.273 22.388 160.273 22.772C160.273 22.932 160.233 23.348 160.153 24.02C160.073 24.692 159.985 25.508 159.889 26.468C159.809 27.428 159.769 28.428 159.769 29.468C159.769 29.628 159.793 29.772 159.841 29.9C159.889 30.012 159.993 30.068 160.153 30.068C160.793 30.068 161.441 29.94 162.097 29.684C162.769 29.412 163.417 29.084 164.041 28.7C164.681 28.3 165.257 27.908 165.769 27.524C166.297 27.124 166.737 26.796 167.089 26.54C167.457 26.268 167.697 26.132 167.809 26.132C168.353 26.132 168.625 26.404 168.625 26.948C168.625 27.092 168.449 27.396 168.097 27.86C167.761 28.308 167.297 28.828 166.705 29.42C166.113 29.996 165.449 30.572 164.713 31.148C163.993 31.708 163.241 32.172 162.457 32.54C161.689 32.908 160.945 33.092 160.225 33.092C159.345 33.092 158.673 32.884 158.209 32.468C157.761 32.052 157.441 31.492 157.249 30.788C157.073 30.068 156.977 29.26 156.961 28.364C156.145 29.532 155.297 30.572 154.417 31.484C153.553 32.38 152.697 33.092 151.849 33.62C151.001 34.148 150.209 34.412 149.473 34.412ZM157.969 22.388C156.401 23.14 154.993 24.004 153.745 24.98C152.497 25.94 151.505 26.948 150.769 28.004C150.049 29.06 149.689 30.076 149.689 31.052C149.689 31.324 149.817 31.46 150.073 31.46C150.377 31.46 150.777 31.284 151.273 30.932C151.785 30.58 152.337 30.116 152.929 29.54C153.521 28.948 154.113 28.292 154.705 27.572C155.297 26.836 155.849 26.084 156.361 25.316C156.873 24.548 157.281 23.812 157.585 23.108C157.697 22.852 157.825 22.612 157.969 22.388ZM170.794 34.172C169.898 34.172 169.122 33.964 168.466 33.548C167.81 33.148 167.306 32.628 166.954 31.988C166.602 31.332 166.426 30.66 166.426 29.972C166.426 28.82 166.602 27.756 166.954 26.78C167.306 25.788 167.77 24.892 168.346 24.092C168.922 23.276 169.546 22.556 170.218 21.932C170.906 21.308 171.57 20.788 172.21 20.372C172.866 19.94 173.45 19.62 173.962 19.412C174.474 19.188 174.85 19.076 175.09 19.076C175.522 19.076 175.826 19.172 176.002 19.364C176.194 19.54 176.29 19.836 176.29 20.252C176.29 20.492 176.114 20.78 175.762 21.116C175.426 21.452 174.978 21.836 174.418 22.268C173.874 22.7 173.298 23.188 172.69 23.732C172.082 24.276 171.498 24.884 170.938 25.556C170.394 26.228 169.946 26.964 169.594 27.764C169.258 28.564 169.09 29.436 169.09 30.38C169.09 30.732 169.154 31.004 169.282 31.196C169.426 31.388 169.658 31.484 169.978 31.484C170.89 31.484 171.866 31.324 172.906 31.004C173.962 30.668 175.01 30.252 176.05 29.756C177.106 29.244 178.098 28.716 179.026 28.172C179.97 27.628 180.778 27.14 181.45 26.708C181.722 26.516 181.954 26.364 182.146 26.252C182.338 26.14 182.474 26.084 182.554 26.084C183.034 26.084 183.274 26.332 183.274 26.828C183.274 27.084 183.082 27.428 182.698 27.86C182.25 28.42 181.642 28.996 180.874 29.588C180.122 30.18 179.282 30.748 178.354 31.292C177.442 31.836 176.506 32.324 175.546 32.756C174.602 33.188 173.714 33.532 172.882 33.788C172.05 34.044 171.354 34.172 170.794 34.172ZM198.818 21.404C198.818 21.596 198.754 21.764 198.626 21.908C198.498 22.052 198.338 22.164 198.146 22.244C197.874 22.356 197.402 22.5 196.73 22.676C196.058 22.852 195.242 23.052 194.282 23.276C193.338 23.5 192.322 23.732 191.234 23.972C190.146 24.196 189.058 24.412 187.97 24.62C187.554 26.156 187.13 27.74 186.698 29.372C186.266 30.988 185.834 32.58 185.402 34.148C185.242 34.708 185.05 35.132 184.826 35.42C184.602 35.724 184.218 35.876 183.674 35.876C183.082 35.876 182.682 35.684 182.474 35.3C182.282 34.932 182.258 34.428 182.402 33.788C182.818 32.044 183.202 30.42 183.554 28.916C183.922 27.412 184.218 26.196 184.442 25.268C183.482 25.428 182.642 25.556 181.922 25.652C181.202 25.732 180.69 25.764 180.386 25.748C180.05 25.716 179.77 25.58 179.546 25.34C179.322 25.1 179.218 24.804 179.234 24.452C179.266 24.132 179.41 23.86 179.666 23.636C179.922 23.396 180.226 23.252 180.578 23.204C181.074 23.156 181.714 23.084 182.498 22.988C183.282 22.892 184.146 22.78 185.09 22.652C185.298 21.836 185.538 20.996 185.81 20.132C186.082 19.252 186.362 18.412 186.65 17.612C186.954 16.796 187.242 16.084 187.514 15.476C187.786 14.868 188.034 14.428 188.258 14.156C188.434 13.948 188.65 13.788 188.906 13.676C189.178 13.564 189.442 13.508 189.698 13.508C190.034 13.508 190.306 13.628 190.514 13.868C190.722 14.108 190.826 14.388 190.826 14.708C190.826 14.836 190.818 14.972 190.802 15.116C190.786 15.244 190.754 15.372 190.706 15.5C190.402 16.3 190.074 17.268 189.722 18.404C189.386 19.54 189.034 20.788 188.666 22.148C189.866 21.972 191.042 21.796 192.194 21.62C193.362 21.428 194.418 21.252 195.362 21.092C196.322 20.916 197.09 20.764 197.666 20.636C197.986 20.524 198.258 20.548 198.482 20.708C198.706 20.852 198.818 21.084 198.818 21.404ZM195.926 33.86C195.478 33.86 195.078 33.708 194.726 33.404C194.39 33.1 194.222 32.604 194.222 31.916C194.222 31.548 194.27 31.028 194.366 30.356C194.478 29.684 194.622 28.956 194.798 28.172C194.974 27.372 195.166 26.58 195.374 25.796C195.598 25.012 195.814 24.316 196.022 23.708C196.23 23.084 196.414 22.62 196.574 22.316C196.782 21.948 196.974 21.724 197.15 21.644C197.342 21.548 197.526 21.5 197.702 21.5C198.022 21.5 198.318 21.596 198.59 21.788C198.878 21.98 199.022 22.404 199.022 23.06C199.022 23.316 198.974 23.732 198.878 24.308C198.782 24.868 198.662 25.524 198.518 26.276C198.374 27.028 198.214 27.804 198.038 28.604C197.878 29.404 197.718 30.164 197.558 30.884C197.414 31.588 197.294 32.18 197.198 32.66C197.118 33.06 196.95 33.356 196.694 33.548C196.454 33.756 196.198 33.86 195.926 33.86ZM198.686 19.124C198.158 19.124 197.67 18.972 197.222 18.668C196.774 18.348 196.55 17.86 196.55 17.204C196.55 16.66 196.686 16.22 196.958 15.884C197.23 15.548 197.55 15.308 197.918 15.164C198.302 15.004 198.638 14.924 198.926 14.924C199.214 14.924 199.534 14.988 199.886 15.116C200.238 15.228 200.542 15.444 200.798 15.764C201.07 16.068 201.206 16.508 201.206 17.084C201.206 17.468 201.07 17.82 200.798 18.14C200.526 18.444 200.19 18.684 199.79 18.86C199.406 19.036 199.038 19.124 198.686 19.124ZM202.617 33.02C202.233 33.02 201.953 32.892 201.777 32.636C201.601 32.364 201.529 32.028 201.561 31.628C201.577 31.404 201.753 31.084 202.089 30.668C202.425 30.236 202.865 29.732 203.409 29.156C203.953 28.564 204.553 27.932 205.209 27.26C205.881 26.572 206.569 25.876 207.273 25.172C206.393 23.876 205.729 22.836 205.281 22.052C204.849 21.268 204.617 20.652 204.585 20.204C204.553 19.708 204.633 19.308 204.825 19.004C205.033 18.7 205.361 18.548 205.809 18.548C206.065 18.548 206.329 18.668 206.601 18.908C206.889 19.148 207.249 19.588 207.681 20.228C208.129 20.868 208.721 21.772 209.457 22.94C210.561 21.836 211.465 20.94 212.169 20.252C212.889 19.548 213.465 19.004 213.897 18.62C214.345 18.236 214.689 17.972 214.929 17.828C215.185 17.684 215.401 17.612 215.577 17.612C215.961 17.612 216.233 17.748 216.393 18.02C216.569 18.276 216.641 18.612 216.609 19.028C216.577 19.364 216.377 19.772 216.009 20.252C215.657 20.716 215.201 21.228 214.641 21.788C214.081 22.332 213.473 22.9 212.817 23.492C212.177 24.068 211.553 24.636 210.945 25.196C211.937 26.604 212.865 27.836 213.729 28.892C214.609 29.932 215.321 30.796 215.865 31.484C216.409 32.156 216.689 32.652 216.705 32.972C216.737 33.308 216.649 33.572 216.441 33.764C216.249 33.956 215.969 34.052 215.601 34.052C215.393 34.052 215.137 33.98 214.833 33.836C214.529 33.692 214.121 33.396 213.609 32.948C213.113 32.5 212.473 31.828 211.689 30.932C210.921 30.02 209.961 28.796 208.809 27.26C208.153 27.932 207.497 28.604 206.841 29.276C206.201 29.948 205.593 30.572 205.017 31.148C204.457 31.708 203.961 32.164 203.529 32.516C203.113 32.852 202.809 33.02 202.617 33.02ZM221.36 34.124C220.864 34.124 220.4 33.972 219.968 33.668C219.536 33.364 219.32 32.868 219.32 32.18C219.32 31.652 219.456 31.228 219.728 30.908C220 30.572 220.312 30.324 220.664 30.164C221.032 30.004 221.344 29.924 221.6 29.924C221.872 29.924 222.176 29.988 222.512 30.116C222.864 30.228 223.168 30.444 223.424 30.764C223.68 31.068 223.808 31.508 223.808 32.084C223.808 32.644 223.568 33.124 223.088 33.524C222.624 33.924 222.048 34.124 221.36 34.124Z" fill="#8D9CF4"/>
<defs>
<clipPath id="clip0_347_11">
<rect width="50" height="50" fill="white"/>
</clipPath>
</defs>
</svg>
