<svg viewBox="0 0 123 119" fill="none" xmlns="http://www.w3.org/2000/svg">
<path d="M77.5047 98.3645C77.3567 97.9835 77.0097 97.6241 76.6022 97.5281C76.3367 97.4656 75.8702 97.512 75.9462 97.919C76.3117 99.8755 77.1232 101.992 78.1842 103.678C78.4182 104.05 78.8812 104.31 79.3307 104.284C79.6517 104.265 80.1077 104.072 79.8977 103.665C78.9887 101.903 78.2267 100.224 77.5047 98.3645Z" fill="#7497C1"/>
<path d="M80.6351 100.337C79.6896 98.8841 78.8951 97.3365 78.1611 95.768C77.8786 95.165 76.2251 94.5485 76.6236 95.6215C77.1536 97.0475 77.7962 98.4161 78.5462 99.7401C79.2687 101.017 80.0622 102.431 81.1347 103.445C81.4227 103.717 83.0476 104.024 82.6106 103.213C82.0661 102.202 81.2646 101.303 80.6351 100.337Z" fill="#7497C1"/>
<path d="M84.8452 102.851C82.5162 99.404 80.2651 95.9355 78.2551 92.2845C78.0501 91.913 77.6191 91.5245 77.1641 91.5335C76.7906 91.541 76.5136 91.8011 76.7136 92.1881C78.7821 96.1896 81.0436 100.164 83.6666 103.831C83.9431 104.218 84.6261 104.449 85.0786 104.257C85.3426 104.145 85.5406 104.099 85.6181 103.81C85.7241 103.417 85.3007 103.025 84.8452 102.851Z" fill="#7497C1"/>
<path d="M83.4532 95.7906C81.8332 93.4986 80.1042 91.2836 78.2882 89.1436C78.0457 88.8576 77.5072 88.4611 77.1007 88.6221C76.7122 88.7756 76.7197 89.1456 76.9687 89.4506C77.2507 89.7961 77.5301 90.1446 77.8076 90.4941C77.7736 90.5916 77.7981 90.7281 77.9091 90.9116C80.1501 94.6046 82.4151 98.3286 84.9431 101.834C85.0371 101.965 85.2997 102.075 85.5937 102.132C85.8257 102.51 86.0607 102.887 86.3022 103.259C86.6132 103.737 88.3932 103.773 88.0562 103.058C86.8507 100.497 85.0832 98.0966 83.4532 95.7906Z" fill="#7497C1"/>
<path d="M90.7587 102.507C90.6902 102.47 90.6217 102.434 90.5532 102.398C90.5122 102.376 90.4542 102.357 90.3842 102.342C89.4847 101.248 88.7677 99.9135 87.9497 98.772C87.0672 97.5405 86.1607 96.3265 85.2312 95.1295C83.2227 92.545 81.1052 90.0545 78.9042 87.632C78.3732 87.048 76.7977 87.091 77.6077 88.0245C79.8467 90.6035 81.9772 93.2805 84.0072 96.027C85.0177 97.3945 86.0037 98.7805 86.9637 100.184C87.5247 101.004 88.0657 101.835 88.6102 102.665C88.9617 103.2 89.1907 103.461 89.8477 103.582C90.1987 103.646 90.8377 103.53 90.9837 103.145C90.9967 103.111 91.0092 103.077 91.0222 103.043C91.1087 102.813 90.9562 102.612 90.7587 102.507Z" fill="#7497C1"/>
<path d="M93.9062 98.9061C94.2832 99.2396 94.6807 99.5436 95.1042 99.8036C95.4507 100.016 95.9552 100.079 96.3302 99.9046C96.5812 99.7881 96.9121 99.4676 96.6046 99.1916C96.1686 98.7996 95.7547 98.4061 95.3582 98.0056C95.4337 97.9966 95.5082 97.9831 95.5807 97.9591C95.8662 97.8641 96.2977 97.5411 95.9682 97.2151C92.1457 93.4351 90.2071 88.4951 87.7586 83.8131C84.9461 78.4361 81.6157 73.3731 78.2627 68.3251C77.8667 67.7291 76.1402 67.6371 76.7397 68.5811C80.0487 73.7921 83.3896 79.0131 86.2096 84.5096C86.3996 84.8801 86.5867 85.2556 86.7727 85.6326C86.0512 84.4121 85.3067 83.2076 84.5902 82.0056C82.5032 78.5046 80.5411 74.8341 78.1911 71.5041C77.8701 71.0491 76.1571 70.8541 76.5811 71.6891C77.8366 74.1611 79.2817 76.5601 80.7312 78.9446C79.6852 77.7916 78.7007 76.5886 77.8977 75.2351C77.5807 74.7011 75.9827 74.3931 76.4627 75.3186C77.6812 77.6701 79.4412 79.5921 81.1942 81.5481C82.4742 82.9761 83.7086 84.4476 84.8751 85.9706C85.5556 87.1856 86.2172 88.4081 86.8562 89.6476C85.6072 87.9771 84.3626 86.3036 83.1236 84.6261C81.5571 82.5046 80.0486 80.2921 78.2791 78.3341C77.9481 77.9676 76.5341 77.6781 76.9906 78.5631C78.1336 80.7761 79.7821 82.7821 81.2426 84.7926C82.7801 86.9096 84.3262 89.0206 85.8767 91.1281C87.4147 93.2186 88.9651 95.2996 90.5221 97.3756C91.2996 98.4121 92.0791 99.4481 92.8606 100.482C93.0921 100.789 93.3192 101.113 93.5492 101.438C93.5017 101.433 93.4517 101.43 93.4002 101.428C93.1192 101.103 92.8561 100.636 92.6751 100.401C92.4241 100.074 92.1731 99.7461 91.9221 99.4191C91.3361 98.6556 90.7506 97.8921 90.1646 97.1291C88.8756 95.4501 87.5892 93.7686 86.3022 92.0881C85.1367 90.5671 83.9671 89.0496 82.7971 87.5321C81.5386 85.9001 80.3501 83.9936 78.7766 82.6606C78.3546 82.3031 77.4282 82.2561 77.6707 83.0276C77.9937 84.0541 78.8757 84.9671 79.5362 85.8246C79.2217 85.5211 78.9051 85.2191 78.5836 84.9241C78.0956 84.4771 76.6941 84.4051 77.4021 85.3481C78.5586 86.8876 79.9282 88.2851 81.1947 89.7341C82.5427 91.2761 83.8651 92.8396 85.1626 94.4241C87.7596 97.5956 90.1626 100.9 92.6106 104.185C93.0276 104.745 94.7546 104.297 94.3241 103.541C94.1546 103.243 93.9722 102.954 93.7937 102.662C93.7847 102.647 93.7731 102.633 93.7611 102.619C93.9216 102.534 94.0561 102.415 94.1471 102.258C94.4526 102.657 94.7747 103.039 95.1317 103.367C95.4777 103.686 97.2922 103.737 96.8532 102.977C96.0317 101.554 94.9682 100.22 93.9062 98.9061ZM89.0481 92.5666C89.1206 92.5701 89.1927 92.5686 89.2632 92.5631C89.5757 93.0786 89.8887 93.5936 90.2077 94.1056C89.8212 93.5931 89.4346 93.0796 89.0481 92.5666Z" fill="#7497C1"/>
<path d="M96.3437 93.5255C96.9322 93.872 98.3457 93.5021 97.8012 92.8026C89.9167 82.6701 85.4617 70.382 77.5367 60.2825C77.2747 59.9485 76.7847 59.6361 76.3382 59.7191C75.9717 59.7871 75.7387 60.0896 76.0002 60.4386C78.9322 64.3431 81.3742 68.5581 83.7142 72.8366C81.8647 70.2551 79.8642 67.7825 77.7202 65.4105C77.0707 64.692 75.8567 65.068 76.6827 65.9985C80.8247 70.667 84.2752 75.895 87.2132 81.3905C89.9577 86.525 92.4942 91.8255 96.4572 96.163C96.9302 96.6805 98.7127 96.2701 98.0632 95.5656C97.4572 94.9081 96.8882 94.225 96.3437 93.5255Z" fill="#7497C1"/>
<path d="M77.2032 58.5026C80.7837 63.8806 84.2887 69.3021 87.3692 74.9856C90.0452 79.9241 92.6102 84.9771 96.3137 89.2471C96.7722 89.7756 98.5572 89.3941 97.9262 88.6666C96.4412 86.9546 95.1367 85.1196 93.9292 83.2211C94.4952 83.9901 95.0811 84.7441 95.6966 85.4756C96.1471 86.0111 97.9007 85.5311 97.2677 84.7911C93.2862 80.1376 90.3727 74.5686 87.2222 69.3391C84.3687 64.6031 81.5097 59.8701 78.6447 55.1416C78.4252 54.7786 77.9751 54.4101 77.5221 54.4391C77.1516 54.4626 76.8807 54.7356 77.1007 55.1126C78.4927 57.5001 79.8867 59.887 81.2812 62.2735C80.3682 60.916 79.4477 59.5626 78.5262 58.2101C78.0712 57.5421 76.5227 57.4801 77.2032 58.5026Z" fill="#7497C1"/>
<path d="M77.4126 51.244C76.8996 50.715 75.4986 50.9161 76.2561 51.7321C80.1471 55.9231 83.2157 60.7855 86.1842 65.651C89.3022 70.7615 92.3497 75.9161 95.5002 81.0066C95.8372 81.5516 97.0656 81.423 97.2976 80.835C97.3446 80.708 97.3966 80.583 97.4541 80.46C97.6251 80.076 97.2341 79.8076 96.7721 79.7201C96.1686 78.7241 95.5612 77.7305 94.9532 76.737C95.0097 76.792 95.0642 76.8496 95.1217 76.9026C95.5052 77.2576 97.2292 77.2771 96.6847 76.4751C95.8842 75.2956 94.9137 74.2215 94.0722 73.0675C93.2487 71.9375 92.4597 70.7821 91.6927 69.6136C90.0802 67.1581 88.5552 64.6461 87.0082 62.1496C83.8492 57.0486 80.6822 51.9536 77.4587 46.8931C77.2222 46.5216 76.7637 46.2606 76.3122 46.2876C76.0167 46.3051 75.5057 46.5075 75.7452 46.9055C77.3047 49.498 78.8772 52.0831 80.4577 54.6626C79.4907 53.4876 78.4801 52.345 77.4126 51.244Z" fill="#7497C1"/>
<path d="M95.0896 73.8841C95.5181 74.4741 97.3412 74.1676 96.8897 73.5511C89.9527 64.0726 84.4181 53.6706 77.4726 44.1951C77.1006 43.6871 75.4646 43.5471 76.0481 44.3881C82.7206 54.0086 88.2066 64.4046 95.0896 73.8841Z" fill="#7497C1"/>
<path d="M92.8042 63.9616C91.1737 61.5091 89.5431 59.0566 87.9121 56.6046C86.2606 54.1211 84.6022 51.6421 82.9432 49.1631C81.2602 46.6486 79.6327 44.0556 77.7632 41.6746C77.4132 41.2291 75.8146 40.8786 76.3346 41.8361C77.7926 44.5221 79.6031 47.0456 81.2846 49.5951C82.9641 52.1406 84.6437 54.6866 86.3302 57.2276C87.9997 59.7426 89.6691 62.258 91.3391 64.773C92.8191 67.0025 94.1771 69.5525 96.2221 71.3245C96.7446 71.777 98.5346 71.3495 97.8346 70.7445C95.7226 68.9165 94.3352 66.2636 92.8042 63.9616Z" fill="#7497C1"/>
<path d="M80.5622 42.4216C79.6087 41.2971 78.6107 40.2066 77.5522 39.1626C77.2827 38.8971 76.7527 38.51 76.3432 38.693C75.9697 38.86 75.9757 39.238 76.2477 39.5265C83.9912 47.7445 88.6307 58.2805 95.9622 66.8225C96.4167 67.352 98.2237 67.0546 97.6042 66.3311C97.0812 65.7211 96.5732 65.0996 96.0762 64.4701C96.4502 64.3831 96.6832 64.1631 96.4102 63.8036C89.3907 54.5616 83.7232 44.3576 77.4282 34.6161C76.9942 33.9441 75.4812 33.7765 76.0942 34.8505C77.5447 37.3945 79.0432 39.9141 80.5622 42.4216Z" fill="#7497C1"/>
<path d="M86.6671 48.1255C88.0816 50.3 89.4891 52.4785 90.9036 54.653C92.3276 56.8415 93.6401 59.1965 95.2356 61.263C95.6446 61.793 97.4416 61.5311 96.9996 60.7746C96.8186 60.4646 96.6331 60.1566 96.4451 59.8496C97.0081 59.8681 97.5836 59.6916 97.3331 59.2456C96.2006 57.2331 94.6866 55.383 93.4231 53.4445C92.1371 51.472 90.9027 49.4675 89.7052 47.4405C87.1992 43.1985 84.9272 38.822 82.7492 34.404C82.4937 33.8855 80.7916 33.4646 81.1326 34.2891C82.3381 37.2041 83.7206 40.0501 85.2016 42.8411C83.1966 39.9306 81.1241 37.071 78.9176 34.2995C78.5326 33.816 76.9001 33.7065 77.5026 34.554C80.6666 39.003 83.6911 43.5495 86.6671 48.1255Z" fill="#7497C1"/>
<path d="M98.0732 55.4316C97.9777 55.3161 97.7882 55.2436 97.5677 55.2101C97.0987 54.5526 96.6367 53.8905 96.1777 53.226C96.7297 53.2035 97.2817 52.961 97.0372 52.5625C95.3632 49.8295 93.5507 47.2011 91.9777 44.4021C90.1572 41.1626 88.4852 37.8211 86.9317 34.4456C86.6392 33.8101 84.9707 33.3511 85.3882 34.3996C85.9882 35.9066 86.6252 37.3926 87.2992 38.8611C86.4147 37.2606 85.5527 35.6471 84.7162 34.0206C84.4447 33.4926 82.7282 33.1611 83.0967 33.9586C86.7642 41.8956 91.3317 49.4181 96.4257 56.5171C96.8047 57.0451 97.9282 57.006 98.2282 56.4056C98.4237 56.0146 98.3427 55.7576 98.0732 55.4316Z" fill="#7497C1"/>
<path d="M91.0986 41.8251C91.9066 43.1986 92.7551 44.5491 93.6456 45.8706C94.5336 47.1886 95.4386 48.8006 96.6236 49.8656C97.0176 50.2196 98.6612 50.2996 98.1867 49.4381C97.4607 48.1196 96.3671 46.9466 95.5051 45.7081C94.5571 44.3471 93.6501 42.9581 92.7886 41.5411C91.0901 38.7466 89.6331 35.8326 88.1566 32.9176C87.9651 32.5391 87.5451 32.1371 87.0911 32.1316C86.6906 32.1266 86.4651 32.3736 86.6196 32.7711C87.8401 35.9151 89.3891 38.9196 91.0986 41.8251Z" fill="#7497C1"/>
<path d="M92.6766 40.4046C93.2371 41.4201 93.8111 42.4286 94.4001 43.4286C94.8416 44.1781 95.2606 44.9151 96.0011 45.4006C96.4351 45.6851 98.1697 45.4071 97.4807 44.7401C96.8567 44.1361 96.3326 43.4096 95.8576 42.6411C96.4551 42.9431 97.6416 42.7316 97.3801 42.0806C96.7861 40.6026 96.1167 39.1506 95.4702 37.6951C95.1577 36.9916 94.8356 36.2921 94.5176 35.5916C94.2591 35.0221 94.0976 34.5316 93.5211 34.2336C93.1466 34.0401 92.6521 33.9671 92.3041 34.2446C92.2821 34.2621 92.2607 34.2796 92.2387 34.2966C92.0462 34.4501 92.1547 34.7416 92.2777 34.8926C92.2927 34.9111 92.3076 34.9291 92.3221 34.9476C92.3666 35.0026 92.4426 35.0576 92.5371 35.1091C92.8091 35.5971 92.9751 36.2721 93.1671 36.7366C93.4321 37.3776 93.7006 38.0166 93.9721 38.6546C94.3501 39.5436 94.7137 40.4426 95.1007 41.3291C94.7962 40.7756 94.5026 40.2226 94.2031 39.6981C93.0826 37.7381 92.0426 35.7336 90.8991 33.7866C90.6841 33.4206 90.2481 33.0406 89.7921 33.0596C89.3846 33.0771 89.1896 33.3341 89.3561 33.7241C90.3351 36.0171 91.4711 38.2216 92.6766 40.4046Z" fill="#7497C1"/>
<path d="M52.8277 98.0241C52.0437 96.7901 51.2582 95.5575 50.4712 94.3255C50.2432 93.9685 49.7756 93.6166 49.3261 93.6601C48.9511 93.6966 48.7011 93.9756 48.9271 94.3471C49.5906 95.4391 50.2556 96.5301 50.9206 97.6206C50.3466 97.4326 49.6322 97.5381 49.8357 98.1551C50.4247 99.9406 51.2346 101.96 52.5116 103.369C52.8786 103.774 54.5627 103.844 54.0922 103.01C53.7367 102.38 53.3741 101.768 53.0241 101.151C53.2926 101.578 53.5731 101.994 53.8781 102.387C54.1766 102.77 55.9176 103.207 55.4976 102.325C54.7791 100.818 53.7227 99.4326 52.8277 98.0241Z" fill="#66AFA4"/>
<path d="M54.4962 97.2421C53.3287 95.3621 52.2256 93.4386 51.0201 91.5826C50.6921 91.0776 49.0917 90.7486 49.5862 91.6816C50.5877 93.5726 51.7277 95.3956 52.7822 97.2571C53.7847 99.0266 54.7167 100.909 55.8682 102.585C56.1847 103.046 57.9741 103.112 57.6241 102.404C56.7416 100.618 55.5472 98.9346 54.4962 97.2421Z" fill="#66AFA4"/>
<path d="M49.9276 100.491C49.6821 100.165 49.2282 99.7895 48.7837 99.88C48.3567 99.967 48.3926 100.4 48.5886 100.696C49.2251 101.658 49.7947 102.764 50.5532 103.634C50.8297 103.951 51.2396 104.173 51.6706 104.148C51.9461 104.132 52.3676 103.93 52.1721 103.572C51.5711 102.471 50.6801 101.492 49.9276 100.491Z" fill="#66AFA4"/>
<path d="M55.2392 94.773C53.6197 92.008 51.9987 89.2416 50.3092 86.5196C49.9432 85.9301 48.2277 85.6501 48.7697 86.6421C50.2962 89.4371 51.8742 92.2036 53.4622 94.9641C55.0212 97.6741 56.4902 100.461 58.1527 103.108C58.5182 103.69 60.3617 103.586 59.9652 102.854C58.4822 100.114 56.8142 97.4615 55.2392 94.773Z" fill="#66AFA4"/>
<path d="M59.3821 97.682C58.3611 96.1485 57.4311 94.557 56.4966 92.97C54.6201 89.7815 52.6922 86.5956 50.0522 83.9696C49.7842 83.7031 49.2516 83.3175 48.8431 83.5C48.4631 83.67 48.4836 84.041 48.7476 84.3335C51.2591 87.12 53.1257 90.389 54.9922 93.622C55.8797 95.1595 56.7702 96.6971 57.7432 98.1826C58.7032 99.6481 59.7357 101.268 61.0432 102.451C61.4962 102.861 63.3257 102.738 62.6792 101.942C61.5407 100.538 60.3871 99.191 59.3821 97.682Z" fill="#66AFA4"/>
<path d="M69.5042 97.5351C68.3002 94.9036 66.6067 92.4961 64.9662 90.1241C63.2247 87.6056 61.5212 85.0676 59.9207 82.4561C59.3147 81.4671 58.7197 80.471 58.1297 79.4715C58.8682 80.6155 59.6427 81.7366 60.4517 82.8346C61.3212 84.0141 62.2156 85.1751 63.1311 86.3196C64.1716 87.6191 65.1782 89.0405 66.3777 90.1955C66.5757 90.3865 67.0912 90.4546 67.4947 90.3821C68.0857 90.6121 69.3132 90.4001 68.9732 89.8131C68.2752 88.6066 67.4867 87.4396 66.6772 86.2861C67.3052 86.5841 68.6207 86.1831 68.2137 85.6161C61.9592 76.9016 56.0606 67.9611 50.3286 58.8971C49.9971 58.3731 48.3827 58.0951 48.8947 58.9961C51.3217 63.2691 53.8962 67.4691 56.5702 71.6076C54.4217 68.4771 52.2641 65.3526 50.0761 62.2491C49.6296 61.6161 48.0571 61.3971 48.7346 62.4396C51.7891 67.1396 54.8936 71.8056 58.0081 76.4661C59.4811 78.6711 60.9561 80.8746 62.4331 83.0771C62.2346 82.8311 62.0362 82.5846 61.8437 82.3341C60.0352 79.9806 58.3546 77.5296 56.9546 74.9096C56.7546 74.5356 56.3261 74.1426 55.8716 74.1471C55.5361 74.1501 55.2737 74.3626 55.3737 74.6906C53.6242 71.5841 51.9247 68.4481 50.2417 65.3081C49.9412 64.7481 48.3402 64.4161 48.8042 65.3291C51.7282 71.0776 54.6112 76.8446 57.9072 82.3926C60.2417 86.3216 62.8726 90.0511 65.2946 93.9151C64.0291 92.2816 62.7617 90.6491 61.5672 88.9601C59.4602 85.9796 57.4137 82.9636 55.4607 79.8796C55.2857 79.6036 54.9961 79.3186 54.6621 79.2106C53.1841 76.2051 51.7841 73.1616 50.4481 70.0901C50.1831 69.4806 48.3966 69.0096 48.7451 69.8971C50.9096 75.4051 53.4192 80.7676 56.2007 85.9906C56.5247 86.5996 56.8516 87.2106 57.1816 87.8216C55.0021 84.2791 52.9261 80.6721 50.9316 77.0226C50.7281 76.6501 50.2947 76.2626 49.8407 76.2716C49.4607 76.2796 49.1972 76.5376 49.3902 76.9261C50.4307 79.0236 51.5201 81.0946 52.6516 83.1416C51.9771 82.1106 51.3052 81.0786 50.6262 80.0506C50.2512 79.4821 48.5027 79.163 49.0832 80.1225C53.8397 87.983 58.7872 95.7271 63.7412 103.464C64.0762 103.988 65.0992 103.855 65.4577 103.427C65.5492 103.317 65.6096 103.206 65.6491 103.095C65.6576 103.103 65.6652 103.112 65.6737 103.12C66.0742 103.497 67.6926 103.527 67.2321 102.675C66.9811 102.21 66.6817 101.767 66.3647 101.334C66.8802 101.234 67.3282 100.916 67.0697 100.509C65.1602 97.5036 63.2307 94.5281 61.3822 91.4986C63.0917 93.9621 64.8571 96.4196 66.8081 98.6716C67.1526 99.0696 68.5497 98.8471 68.5677 98.3606C69.1357 98.3346 69.7252 98.0181 69.5042 97.5351Z" fill="#66AFA4"/>
<path d="M53.2597 63.2176C54.6862 65.5096 56.1617 67.771 57.6847 70C59.1697 72.174 60.7017 74.3155 62.2767 76.4245C63.0902 77.5135 63.9112 78.5976 64.7427 79.6731C65.5687 80.7411 66.3887 82.1581 67.4732 82.9701C67.8827 83.2766 69.5032 83.3971 69.0267 82.5086C68.3312 81.2106 67.1507 80.0921 66.2337 78.9326C65.4097 77.8901 64.5987 76.8381 63.8022 75.7746C62.1972 73.6316 60.6382 71.4541 59.1252 69.2456C57.6492 67.0921 56.2187 64.9071 54.8342 62.6936C53.4612 60.4991 52.2507 58.1445 50.7432 56.041C50.4657 55.6535 48.7382 55.1136 49.1227 56.0146C50.1957 58.5286 51.8182 60.9016 53.2597 63.2176Z" fill="#66AFA4"/>
<path d="M58.7112 67.7521C61.1822 71.7331 64.2552 75.2846 67.3152 78.8166C67.6012 79.1471 68.1267 79.3076 68.5542 79.2011C68.8452 79.1281 69.3027 78.8381 68.9972 78.4886C65.9157 74.9616 62.8102 71.4121 60.3182 67.4316C59.9442 66.8346 59.5886 66.2286 59.2401 65.6186C59.4061 65.8791 59.5707 66.1406 59.7392 66.3996C61.8457 69.6381 64.1202 72.8856 66.7217 75.7506C67.1682 76.2421 68.9871 76.0576 68.3736 75.2951C65.9471 72.2771 63.5472 69.2861 61.4157 66.0461C59.2942 62.8206 57.3897 59.4611 55.6177 56.0321C55.3452 55.5046 53.6272 55.2136 53.9972 56.0231C54.4627 57.0411 54.9536 58.0466 55.4641 59.0426C54.7336 57.9201 53.9377 56.837 53.0197 55.8255C52.5332 55.2895 51.1237 55.3836 51.8387 56.2496C54.7072 59.7271 56.3507 63.9501 58.7112 67.7521Z" fill="#66AFA4"/>
<path d="M61.4167 64.9461C63.1617 67.7651 64.8837 70.6851 66.8872 73.3296C67.2932 73.8651 69.0647 73.7606 68.5487 72.9106C68.4107 72.6831 68.2682 72.4571 68.1267 72.2316C68.7362 72.4181 69.4651 72.3771 69.1701 71.7271C68.7131 70.7211 68.1786 69.7326 67.6071 68.7576C68.2156 68.9636 69.2037 68.8201 68.9577 68.3066C68.4677 67.2841 67.9472 66.2751 67.4062 65.2756C68.0222 65.5831 69.0702 65.5916 68.7517 64.8551C68.3277 63.8746 67.8222 62.9141 67.2647 61.9771C67.8832 62.3101 68.9682 62.2876 68.4832 61.4751C68.2717 61.1206 68.0426 60.7746 67.8051 60.4336C68.0401 60.5786 68.3192 60.6646 68.5747 60.6216C68.8327 60.5781 69.1847 60.2106 68.8822 59.9471C68.7037 59.7911 68.5087 59.3901 68.3637 59.1776C68.2477 59.0071 68.1346 58.8341 68.0246 58.6596C67.7886 58.2856 67.5686 57.9021 67.3596 57.5121C67.1926 57.2001 66.8936 56.9156 66.5451 56.8021C66.3686 56.5106 66.0381 56.2796 65.7346 56.1966C65.6641 56.1771 65.5871 56.1681 65.5116 56.1701C65.4996 56.1576 65.4887 56.1446 65.4767 56.1316C65.1957 55.8241 64.6997 55.5336 64.2677 55.6626C63.8472 55.7876 63.9481 56.2346 64.1721 56.4961C64.3136 56.6616 64.4546 56.8266 64.5966 56.9921C64.2556 57.0951 64.2272 57.4821 64.4182 57.7731C64.4972 57.8941 64.5747 58.0161 64.6527 58.1381C64.3082 57.6816 63.9597 57.2326 63.6112 56.7921C63.2582 56.3461 62.3457 56.2576 62.2602 56.6821C62.0217 56.3046 61.7826 55.9276 61.5446 55.5511C61.1136 54.8696 59.5637 54.7406 60.2107 55.7851C62.2542 59.0841 64.0602 62.5076 65.8647 65.9366C65.4817 65.3351 65.0997 64.7381 64.7292 64.1451C63.0772 61.5021 61.3791 58.8881 59.6436 56.2996C59.2911 55.7741 57.6661 55.5931 58.2151 56.4611C59.8546 59.0531 61.4602 61.6651 63.0232 64.3041C63.4397 65.0076 63.8576 65.7106 64.2741 66.4141C63.9121 65.8691 63.5527 65.3226 63.2027 64.7711C61.3982 61.9306 59.6237 59.0686 57.9037 56.1761C57.5457 55.5741 55.8192 55.2846 56.3617 56.2651C57.9837 59.1971 59.6527 62.0971 61.4167 64.9461ZM66.1512 58.0691C66.2202 58.2046 66.2887 58.3406 66.3612 58.4756C66.2582 58.3376 66.1596 58.1976 66.0586 58.0586C66.0876 58.0631 66.1187 58.0666 66.1512 58.0691Z" fill="#66AFA4"/>
<path d="M23.4801 100.678C23.1181 99.3921 22.7576 98.1066 22.3871 96.8236C22.1901 96.1396 20.3651 95.8341 20.5681 96.6196C20.9611 98.1396 21.3442 99.6641 21.7822 101.172C22.1032 102.276 22.5181 103.471 23.4936 104.155C23.7801 104.356 25.4521 104.646 24.9511 103.827C24.3091 102.777 23.8171 101.875 23.4801 100.678Z" fill="#4C76A8"/>
<path d="M28.8032 98.3321C28.0982 96.7581 27.3747 95.1931 26.6352 93.6351C25.1852 90.5781 23.6597 87.5581 22.0947 84.5591C21.7222 83.8451 20.1877 83.5806 20.7452 84.6761C21.8857 86.9196 22.9857 89.1841 24.0547 91.4626C23.5002 90.3171 22.9227 89.1826 22.3237 88.0596C21.9467 87.3531 20.4062 87.0701 20.9732 88.1621C22.3607 90.8331 23.6107 93.5791 24.6972 96.3871C25.0357 97.2621 25.3212 98.2061 25.6227 99.1541C25.4972 98.8396 25.3712 98.5251 25.2432 98.2146C24.4622 96.3226 23.7092 94.4191 22.9647 92.5126C22.7097 91.8601 21.0472 91.2721 21.4332 92.3161C22.1962 94.3811 22.9812 96.4376 23.7802 98.4891C24.4927 100.319 25.0747 102.413 26.3937 103.914C26.7052 104.268 27.7687 104.407 27.9147 104.029C28.4667 104.461 29.8692 104.624 29.3167 103.726C27.8282 101.308 27.1032 98.4521 26.0222 95.8371C25.8107 95.3251 25.5917 94.8161 25.3692 94.3091C25.9267 95.5336 26.4757 96.7626 27.0152 97.9951C27.7292 99.6246 28.3207 101.364 29.1727 102.924C29.4232 103.382 31.0752 103.94 30.7907 103.021C30.2927 101.415 29.4897 99.8656 28.8032 98.3321Z" fill="#4C76A8"/>
<path d="M30.0557 96.8811C29.1737 95.1136 28.3202 93.3316 27.4947 91.5371C25.7202 87.6786 24.0552 83.7746 22.5267 79.8116C22.2702 79.1461 20.5982 78.6391 20.9877 79.6816C22.4607 83.6221 24.0462 87.5255 25.7907 91.354C27.4972 95.0995 29.2042 98.9816 31.3472 102.502C31.6272 102.961 33.3482 103.388 32.9672 102.546C32.0962 100.618 31.0007 98.7751 30.0557 96.8811Z" fill="#4C76A8"/>
<path d="M29.5262 89.668C27.3002 85.239 25.1312 80.7726 23.4592 76.1001C23.2252 75.4461 21.5872 74.7786 21.9372 75.8366C25.1352 85.4991 30.1602 94.5116 34.6987 103.587C35.0112 104.211 36.8227 104.148 36.3842 103.277C34.1022 98.7391 31.8077 94.207 29.5262 89.668Z" fill="#4C76A8"/>
<path d="M35.2167 96.843C33.9537 94.4285 32.7422 91.9835 31.5977 89.5105C29.4087 84.7805 27.4217 79.9481 25.6972 75.0296C25.4617 74.3581 23.8122 73.8045 24.1617 74.866C25.8317 79.9405 27.7272 84.9225 29.9157 89.7965C32.0552 94.562 34.3507 99.454 37.2007 103.843C37.5197 104.334 39.3027 104.313 38.9522 103.623C37.7872 101.326 36.4122 99.1275 35.2167 96.843Z" fill="#4C76A8"/>
<path d="M39.9341 99.1541C39.8101 98.9536 39.6902 98.7506 39.5672 98.5496C39.8727 98.9056 41.6571 99.2266 41.3241 98.4211C40.5396 96.5221 39.3341 94.7431 38.4001 92.9071C37.4841 91.1066 36.6131 89.2816 35.7891 87.4371C34.1416 83.7476 32.6931 79.9696 31.4186 76.1361C31.2066 75.4986 29.4591 74.9171 29.7321 75.8321C30.9336 79.8631 32.3666 83.8161 34.0371 87.6766C34.8591 89.5751 35.7366 91.4476 36.6691 93.2941C37.1331 94.2126 37.6091 95.1246 38.0981 96.0296C38.1716 96.1666 38.2447 96.3066 38.3172 96.4481C38.2197 96.2801 38.1196 96.1131 38.0231 95.9446C36.7856 93.7831 35.6221 91.5796 34.5336 89.3391C32.3621 84.8681 30.4661 80.2596 28.8636 75.5546C28.7221 75.1396 28.3156 74.7851 27.8751 74.7146C27.5741 74.6666 27.0506 74.7541 27.1876 75.1956C28.7126 80.1021 30.5661 84.8941 32.7851 89.5291C33.8776 91.8111 35.0471 94.0561 36.2921 96.2591C36.9146 97.3606 37.5551 98.4516 38.2146 99.5311C38.8486 100.569 39.4391 101.821 40.3116 102.673C40.6916 103.044 42.2891 103.259 41.8991 102.348C41.4191 101.223 40.5786 100.197 39.9341 99.1541Z" fill="#4C76A8"/>
<path d="M42.6561 95.3601C40.4366 92.6641 39.0057 89.4875 37.7537 86.2545C36.3797 82.7055 35.0506 79.1395 33.6751 75.5905C33.5166 75.181 33.1051 74.84 32.6601 74.7835C32.3596 74.7455 31.8351 74.85 31.9886 75.2865C33.3406 79.12 34.6631 82.971 36.1151 86.768C37.3516 90 38.8001 93.162 41.0136 95.8515C41.4586 96.391 43.2641 96.0991 42.6561 95.3601Z" fill="#4C76A8"/>
<path d="M36.7581 81.7096C37.6021 83.9896 38.2881 86.5076 39.4296 88.6541C39.6866 89.1366 41.4181 89.4241 41.1951 88.6261C40.6931 86.8341 39.9326 85.0796 39.2071 83.3421C39.6936 83.7521 40.9866 83.9406 40.8076 83.2881C40.5546 82.3636 40.2577 81.4361 39.9347 80.5126C40.3392 80.9396 41.7091 81.4216 41.4661 80.5566C41.0811 79.1891 40.4686 77.8891 40.0911 76.5101C39.9721 76.0756 39.6081 75.7186 39.1696 75.5971C38.8721 75.5151 38.3467 75.5811 38.4477 76.0241C38.5567 76.5031 38.6701 77.0001 38.7971 77.4971C38.5851 76.9656 38.3706 76.4381 38.1566 75.9171C37.9526 75.4211 36.3231 74.7291 36.5626 75.6266C36.9866 77.2181 37.4761 78.8386 38.0276 80.4256C37.3021 78.6131 36.5721 76.8036 35.8336 74.9961C35.5656 74.3396 33.9156 73.8721 34.2906 74.9336C35.0906 77.2011 35.9236 79.4546 36.7581 81.7096Z" fill="#4C76A8"/>
<path d="M96.7727 0.0790741C96.7507 0.0905741 96.7282 0.101571 96.7062 0.113071C96.5512 0.137571 96.4246 0.198564 96.3396 0.299564C93.6406 1.67656 90.8782 2.91607 88.1037 4.13507C85.8622 5.11957 83.3781 5.93957 81.2641 7.17057C79.9236 7.95107 81.3452 8.82305 82.3777 8.17255C83.5092 7.45955 85.0087 7.03206 86.2372 6.50556C87.3987 6.00806 88.5611 5.51456 89.7226 5.01706C91.0936 4.43006 92.4692 3.82756 93.8567 3.25406C89.0732 8.57006 84.3282 13.9206 79.6192 19.3036C77.0302 22.2631 74.4537 25.2335 71.8902 28.2155C70.6642 29.6415 69.4412 31.0701 68.2212 32.5011C67.7137 33.0961 67.2272 33.8021 66.5887 34.2646C65.4952 35.0571 64.5612 33.8996 63.8777 33.1256C60.3502 29.1296 57.8242 23.2936 51.6562 23.2961C44.9392 23.2986 39.8442 29.3615 35.5677 33.7455C32.5122 36.8775 29.4487 40.0016 26.3902 43.1306C23.2692 46.3231 20.2022 49.6206 16.8897 52.6161C16.1737 53.2636 18.2752 54.4216 18.9257 53.6841C24.2762 47.6201 30.0372 41.8966 35.6452 36.0716C38.1967 33.4211 40.6612 30.5996 43.5052 28.2546C46.1177 26.1001 49.4872 24.0726 52.9757 25.2411C55.6017 26.1206 57.3887 28.3761 58.9692 30.5271C59.7702 31.6171 60.5442 32.7291 61.4052 33.7741C62.2322 34.7781 63.1707 36.0246 64.5397 36.2316C67.6112 36.6956 69.8636 32.9506 71.5296 30.9946C74.0921 27.9861 76.6672 24.9881 79.2547 22.0006C84.6917 15.7236 90.1947 9.50456 95.7492 3.33106C95.0117 7.59306 94.2711 11.8536 93.4646 16.1041C93.2691 17.1346 95.5777 16.8791 95.7612 15.9861C96.7462 11.1931 97.6702 6.37954 98.4162 1.54254C99.2317 1.12654 97.6137 -0.355926 96.7727 0.0790741Z" fill="#42A068"/>
<path d="M20.9127 104.159C26.6257 104.159 32.3392 104.159 38.0522 104.159C38.8592 104.159 39.6661 104.159 40.4731 104.159C40.8436 104.159 41.2932 103.786 41.4922 103.424C41.5677 103.306 41.6161 103.183 41.6161 103.061C41.6161 94.7531 41.6161 86.4451 41.6161 78.1371C41.6161 76.9676 41.6161 75.7981 41.6161 74.6286C41.6161 74.3736 41.2881 74.3175 41.1061 74.3175C35.3926 74.3175 29.6797 74.3175 23.9662 74.3175C23.1592 74.3175 22.3527 74.3175 21.5457 74.3175C20.9887 74.3175 20.4026 74.8651 20.4026 75.4151C20.4026 83.7231 20.4026 92.0311 20.4026 100.339C20.4026 101.509 20.4026 102.678 20.4026 103.848C20.4026 104.103 20.7307 104.159 20.9127 104.159ZM38.0522 75.7265C38.6892 75.7265 39.3262 75.7265 39.9632 75.7265C39.9632 83.9305 39.9632 92.1346 39.9632 100.339C39.9632 101.143 39.9632 101.947 39.9632 102.75C34.6307 102.75 29.2987 102.75 23.9662 102.75C23.3292 102.75 22.6921 102.75 22.0551 102.75C22.0551 94.5455 22.0551 86.3416 22.0551 78.1371C22.0551 77.3336 22.0551 76.5295 22.0551 75.726C27.3876 75.7265 32.7202 75.7265 38.0522 75.7265Z" fill="#1F1E21"/>
<path d="M48.7967 104.159C54.5102 104.159 60.2232 104.159 65.9367 104.159C66.7437 104.159 67.5506 104.159 68.3571 104.159C68.7281 104.159 69.1772 103.786 69.3767 103.424C69.4522 103.306 69.5006 103.183 69.5006 103.061C69.5006 97.7051 69.5006 92.3491 69.5006 86.9926C69.5006 78.4931 69.5006 69.9935 69.5006 61.494C69.5006 59.532 69.5006 57.5706 69.5006 55.6086C69.5006 55.3536 69.1726 55.2976 68.9906 55.2976C63.2776 55.2976 57.5642 55.2976 51.8512 55.2976C51.0442 55.2976 50.2371 55.2976 49.4301 55.2976C48.8731 55.2976 48.2871 55.8451 48.2871 56.3951C48.2871 61.751 48.2871 67.107 48.2871 72.4635C48.2871 80.963 48.2871 89.4626 48.2871 97.9621C48.2871 99.9236 48.2871 101.886 48.2871 103.848C48.2866 104.103 48.6147 104.159 48.7967 104.159ZM65.9367 56.7066C66.5737 56.7066 67.2106 56.7066 67.8476 56.7066C67.8476 61.9586 67.8476 67.211 67.8476 72.4635C67.8476 80.963 67.8476 89.4626 67.8476 97.9621C67.8476 99.5581 67.8476 101.154 67.8476 102.75C62.5151 102.75 57.1831 102.75 51.8506 102.75C51.2136 102.75 50.5767 102.75 49.9397 102.75C49.9397 97.4975 49.9397 92.2451 49.9397 86.9926C49.9397 78.4931 49.9397 69.9935 49.9397 61.494C49.9397 59.898 49.9397 58.3021 49.9397 56.7061C55.2722 56.7066 60.6042 56.7066 65.9367 56.7066Z" fill="#1F1E21"/>
<path d="M76.6806 104.159C82.3941 104.159 88.1072 104.159 93.8202 104.159C94.6272 104.159 95.4342 104.159 96.2412 104.159C96.6117 104.159 97.0612 103.786 97.2602 103.424C97.3357 103.306 97.3841 103.183 97.3841 103.061C97.3841 95.2116 97.3841 87.3616 97.3841 79.5121C97.3841 67.0891 97.3841 54.666 97.3841 42.243C97.3841 39.388 97.3841 36.5326 97.3841 33.6776C97.3841 33.4221 97.0562 33.3661 96.8742 33.3661C91.1607 33.3661 85.4477 33.3661 79.7342 33.3661C78.9272 33.3661 78.1201 33.3661 77.3136 33.3661C76.7566 33.3661 76.1707 33.9136 76.1707 34.4636C76.1707 42.3131 76.1707 50.1626 76.1707 58.0121C76.1707 70.4351 76.1707 82.858 76.1707 95.281C76.1707 98.136 76.1707 100.991 76.1707 103.847C76.1712 104.103 76.4991 104.159 76.6806 104.159ZM93.8206 34.7755C94.4576 34.7755 95.0947 34.7755 95.7317 34.7755C95.7317 42.5215 95.7317 50.267 95.7317 58.013C95.7317 70.436 95.7317 82.8591 95.7317 95.2821C95.7317 97.7711 95.7317 100.261 95.7317 102.75C90.3992 102.75 85.0671 102.75 79.7346 102.75C79.0981 102.75 78.4606 102.75 77.8241 102.75C77.8241 95.004 77.8241 87.2581 77.8241 79.5121C77.8241 67.0891 77.8241 54.666 77.8241 42.243C77.8241 39.754 77.8241 37.2646 77.8241 34.7751C83.1561 34.7756 88.4886 34.7755 93.8206 34.7755Z" fill="#1F1E21"/>
<path d="M121.384 112.806C118.589 111.686 115.844 110.354 113.303 108.733C112.907 108.48 111.794 108.267 111.671 108.958C111.459 110.156 111.332 111.356 111.288 112.563C103.716 112.674 96.1442 112.429 88.5802 112.379C74.0422 112.283 59.5002 112.272 44.9547 112.344C32.8307 112.404 20.6972 112.66 8.57117 112.759C8.45667 107.077 8.50015 101.381 8.47815 95.7036C8.38365 71.4346 8.85917 47.1851 9.44867 22.9256C9.88817 22.9151 10.3302 22.9265 10.7757 22.9575C10.9277 23.076 11.1671 23.0841 11.4171 23.0166C11.4551 23.0206 11.4921 23.023 11.5306 23.0275C12.2201 23.109 12.3941 22.7831 12.2531 22.4506C12.3506 22.2986 12.3917 22.133 12.3322 21.9695C11.3017 19.1555 10.2477 16.3441 9.14615 13.5571C8.89865 12.9311 7.45465 12.884 7.30115 13.597C6.63715 16.6865 5.79065 19.704 4.64765 22.653C4.40215 23.2855 5.69517 23.5795 6.08167 23.463C6.60517 23.305 7.12617 23.188 7.64817 23.1005C7.44417 28.647 7.29867 34.1956 7.16117 39.7436C6.84217 52.5876 6.66615 65.4346 6.61765 78.2816C6.57415 89.7816 6.76615 101.277 6.82315 112.775C4.78515 112.789 2.74765 112.799 0.710149 112.801C-0.495351 112.802 0.00464559 114.116 0.944646 114.087C2.90515 114.028 4.86616 113.983 6.82666 113.946C6.83166 115.16 6.83715 116.375 6.83765 117.589C6.83865 118.413 8.74267 118.392 8.71067 117.59C8.66267 116.367 8.62815 115.142 8.59815 113.917C14.3096 113.824 20.0211 113.794 25.7296 113.738C40.2286 113.594 54.7247 113.532 69.2177 113.554C76.4677 113.564 83.7177 113.596 90.9662 113.648C94.5912 113.674 98.2151 113.705 101.84 113.741C104.979 113.773 108.14 113.721 111.274 113.882C111.277 114.068 111.281 114.254 111.287 114.441C111.295 114.653 111.453 114.782 111.672 114.843C111.579 115.28 111.476 115.717 111.362 116.152C111.184 116.832 112.291 117.092 112.754 117.033C115.14 116.732 117.447 116.068 119.615 115.067C119.698 115.085 119.783 115.1 119.866 115.118C120.21 115.191 121.6 114.717 121.165 114.28C121.409 114.145 121.652 114.006 121.893 113.861C122.505 113.491 121.75 112.953 121.384 112.806ZM9.52665 19.7966C9.76415 20.4351 10.0032 21.0731 10.2432 21.7106C9.98917 21.6931 9.73466 21.683 9.48066 21.68C9.49516 21.0525 9.51115 20.4246 9.52665 19.7966ZM6.92417 21.8856C7.23817 21.0126 7.53017 20.1315 7.80167 19.244C7.76617 20.087 7.73165 20.9306 7.69965 21.7736C7.44015 21.8041 7.18117 21.8411 6.92417 21.8856ZM113.365 110.219C114.014 110.579 114.669 110.924 115.328 111.263C115.125 111.277 114.92 111.33 114.719 111.431C114.675 111.453 114.634 111.477 114.594 111.503C114.28 111.308 113.794 111.248 113.447 111.359C113.382 111.326 113.314 111.296 113.244 111.271C113.277 110.92 113.317 110.569 113.365 110.219ZM113.411 115.588C113.528 115.035 113.627 114.48 113.712 113.922C113.898 114.141 114.118 114.34 114.373 114.513C114.619 114.68 115.01 114.804 115.36 114.773C115.631 114.827 115.91 114.848 116.188 114.836C115.281 115.145 114.356 115.398 113.411 115.588ZM119.492 113.404C119.44 113.382 119.389 113.359 119.337 113.338C119.047 113.221 118.622 113.39 118.312 113.645C118.291 113.641 118.271 113.638 118.25 113.634C118.135 113.383 117.687 113.207 117.361 113.149C117.73 112.986 117.945 112.697 117.65 112.409C117.644 112.404 117.638 112.399 117.633 112.393C118.308 112.709 118.988 113.017 119.674 113.31C119.614 113.342 119.552 113.372 119.492 113.404Z" fill="#1F1E21"/>
</svg>
